<svg width="719" height="91" viewBox="0 0 719 91" fill="none" xmlns="http://www.w3.org/2000/svg">
<path d="M0 11L194.346 11.1257" stroke="black"/>
<path d="M292 11L718 11.1257" stroke="black"/>
<path d="M208.306 18.096C207.623 18.096 207.015 17.984 206.482 17.76C205.959 17.536 205.511 17.1947 205.138 16.736C204.764 16.2773 204.482 15.712 204.29 15.04C204.098 14.3573 204.002 13.568 204.002 12.672C204.002 11.872 204.076 11.1733 204.226 10.576C204.375 9.968 204.583 9.44533 204.85 9.008C205.116 8.57067 205.426 8.20267 205.778 7.904C206.14 7.59467 206.53 7.34933 206.946 7.168C207.372 6.976 207.81 6.832 208.258 6.736L212.034 5.856L212.226 6.912L208.674 7.712C208.45 7.76533 208.178 7.84 207.858 7.936C207.548 8.032 207.228 8.176 206.898 8.368C206.578 8.56 206.279 8.82667 206.002 9.168C205.724 9.50933 205.5 9.952 205.33 10.496C205.17 11.0293 205.09 11.696 205.09 12.496C205.09 12.6667 205.095 12.8053 205.106 12.912C205.116 13.008 205.127 13.1147 205.138 13.232C205.159 13.3387 205.175 13.4987 205.186 13.712L204.69 13.296C204.807 12.6453 205.047 12.08 205.41 11.6C205.772 11.1093 206.226 10.7307 206.77 10.464C207.324 10.1867 207.938 10.048 208.61 10.048C209.388 10.048 210.082 10.2187 210.69 10.56C211.298 10.8907 211.772 11.3547 212.114 11.952C212.466 12.5493 212.642 13.2427 212.642 14.032C212.642 14.8107 212.46 15.5093 212.098 16.128C211.746 16.7467 211.244 17.232 210.594 17.584C209.943 17.9253 209.18 18.096 208.306 18.096ZM208.434 17.152C209.031 17.152 209.559 17.0187 210.018 16.752C210.476 16.4747 210.834 16.1013 211.09 15.632C211.356 15.1627 211.49 14.6347 211.49 14.048C211.49 13.472 211.356 12.96 211.09 12.512C210.834 12.064 210.476 11.712 210.018 11.456C209.559 11.1893 209.026 11.056 208.418 11.056C207.82 11.056 207.292 11.184 206.834 11.44C206.375 11.6853 206.012 12.032 205.746 12.48C205.49 12.928 205.362 13.4453 205.362 14.032C205.362 14.6187 205.49 15.1467 205.746 15.616C206.012 16.0853 206.375 16.4587 206.834 16.736C207.303 17.0133 207.836 17.152 208.434 17.152ZM220.246 18V16.144L220.198 15.84V12.736C220.198 12.0213 219.995 11.472 219.59 11.088C219.195 10.704 218.603 10.512 217.814 10.512C217.27 10.512 216.752 10.6027 216.262 10.784C215.771 10.9653 215.355 11.2053 215.014 11.504L214.502 10.656C214.928 10.2933 215.44 10.016 216.038 9.824C216.635 9.62133 217.264 9.52 217.926 9.52C219.014 9.52 219.851 9.792 220.438 10.336C221.035 10.8693 221.334 11.6853 221.334 12.784V18H220.246ZM217.35 18.08C216.72 18.08 216.171 17.9787 215.702 17.776C215.243 17.5627 214.891 17.2747 214.646 16.912C214.4 16.5387 214.278 16.112 214.278 15.632C214.278 15.1947 214.379 14.8 214.582 14.448C214.795 14.0853 215.136 13.7973 215.606 13.584C216.086 13.36 216.726 13.248 217.526 13.248L220.422 13.248V14.096L217.558 14.096C216.747 14.096 216.182 14.24 215.862 14.528C215.552 14.816 215.398 15.1733 215.398 15.6C215.398 16.08 215.584 16.464 215.958 16.752C216.331 17.04 216.854 17.184 217.526 17.184C218.166 17.184 218.715 17.04 219.174 16.752C219.643 16.4533 219.984 16.0267 220.198 15.472L220.454 16.256C220.24 16.8107 219.867 17.2533 219.334 17.584C218.811 17.9147 218.15 18.08 217.35 18.08ZM227.878 18.08C227.046 18.08 226.299 17.8987 225.638 17.536C224.987 17.1627 224.475 16.656 224.102 16.016C223.728 15.3653 223.542 14.624 223.542 13.792C223.542 12.9493 223.728 12.208 224.102 11.568C224.475 10.928 224.987 10.4267 225.638 10.064C226.299 9.70133 227.046 9.52 227.878 9.52C228.592 9.52 229.238 9.65867 229.814 9.936C230.39 10.2133 230.843 10.6293 231.174 11.184L230.326 11.76C230.038 11.3333 229.68 11.0187 229.254 10.816C228.827 10.6133 228.363 10.512 227.862 10.512C227.264 10.512 226.726 10.6507 226.246 10.928C225.766 11.1947 225.387 11.5733 225.11 12.064C224.832 12.5547 224.694 13.1307 224.694 13.792C224.694 14.4533 224.832 15.0293 225.11 15.52C225.387 16.0107 225.766 16.3947 226.246 16.672C226.726 16.9387 227.264 17.072 227.862 17.072C228.363 17.072 228.827 16.9707 229.254 16.768C229.68 16.5653 230.038 16.256 230.326 15.84L231.174 16.416C230.843 16.96 230.39 17.376 229.814 17.664C229.238 17.9413 228.592 18.08 227.878 18.08ZM237.561 18V9.6H243.513V10.592H238.409L238.697 10.304V18H237.561ZM245.155 18V9.6H246.291V18H245.155ZM245.731 7.744C245.496 7.744 245.299 7.664 245.139 7.504C244.979 7.344 244.899 7.152 244.899 6.928C244.899 6.704 244.979 6.51733 245.139 6.368C245.299 6.208 245.496 6.128 245.731 6.128C245.965 6.128 246.163 6.20267 246.323 6.352C246.483 6.50133 246.563 6.688 246.563 6.912C246.563 7.14667 246.483 7.344 246.323 7.504C246.173 7.664 245.976 7.744 245.731 7.744ZM251.13 18V10.288L251.418 10.592L247.946 10.592V9.6L255.45 9.6V10.592H251.978L252.266 10.288V18H251.13ZM262.308 18V16.144L262.26 15.84V12.736C262.26 12.0213 262.057 11.472 261.652 11.088C261.257 10.704 260.665 10.512 259.876 10.512C259.332 10.512 258.815 10.6027 258.324 10.784C257.833 10.9653 257.417 11.2053 257.076 11.504L256.564 10.656C256.991 10.2933 257.503 10.016 258.1 9.824C258.697 9.62133 259.327 9.52 259.988 9.52C261.076 9.52 261.913 9.792 262.5 10.336C263.097 10.8693 263.396 11.6853 263.396 12.784V18H262.308ZM259.412 18.08C258.783 18.08 258.233 17.9787 257.764 17.776C257.305 17.5627 256.953 17.2747 256.708 16.912C256.463 16.5387 256.34 16.112 256.34 15.632C256.34 15.1947 256.441 14.8 256.644 14.448C256.857 14.0853 257.199 13.7973 257.668 13.584C258.148 13.36 258.788 13.248 259.588 13.248H262.484V14.096H259.62C258.809 14.096 258.244 14.24 257.924 14.528C257.615 14.816 257.46 15.1733 257.46 15.6C257.46 16.08 257.647 16.464 258.02 16.752C258.393 17.04 258.916 17.184 259.588 17.184C260.228 17.184 260.777 17.04 261.236 16.752C261.705 16.4533 262.047 16.0267 262.26 15.472L262.516 16.256C262.303 16.8107 261.929 17.2533 261.396 17.584C260.873 17.9147 260.212 18.08 259.412 18.08ZM270.756 18.08C270.031 18.08 269.375 17.9147 268.788 17.584C268.202 17.2427 267.732 16.7573 267.38 16.128C267.039 15.488 266.868 14.7093 266.868 13.792C266.868 12.8747 267.039 12.1013 267.38 11.472C267.722 10.832 268.186 10.3467 268.772 10.016C269.359 9.68533 270.02 9.52 270.756 9.52C271.556 9.52 272.271 9.70133 272.9 10.064C273.54 10.416 274.042 10.9173 274.404 11.568C274.767 12.208 274.948 12.9493 274.948 13.792C274.948 14.6453 274.767 15.392 274.404 16.032C274.042 16.672 273.54 17.1733 272.9 17.536C272.271 17.8987 271.556 18.08 270.756 18.08ZM266.42 21.104V9.6H267.508V12.128L267.396 13.808L267.556 15.504V21.104H266.42ZM270.676 17.072C271.274 17.072 271.807 16.9387 272.276 16.672C272.746 16.3947 273.119 16.0107 273.396 15.52C273.674 15.0187 273.812 14.4427 273.812 13.792C273.812 13.1413 273.674 12.5707 273.396 12.08C273.119 11.5893 272.746 11.2053 272.276 10.928C271.807 10.6507 271.274 10.512 270.676 10.512C270.079 10.512 269.54 10.6507 269.06 10.928C268.591 11.2053 268.218 11.5893 267.94 12.08C267.674 12.5707 267.54 13.1413 267.54 13.792C267.54 14.4427 267.674 15.0187 267.94 15.52C268.218 16.0107 268.591 16.3947 269.06 16.672C269.54 16.9387 270.079 17.072 270.676 17.072ZM282.558 18V16.144L282.51 15.84V12.736C282.51 12.0213 282.307 11.472 281.902 11.088C281.507 10.704 280.915 10.512 280.126 10.512C279.582 10.512 279.065 10.6027 278.574 10.784C278.083 10.9653 277.667 11.2053 277.326 11.504L276.814 10.656C277.241 10.2933 277.753 10.016 278.35 9.824C278.947 9.62133 279.577 9.52 280.238 9.52C281.326 9.52 282.163 9.792 282.75 10.336C283.347 10.8693 283.646 11.6853 283.646 12.784V18H282.558ZM279.662 18.08C279.033 18.08 278.483 17.9787 278.014 17.776C277.555 17.5627 277.203 17.2747 276.958 16.912C276.713 16.5387 276.59 16.112 276.59 15.632C276.59 15.1947 276.691 14.8 276.894 14.448C277.107 14.0853 277.449 13.7973 277.918 13.584C278.398 13.36 279.038 13.248 279.838 13.248L282.734 13.248V14.096L279.87 14.096C279.059 14.096 278.494 14.24 278.174 14.528C277.865 14.816 277.71 15.1733 277.71 15.6C277.71 16.08 277.897 16.464 278.27 16.752C278.643 17.04 279.166 17.184 279.838 17.184C280.478 17.184 281.027 17.04 281.486 16.752C281.955 16.4533 282.297 16.0267 282.51 15.472L282.766 16.256C282.553 16.8107 282.179 17.2533 281.646 17.584C281.123 17.9147 280.462 18.08 279.662 18.08Z" fill="black"/>
<path d="M0 78L120.457 77.8755" stroke="black"/>
<path d="M267 78L718 77.8755" stroke="black"/>
<path d="M136.799 84.75L133.343 80.59L134.287 80.03L138.143 84.75H136.799ZM130.639 84.75V76.35H131.775V84.75H130.639ZM131.423 81.006V80.03H134.127V81.006H131.423ZM134.383 80.67L133.327 80.51L136.671 76.35H137.903L134.383 80.67ZM138.4 84.734L138.48 83.758C138.555 83.7687 138.624 83.7847 138.688 83.806C138.763 83.8167 138.827 83.822 138.88 83.822C139.222 83.822 139.494 83.694 139.696 83.438C139.91 83.182 140.07 82.8407 140.176 82.414C140.283 81.9873 140.358 81.5073 140.4 80.974C140.443 80.43 140.48 79.886 140.512 79.342L140.656 76.35H146.816V84.75H145.68V77.006L145.968 77.342H141.392L141.664 76.99L141.536 79.422C141.504 80.1473 141.446 80.8407 141.36 81.502C141.286 82.1633 141.163 82.7447 140.992 83.246C140.832 83.7473 140.608 84.142 140.32 84.43C140.032 84.7073 139.664 84.846 139.216 84.846C139.088 84.846 138.955 84.8353 138.816 84.814C138.688 84.7927 138.55 84.766 138.4 84.734ZM155.262 84.75V82.894L155.214 82.59V79.486C155.214 78.7713 155.011 78.222 154.606 77.838C154.211 77.454 153.619 77.262 152.83 77.262C152.286 77.262 151.768 77.3527 151.278 77.534C150.787 77.7153 150.371 77.9553 150.03 78.254L149.518 77.406C149.944 77.0433 150.456 76.766 151.054 76.574C151.651 76.3713 152.28 76.27 152.942 76.27C154.03 76.27 154.867 76.542 155.454 77.086C156.051 77.6193 156.35 78.4353 156.35 79.534V84.75H155.262ZM152.366 84.83C151.736 84.83 151.187 84.7287 150.718 84.526C150.259 84.3127 149.907 84.0247 149.662 83.662C149.416 83.2887 149.294 82.862 149.294 82.382C149.294 81.9447 149.395 81.55 149.598 81.198C149.811 80.8353 150.152 80.5473 150.622 80.334C151.102 80.11 151.742 79.998 152.542 79.998H155.438V80.846H152.574C151.763 80.846 151.198 80.99 150.878 81.278C150.568 81.566 150.414 81.9233 150.414 82.35C150.414 82.83 150.6 83.214 150.974 83.502C151.347 83.79 151.87 83.934 152.542 83.934C153.182 83.934 153.731 83.79 154.19 83.502C154.659 83.2033 155 82.7767 155.214 82.222L155.47 83.006C155.256 83.5607 154.883 84.0033 154.35 84.334C153.827 84.6647 153.166 84.83 152.366 84.83ZM162.894 84.83C162.062 84.83 161.315 84.6487 160.654 84.286C160.003 83.9127 159.491 83.406 159.118 82.766C158.744 82.1153 158.558 81.374 158.558 80.542C158.558 79.6993 158.744 78.958 159.118 78.318C159.491 77.678 160.003 77.1767 160.654 76.814C161.315 76.4513 162.062 76.27 162.894 76.27C163.608 76.27 164.254 76.4087 164.83 76.686C165.406 76.9633 165.859 77.3793 166.19 77.934L165.342 78.51C165.054 78.0833 164.696 77.7687 164.27 77.566C163.843 77.3633 163.379 77.262 162.878 77.262C162.28 77.262 161.742 77.4007 161.262 77.678C160.782 77.9447 160.403 78.3233 160.126 78.814C159.848 79.3047 159.71 79.8807 159.71 80.542C159.71 81.2033 159.848 81.7793 160.126 82.27C160.403 82.7607 160.782 83.1447 161.262 83.422C161.742 83.6887 162.28 83.822 162.878 83.822C163.379 83.822 163.843 83.7207 164.27 83.518C164.696 83.3153 165.054 83.006 165.342 82.59L166.19 83.166C165.859 83.71 165.406 84.126 164.83 84.414C164.254 84.6913 163.608 84.83 162.894 84.83ZM168.389 84.75V76.35H169.525V83.022L175.141 76.35H176.149V84.75H175.013V78.062L169.413 84.75H168.389ZM184.717 81.198C184.226 81.4113 183.73 81.582 183.229 81.71C182.738 81.8273 182.248 81.886 181.757 81.886C180.765 81.886 179.981 81.662 179.405 81.214C178.829 80.7553 178.541 80.0513 178.541 79.102V76.35H179.661V79.038C179.661 79.678 179.869 80.158 180.285 80.478C180.701 80.798 181.261 80.958 181.965 80.958C182.392 80.958 182.84 80.9047 183.309 80.798C183.778 80.6807 184.253 80.5153 184.733 80.302L184.717 81.198ZM184.621 84.75V76.35H185.757V84.75H184.621ZM188.983 84.75V76.35H190.119V80.062H195.415V76.35H196.551V84.75H195.415V81.038H190.119V84.75H188.983ZM204.996 84.75V82.894L204.948 82.59V79.486C204.948 78.7713 204.745 78.222 204.34 77.838C203.945 77.454 203.353 77.262 202.564 77.262C202.02 77.262 201.503 77.3527 201.012 77.534C200.521 77.7153 200.105 77.9553 199.764 78.254L199.252 77.406C199.679 77.0433 200.191 76.766 200.788 76.574C201.385 76.3713 202.015 76.27 202.676 76.27C203.764 76.27 204.601 76.542 205.188 77.086C205.785 77.6193 206.084 78.4353 206.084 79.534V84.75H204.996ZM202.1 84.83C201.471 84.83 200.921 84.7287 200.452 84.526C199.993 84.3127 199.641 84.0247 199.396 83.662C199.151 83.2887 199.028 82.862 199.028 82.382C199.028 81.9447 199.129 81.55 199.332 81.198C199.545 80.8353 199.887 80.5473 200.356 80.334C200.836 80.11 201.476 79.998 202.276 79.998H205.172V80.846H202.308C201.497 80.846 200.932 80.99 200.612 81.278C200.303 81.566 200.148 81.9233 200.148 82.35C200.148 82.83 200.335 83.214 200.708 83.502C201.081 83.79 201.604 83.934 202.276 83.934C202.916 83.934 203.465 83.79 203.924 83.502C204.393 83.2033 204.735 82.7767 204.948 82.222L205.204 83.006C204.991 83.5607 204.617 84.0033 204.084 84.334C203.561 84.6647 202.9 84.83 202.1 84.83ZM213.296 84.75V76.35H219.248V77.342H214.144L214.432 77.054V84.75H213.296ZM220.889 84.75V76.35H222.025V84.75H220.889ZM221.465 74.494C221.231 74.494 221.033 74.414 220.873 74.254C220.713 74.094 220.633 73.902 220.633 73.678C220.633 73.454 220.713 73.2673 220.873 73.118C221.033 72.958 221.231 72.878 221.465 72.878C221.7 72.878 221.897 72.9527 222.057 73.102C222.217 73.2513 222.297 73.438 222.297 73.662C222.297 73.8967 222.217 74.094 222.057 74.254C221.908 74.414 221.711 74.494 221.465 74.494ZM226.864 84.75V77.038L227.152 77.342H223.68V76.35H231.184V77.342H227.712L228 77.038V84.75H226.864ZM238.043 84.75V82.894L237.995 82.59V79.486C237.995 78.7713 237.792 78.222 237.387 77.838C236.992 77.454 236.4 77.262 235.611 77.262C235.067 77.262 234.55 77.3527 234.059 77.534C233.568 77.7153 233.152 77.9553 232.811 78.254L232.299 77.406C232.726 77.0433 233.238 76.766 233.835 76.574C234.432 76.3713 235.062 76.27 235.723 76.27C236.811 76.27 237.648 76.542 238.235 77.086C238.832 77.6193 239.131 78.4353 239.131 79.534V84.75H238.043ZM235.147 84.83C234.518 84.83 233.968 84.7287 233.499 84.526C233.04 84.3127 232.688 84.0247 232.443 83.662C232.198 83.2887 232.075 82.862 232.075 82.382C232.075 81.9447 232.176 81.55 232.379 81.198C232.592 80.8353 232.934 80.5473 233.403 80.334C233.883 80.11 234.523 79.998 235.323 79.998H238.219V80.846H235.355C234.544 80.846 233.979 80.99 233.659 81.278C233.35 81.566 233.195 81.9233 233.195 82.35C233.195 82.83 233.382 83.214 233.755 83.502C234.128 83.79 234.651 83.934 235.323 83.934C235.963 83.934 236.512 83.79 236.971 83.502C237.44 83.2033 237.782 82.7767 237.995 82.222L238.251 83.006C238.038 83.5607 237.664 84.0033 237.131 84.334C236.608 84.6647 235.947 84.83 235.147 84.83ZM246.491 84.83C245.766 84.83 245.11 84.6647 244.523 84.334C243.936 83.9927 243.467 83.5073 243.115 82.878C242.774 82.238 242.603 81.4593 242.603 80.542C242.603 79.6247 242.774 78.8513 243.115 78.222C243.456 77.582 243.92 77.0967 244.507 76.766C245.094 76.4353 245.755 76.27 246.491 76.27C247.291 76.27 248.006 76.4513 248.635 76.814C249.275 77.166 249.776 77.6673 250.139 78.318C250.502 78.958 250.683 79.6993 250.683 80.542C250.683 81.3953 250.502 82.142 250.139 82.782C249.776 83.422 249.275 83.9233 248.635 84.286C248.006 84.6487 247.291 84.83 246.491 84.83ZM242.155 87.854V76.35H243.243V78.878L243.131 80.558L243.291 82.254V87.854H242.155ZM246.411 83.822C247.008 83.822 247.542 83.6887 248.011 83.422C248.48 83.1447 248.854 82.7607 249.131 82.27C249.408 81.7687 249.547 81.1927 249.547 80.542C249.547 79.8913 249.408 79.3207 249.131 78.83C248.854 78.3393 248.48 77.9553 248.011 77.678C247.542 77.4007 247.008 77.262 246.411 77.262C245.814 77.262 245.275 77.4007 244.795 77.678C244.326 77.9553 243.952 78.3393 243.675 78.83C243.408 79.3207 243.275 79.8913 243.275 80.542C243.275 81.1927 243.408 81.7687 243.675 82.27C243.952 82.7607 244.326 83.1447 244.795 83.422C245.275 83.6887 245.814 83.822 246.411 83.822ZM258.293 84.75V82.894L258.245 82.59V79.486C258.245 78.7713 258.042 78.222 257.637 77.838C257.242 77.454 256.65 77.262 255.861 77.262C255.317 77.262 254.8 77.3527 254.309 77.534C253.818 77.7153 253.402 77.9553 253.061 78.254L252.549 77.406C252.976 77.0433 253.488 76.766 254.085 76.574C254.682 76.3713 255.312 76.27 255.973 76.27C257.061 76.27 257.898 76.542 258.485 77.086C259.082 77.6193 259.381 78.4353 259.381 79.534V84.75H258.293ZM255.397 84.83C254.768 84.83 254.218 84.7287 253.749 84.526C253.29 84.3127 252.938 84.0247 252.693 83.662C252.448 83.2887 252.325 82.862 252.325 82.382C252.325 81.9447 252.426 81.55 252.629 81.198C252.842 80.8353 253.184 80.5473 253.653 80.334C254.133 80.11 254.773 79.998 255.573 79.998H258.469V80.846H255.605C254.794 80.846 254.229 80.99 253.909 81.278C253.6 81.566 253.445 81.9233 253.445 82.35C253.445 82.83 253.632 83.214 254.005 83.502C254.378 83.79 254.901 83.934 255.573 83.934C256.213 83.934 256.762 83.79 257.221 83.502C257.69 83.2033 258.032 82.7767 258.245 82.222L258.501 83.006C258.288 83.5607 257.914 84.0033 257.381 84.334C256.858 84.6647 256.197 84.83 255.397 84.83Z" fill="black"/>
<path d="M0 33L291.795 33.3752" stroke="black"/>
<path d="M433 33L718 33.3752" stroke="black"/>
<path d="M308.791 40.33C307.916 40.33 307.148 40.1487 306.487 39.786C305.825 39.4127 305.308 38.906 304.935 38.266C304.561 37.6153 304.375 36.874 304.375 36.042C304.375 35.21 304.551 34.474 304.903 33.834C305.265 33.194 305.756 32.6927 306.375 32.33C307.004 31.9567 307.708 31.77 308.487 31.77C309.276 31.77 309.975 31.9513 310.583 32.314C311.201 32.666 311.687 33.1673 312.039 33.818C312.391 34.458 312.567 35.1993 312.567 36.042C312.567 36.0953 312.561 36.154 312.551 36.218C312.551 36.2713 312.551 36.33 312.551 36.394H305.239V35.546H311.943L311.495 35.882C311.495 35.274 311.361 34.7353 311.095 34.266C310.839 33.786 310.487 33.4127 310.039 33.146C309.591 32.8793 309.073 32.746 308.487 32.746C307.911 32.746 307.393 32.8793 306.935 33.146C306.476 33.4127 306.119 33.786 305.863 34.266C305.607 34.746 305.479 35.2953 305.479 35.914V36.09C305.479 36.73 305.617 37.2953 305.895 37.786C306.183 38.266 306.577 38.6447 307.079 38.922C307.591 39.1887 308.172 39.322 308.823 39.322C309.335 39.322 309.809 39.2313 310.247 39.05C310.695 38.8687 311.079 38.5913 311.399 38.218L312.039 38.954C311.665 39.402 311.196 39.7433 310.631 39.978C310.076 40.2127 309.463 40.33 308.791 40.33ZM313.373 40.234L313.453 39.258C313.528 39.2687 313.597 39.2847 313.661 39.306C313.736 39.3167 313.8 39.322 313.853 39.322C314.195 39.322 314.467 39.194 314.669 38.938C314.883 38.682 315.043 38.3407 315.149 37.914C315.256 37.4873 315.331 37.0073 315.373 36.474C315.416 35.93 315.453 35.386 315.485 34.842L315.629 31.85H321.789V40.25H320.653V32.506L320.941 32.842H316.365L316.637 32.49L316.509 34.922C316.477 35.6473 316.419 36.3407 316.333 37.002C316.259 37.6633 316.136 38.2447 315.965 38.746C315.805 39.2473 315.581 39.642 315.293 39.93C315.005 40.2073 314.637 40.346 314.189 40.346C314.061 40.346 313.928 40.3353 313.789 40.314C313.661 40.2927 313.523 40.266 313.373 40.234ZM328.619 40.33C327.744 40.33 326.976 40.1487 326.315 39.786C325.653 39.4127 325.136 38.906 324.763 38.266C324.389 37.6153 324.203 36.874 324.203 36.042C324.203 35.21 324.379 34.474 324.731 33.834C325.093 33.194 325.584 32.6927 326.203 32.33C326.832 31.9567 327.536 31.77 328.315 31.77C329.104 31.77 329.803 31.9513 330.411 32.314C331.029 32.666 331.515 33.1673 331.867 33.818C332.219 34.458 332.395 35.1993 332.395 36.042C332.395 36.0953 332.389 36.154 332.379 36.218C332.379 36.2713 332.379 36.33 332.379 36.394H325.067V35.546H331.771L331.323 35.882C331.323 35.274 331.189 34.7353 330.923 34.266C330.667 33.786 330.315 33.4127 329.867 33.146C329.419 32.8793 328.901 32.746 328.315 32.746C327.739 32.746 327.221 32.8793 326.763 33.146C326.304 33.4127 325.947 33.786 325.691 34.266C325.435 34.746 325.307 35.2953 325.307 35.914V36.09C325.307 36.73 325.445 37.2953 325.723 37.786C326.011 38.266 326.405 38.6447 326.907 38.922C327.419 39.1887 328 39.322 328.651 39.322C329.163 39.322 329.637 39.2313 330.075 39.05C330.523 38.8687 330.907 38.5913 331.227 38.218L331.867 38.954C331.493 39.402 331.024 39.7433 330.459 39.978C329.904 40.2127 329.291 40.33 328.619 40.33ZM341.069 40.25L337.613 36.09L338.557 35.53L342.413 40.25H341.069ZM334.909 40.25V31.85H336.045V40.25H334.909ZM335.693 36.506V35.53H338.397V36.506H335.693ZM338.653 36.17L337.597 36.01L340.941 31.85H342.173L338.653 36.17ZM345.634 40.25V32.538L345.922 32.842H342.45V31.85H349.954V32.842H346.482L346.77 32.538V40.25H345.634ZM355.933 40.33C355.208 40.33 354.552 40.1647 353.965 39.834C353.378 39.4927 352.909 39.0073 352.557 38.378C352.216 37.738 352.045 36.9593 352.045 36.042C352.045 35.1247 352.216 34.3513 352.557 33.722C352.898 33.082 353.362 32.5967 353.949 32.266C354.536 31.9353 355.197 31.77 355.933 31.77C356.733 31.77 357.448 31.9513 358.077 32.314C358.717 32.666 359.218 33.1673 359.581 33.818C359.944 34.458 360.125 35.1993 360.125 36.042C360.125 36.8953 359.944 37.642 359.581 38.282C359.218 38.922 358.717 39.4233 358.077 39.786C357.448 40.1487 356.733 40.33 355.933 40.33ZM351.597 43.354V31.85H352.685V34.378L352.573 36.058L352.733 37.754V43.354H351.597ZM355.853 39.322C356.45 39.322 356.984 39.1887 357.453 38.922C357.922 38.6447 358.296 38.2607 358.573 37.77C358.85 37.2687 358.989 36.6927 358.989 36.042C358.989 35.3913 358.85 34.8207 358.573 34.33C358.296 33.8393 357.922 33.4553 357.453 33.178C356.984 32.9007 356.45 32.762 355.853 32.762C355.256 32.762 354.717 32.9007 354.237 33.178C353.768 33.4553 353.394 33.8393 353.117 34.33C352.85 34.8207 352.717 35.3913 352.717 36.042C352.717 36.6927 352.85 37.2687 353.117 37.77C353.394 38.2607 353.768 38.6447 354.237 38.922C354.717 39.1887 355.256 39.322 355.853 39.322ZM366.022 40.33C365.211 40.33 364.48 40.1487 363.83 39.786C363.19 39.4127 362.683 38.906 362.31 38.266C361.936 37.6153 361.75 36.874 361.75 36.042C361.75 35.1993 361.936 34.458 362.31 33.818C362.683 33.178 363.19 32.6767 363.83 32.314C364.47 31.9513 365.2 31.77 366.022 31.77C366.854 31.77 367.59 31.9513 368.23 32.314C368.88 32.6767 369.387 33.178 369.75 33.818C370.123 34.458 370.31 35.1993 370.31 36.042C370.31 36.874 370.123 37.6153 369.75 38.266C369.387 38.906 368.88 39.4127 368.23 39.786C367.579 40.1487 366.843 40.33 366.022 40.33ZM366.022 39.322C366.63 39.322 367.168 39.1887 367.638 38.922C368.107 38.6447 368.475 38.2607 368.742 37.77C369.019 37.2687 369.158 36.6927 369.158 36.042C369.158 35.3807 369.019 34.8047 368.742 34.314C368.475 33.8233 368.107 33.4447 367.638 33.178C367.168 32.9007 366.635 32.762 366.038 32.762C365.44 32.762 364.907 32.9007 364.438 33.178C363.968 33.4447 363.595 33.8233 363.318 34.314C363.04 34.8047 362.902 35.3807 362.902 36.042C362.902 36.6927 363.04 37.2687 363.318 37.77C363.595 38.2607 363.968 38.6447 364.438 38.922C364.907 39.1887 365.435 39.322 366.022 39.322ZM372.738 40.25V31.85H378.69V32.842H373.586L373.874 32.554V40.25H372.738ZM380.331 40.25V31.85H381.467V40.25H380.331ZM380.907 29.994C380.673 29.994 380.475 29.914 380.315 29.754C380.155 29.594 380.075 29.402 380.075 29.178C380.075 28.954 380.155 28.7673 380.315 28.618C380.475 28.458 380.673 28.378 380.907 28.378C381.142 28.378 381.339 28.4527 381.499 28.602C381.659 28.7513 381.739 28.938 381.739 29.162C381.739 29.3967 381.659 29.594 381.499 29.754C381.35 29.914 381.153 29.994 380.907 29.994ZM386.306 40.25V32.538L386.594 32.842H383.122V31.85L390.626 31.85V32.842L387.154 32.842L387.442 32.538V40.25H386.306ZM397.485 40.25V38.394L397.437 38.09V34.986C397.437 34.2713 397.234 33.722 396.829 33.338C396.434 32.954 395.842 32.762 395.053 32.762C394.509 32.762 393.991 32.8527 393.501 33.034C393.01 33.2153 392.594 33.4553 392.253 33.754L391.741 32.906C392.167 32.5433 392.679 32.266 393.277 32.074C393.874 31.8713 394.503 31.77 395.165 31.77C396.253 31.77 397.09 32.042 397.677 32.586C398.274 33.1193 398.573 33.9353 398.573 35.034V40.25H397.485ZM394.589 40.33C393.959 40.33 393.41 40.2287 392.941 40.026C392.482 39.8127 392.13 39.5247 391.885 39.162C391.639 38.7887 391.517 38.362 391.517 37.882C391.517 37.4447 391.618 37.05 391.821 36.698C392.034 36.3353 392.375 36.0473 392.845 35.834C393.325 35.61 393.965 35.498 394.765 35.498H397.661V36.346H394.797C393.986 36.346 393.421 36.49 393.101 36.778C392.791 37.066 392.637 37.4233 392.637 37.85C392.637 38.33 392.823 38.714 393.197 39.002C393.57 39.29 394.093 39.434 394.765 39.434C395.405 39.434 395.954 39.29 396.413 39.002C396.882 38.7033 397.223 38.2767 397.437 37.722L397.693 38.506C397.479 39.0607 397.106 39.5033 396.573 39.834C396.05 40.1647 395.389 40.33 394.589 40.33ZM405.933 40.33C405.208 40.33 404.552 40.1647 403.965 39.834C403.378 39.4927 402.909 39.0073 402.557 38.378C402.216 37.738 402.045 36.9593 402.045 36.042C402.045 35.1247 402.216 34.3513 402.557 33.722C402.898 33.082 403.362 32.5967 403.949 32.266C404.536 31.9353 405.197 31.77 405.933 31.77C406.733 31.77 407.448 31.9513 408.077 32.314C408.717 32.666 409.218 33.1673 409.581 33.818C409.944 34.458 410.125 35.1993 410.125 36.042C410.125 36.8953 409.944 37.642 409.581 38.282C409.218 38.922 408.717 39.4233 408.077 39.786C407.448 40.1487 406.733 40.33 405.933 40.33ZM401.597 43.354V31.85H402.685V34.378L402.573 36.058L402.733 37.754V43.354H401.597ZM405.853 39.322C406.45 39.322 406.984 39.1887 407.453 38.922C407.922 38.6447 408.296 38.2607 408.573 37.77C408.85 37.2687 408.989 36.6927 408.989 36.042C408.989 35.3913 408.85 34.8207 408.573 34.33C408.296 33.8393 407.922 33.4553 407.453 33.178C406.984 32.9007 406.45 32.762 405.853 32.762C405.256 32.762 404.717 32.9007 404.237 33.178C403.768 33.4553 403.394 33.8393 403.117 34.33C402.85 34.8207 402.717 35.3913 402.717 36.042C402.717 36.6927 402.85 37.2687 403.117 37.77C403.394 38.2607 403.768 38.6447 404.237 38.922C404.717 39.1887 405.256 39.322 405.853 39.322ZM417.735 40.25V38.394L417.687 38.09V34.986C417.687 34.2713 417.484 33.722 417.079 33.338C416.684 32.954 416.092 32.762 415.303 32.762C414.759 32.762 414.241 32.8527 413.751 33.034C413.26 33.2153 412.844 33.4553 412.503 33.754L411.991 32.906C412.417 32.5433 412.929 32.266 413.527 32.074C414.124 31.8713 414.753 31.77 415.415 31.77C416.503 31.77 417.34 32.042 417.927 32.586C418.524 33.1193 418.823 33.9353 418.823 35.034V40.25H417.735ZM414.839 40.33C414.209 40.33 413.66 40.2287 413.191 40.026C412.732 39.8127 412.38 39.5247 412.135 39.162C411.889 38.7887 411.767 38.362 411.767 37.882C411.767 37.4447 411.868 37.05 412.071 36.698C412.284 36.3353 412.625 36.0473 413.095 35.834C413.575 35.61 414.215 35.498 415.015 35.498H417.911V36.346H415.047C414.236 36.346 413.671 36.49 413.351 36.778C413.041 37.066 412.887 37.4233 412.887 37.85C412.887 38.33 413.073 38.714 413.447 39.002C413.82 39.29 414.343 39.434 415.015 39.434C415.655 39.434 416.204 39.29 416.663 39.002C417.132 38.7033 417.473 38.2767 417.687 37.722L417.943 38.506C417.729 39.0607 417.356 39.5033 416.823 39.834C416.3 40.1647 415.639 40.33 414.839 40.33Z" fill="black"/>
<path d="M569 56L718 55.6257" stroke="black"/>
<path d="M0 56L413.874 55.6257" stroke="black"/>
<path d="M429.273 62.5V60.644L429.225 60.34V57.236C429.225 56.5213 429.022 55.972 428.617 55.588C428.222 55.204 427.63 55.012 426.841 55.012C426.297 55.012 425.78 55.1027 425.289 55.284C424.798 55.4653 424.382 55.7053 424.041 56.004L423.529 55.156C423.956 54.7933 424.468 54.516 425.065 54.324C425.662 54.1213 426.292 54.02 426.953 54.02C428.041 54.02 428.878 54.292 429.465 54.836C430.062 55.3693 430.361 56.1853 430.361 57.284V62.5H429.273ZM426.377 62.58C425.748 62.58 425.198 62.4787 424.729 62.276C424.27 62.0627 423.918 61.7747 423.673 61.412C423.428 61.0387 423.305 60.612 423.305 60.132C423.305 59.6947 423.406 59.3 423.609 58.948C423.822 58.5853 424.164 58.2973 424.633 58.084C425.113 57.86 425.753 57.748 426.553 57.748H429.449V58.596H426.585C425.774 58.596 425.209 58.74 424.889 59.028C424.58 59.316 424.425 59.6733 424.425 60.1C424.425 60.58 424.612 60.964 424.985 61.252C425.358 61.54 425.881 61.684 426.553 61.684C427.193 61.684 427.742 61.54 428.201 61.252C428.67 60.9533 429.012 60.5267 429.225 59.972L429.481 60.756C429.268 61.3107 428.894 61.7533 428.361 62.084C427.838 62.4147 427.177 62.58 426.377 62.58ZM439.545 62.5L436.089 58.34L437.033 57.78L440.889 62.5H439.545ZM433.385 62.5V54.1H434.521V62.5H433.385ZM434.169 58.756V57.78H436.873V58.756H434.169ZM437.129 58.42L436.073 58.26L439.417 54.1H440.649L437.129 58.42ZM442.342 65.684C441.947 65.684 441.568 65.62 441.206 65.492C440.854 65.364 440.55 65.172 440.294 64.916L440.822 64.068C441.035 64.2707 441.264 64.4253 441.51 64.532C441.766 64.6493 442.048 64.708 442.358 64.708C442.731 64.708 443.051 64.6013 443.318 64.388C443.595 64.1853 443.856 63.8227 444.102 63.3L444.646 62.068L444.774 61.892L448.23 54.1H449.35L445.142 63.508C444.907 64.052 444.646 64.484 444.358 64.804C444.08 65.124 443.776 65.348 443.446 65.476C443.115 65.6147 442.747 65.684 442.342 65.684ZM444.582 62.74L440.71 54.1H441.894L445.318 61.812L444.582 62.74ZM454.405 62.58C453.573 62.58 452.826 62.3987 452.165 62.036C451.514 61.6627 451.002 61.156 450.629 60.516C450.256 59.8653 450.069 59.124 450.069 58.292C450.069 57.4493 450.256 56.708 450.629 56.068C451.002 55.428 451.514 54.9267 452.165 54.564C452.826 54.2013 453.573 54.02 454.405 54.02C455.12 54.02 455.765 54.1587 456.341 54.436C456.917 54.7133 457.37 55.1293 457.701 55.684L456.853 56.26C456.565 55.8333 456.208 55.5187 455.781 55.316C455.354 55.1133 454.89 55.012 454.389 55.012C453.792 55.012 453.253 55.1507 452.773 55.428C452.293 55.6947 451.914 56.0733 451.637 56.564C451.36 57.0547 451.221 57.6307 451.221 58.292C451.221 58.9533 451.36 59.5293 451.637 60.02C451.914 60.5107 452.293 60.8947 452.773 61.172C453.253 61.4387 453.792 61.572 454.389 61.572C454.89 61.572 455.354 61.4707 455.781 61.268C456.208 61.0653 456.565 60.756 456.853 60.34L457.701 60.916C457.37 61.46 456.917 61.876 456.341 62.164C455.765 62.4413 455.12 62.58 454.405 62.58ZM461.344 62.5V54.788L461.632 55.092H458.16V54.1H465.664V55.092H462.192L462.48 54.788V62.5H461.344ZM467.307 62.5V54.1H468.443V60.772L474.059 54.1H475.067V62.5H473.931V55.812L468.331 62.5H467.307ZM483.635 58.948C483.144 59.1613 482.648 59.332 482.147 59.46C481.656 59.5773 481.165 59.636 480.675 59.636C479.683 59.636 478.899 59.412 478.323 58.964C477.747 58.5053 477.459 57.8013 477.459 56.852V54.1H478.579V56.788C478.579 57.428 478.787 57.908 479.203 58.228C479.619 58.548 480.179 58.708 480.883 58.708C481.309 58.708 481.757 58.6547 482.227 58.548C482.696 58.4307 483.171 58.2653 483.651 58.052L483.635 58.948ZM483.539 62.5V54.1H484.675V62.5H483.539ZM487.901 62.5V54.1H489.037V57.812H494.333V54.1H495.469V62.5H494.333V58.788H489.037V62.5H487.901ZM503.914 62.5V60.644L503.866 60.34V57.236C503.866 56.5213 503.663 55.972 503.258 55.588C502.863 55.204 502.271 55.012 501.482 55.012C500.938 55.012 500.42 55.1027 499.93 55.284C499.439 55.4653 499.023 55.7053 498.682 56.004L498.17 55.156C498.596 54.7933 499.108 54.516 499.706 54.324C500.303 54.1213 500.932 54.02 501.594 54.02C502.682 54.02 503.519 54.292 504.106 54.836C504.703 55.3693 505.002 56.1853 505.002 57.284V62.5H503.914ZM501.018 62.58C500.388 62.58 499.839 62.4787 499.37 62.276C498.911 62.0627 498.559 61.7747 498.314 61.412C498.068 61.0387 497.946 60.612 497.946 60.132C497.946 59.6947 498.047 59.3 498.25 58.948C498.463 58.5853 498.804 58.2973 499.274 58.084C499.754 57.86 500.394 57.748 501.194 57.748H504.09V58.596H501.226C500.415 58.596 499.85 58.74 499.53 59.028C499.22 59.316 499.066 59.6733 499.066 60.1C499.066 60.58 499.252 60.964 499.626 61.252C499.999 61.54 500.522 61.684 501.194 61.684C501.834 61.684 502.383 61.54 502.842 61.252C503.311 60.9533 503.652 60.5267 503.866 59.972L504.122 60.756C503.908 61.3107 503.535 61.7533 503.002 62.084C502.479 62.4147 501.818 62.58 501.018 62.58ZM512.213 62.5V54.1H518.165V55.092H513.061L513.349 54.804V62.5H512.213ZM519.807 62.5V54.1H520.943V62.5H519.807ZM520.383 52.244C520.148 52.244 519.951 52.164 519.791 52.004C519.631 51.844 519.551 51.652 519.551 51.428C519.551 51.204 519.631 51.0173 519.791 50.868C519.951 50.708 520.148 50.628 520.383 50.628C520.618 50.628 520.815 50.7027 520.975 50.852C521.135 51.0013 521.215 51.188 521.215 51.412C521.215 51.6467 521.135 51.844 520.975 52.004C520.826 52.164 520.628 52.244 520.383 52.244ZM525.782 62.5V54.788L526.07 55.092H522.598V54.1H530.102V55.092H526.63L526.918 54.788V62.5H525.782ZM536.96 62.5V60.644L536.912 60.34V57.236C536.912 56.5213 536.71 55.972 536.304 55.588C535.91 55.204 535.318 55.012 534.528 55.012C533.984 55.012 533.467 55.1027 532.976 55.284C532.486 55.4653 532.07 55.7053 531.728 56.004L531.216 55.156C531.643 54.7933 532.155 54.516 532.752 54.324C533.35 54.1213 533.979 54.02 534.64 54.02C535.728 54.02 536.566 54.292 537.152 54.836C537.75 55.3693 538.048 56.1853 538.048 57.284V62.5H536.96ZM534.064 62.58C533.435 62.58 532.886 62.4787 532.416 62.276C531.958 62.0627 531.606 61.7747 531.36 61.412C531.115 61.0387 530.992 60.612 530.992 60.132C530.992 59.6947 531.094 59.3 531.296 58.948C531.51 58.5853 531.851 58.2973 532.32 58.084C532.8 57.86 533.44 57.748 534.24 57.748H537.136V58.596H534.272C533.462 58.596 532.896 58.74 532.576 59.028C532.267 59.316 532.112 59.6733 532.112 60.1C532.112 60.58 532.299 60.964 532.672 61.252C533.046 61.54 533.568 61.684 534.24 61.684C534.88 61.684 535.43 61.54 535.888 61.252C536.358 60.9533 536.699 60.5267 536.912 59.972L537.168 60.756C536.955 61.3107 536.582 61.7533 536.048 62.084C535.526 62.4147 534.864 62.58 534.064 62.58ZM545.409 62.58C544.683 62.58 544.027 62.4147 543.441 62.084C542.854 61.7427 542.385 61.2573 542.033 60.628C541.691 59.988 541.521 59.2093 541.521 58.292C541.521 57.3747 541.691 56.6013 542.033 55.972C542.374 55.332 542.838 54.8467 543.425 54.516C544.011 54.1853 544.673 54.02 545.409 54.02C546.209 54.02 546.923 54.2013 547.553 54.564C548.193 54.916 548.694 55.4173 549.057 56.068C549.419 56.708 549.601 57.4493 549.601 58.292C549.601 59.1453 549.419 59.892 549.057 60.532C548.694 61.172 548.193 61.6733 547.553 62.036C546.923 62.3987 546.209 62.58 545.409 62.58ZM541.073 65.604V54.1H542.161V56.628L542.049 58.308L542.209 60.004V65.604H541.073ZM545.329 61.572C545.926 61.572 546.459 61.4387 546.929 61.172C547.398 60.8947 547.771 60.5107 548.049 60.02C548.326 59.5187 548.465 58.9427 548.465 58.292C548.465 57.6413 548.326 57.0707 548.049 56.58C547.771 56.0893 547.398 55.7053 546.929 55.428C546.459 55.1507 545.926 55.012 545.329 55.012C544.731 55.012 544.193 55.1507 543.713 55.428C543.243 55.7053 542.87 56.0893 542.593 56.58C542.326 57.0707 542.193 57.6413 542.193 58.292C542.193 58.9427 542.326 59.5187 542.593 60.02C542.87 60.5107 543.243 60.8947 543.713 61.172C544.193 61.4387 544.731 61.572 545.329 61.572ZM557.21 62.5V60.644L557.162 60.34V57.236C557.162 56.5213 556.96 55.972 556.554 55.588C556.16 55.204 555.568 55.012 554.778 55.012C554.234 55.012 553.717 55.1027 553.226 55.284C552.736 55.4653 552.32 55.7053 551.978 56.004L551.466 55.156C551.893 54.7933 552.405 54.516 553.002 54.324C553.6 54.1213 554.229 54.02 554.89 54.02C555.978 54.02 556.816 54.292 557.402 54.836C558 55.3693 558.298 56.1853 558.298 57.284V62.5H557.21ZM554.314 62.58C553.685 62.58 553.136 62.4787 552.666 62.276C552.208 62.0627 551.856 61.7747 551.61 61.412C551.365 61.0387 551.242 60.612 551.242 60.132C551.242 59.6947 551.344 59.3 551.546 58.948C551.76 58.5853 552.101 58.2973 552.57 58.084C553.05 57.86 553.69 57.748 554.49 57.748H557.386V58.596H554.522C553.712 58.596 553.146 58.74 552.826 59.028C552.517 59.316 552.362 59.6733 552.362 60.1C552.362 60.58 552.549 60.964 552.922 61.252C553.296 61.54 553.818 61.684 554.49 61.684C555.13 61.684 555.68 61.54 556.138 61.252C556.608 60.9533 556.949 60.5267 557.162 59.972L557.418 60.756C557.205 61.3107 556.832 61.7533 556.298 62.084C555.776 62.4147 555.114 62.58 554.314 62.58Z" fill="black"/>
</svg>
