<svg width="40" height="56" viewBox="0 0 40 56" fill="none" xmlns="http://www.w3.org/2000/svg">
<path d="M2.394 40L2.982 5.98H11.046L14.784 25.762L18.816 5.98H26.586L27.174 40H21.84L21.21 17.362L17.262 40H12.516L8.316 17.194L7.812 40H2.394Z" fill="black"/>
<path d="M31.5043 40V33.532H37.9723V40H31.5043Z" fill="#B70000"/>
<path d="M1.036 55V43.66H1.806V48.77H5.782V43.66H6.538V55H5.782V49.358H1.806V55H1.036ZM9.74389 55.126C9.41722 55.126 9.13256 55.0513 8.88989 54.902C8.64722 54.7527 8.45589 54.5473 8.31589 54.286C8.18522 54.0153 8.11989 53.7073 8.11989 53.362C8.11989 53.0167 8.16189 52.718 8.24589 52.466C8.33922 52.2047 8.50256 51.962 8.73589 51.738C8.96922 51.514 9.30056 51.2807 9.72989 51.038C10.1686 50.786 10.7332 50.4967 11.4239 50.17V49.596C11.4239 49.008 11.3866 48.5507 11.3119 48.224C11.2466 47.8973 11.1299 47.6687 10.9619 47.538C10.8032 47.4073 10.5839 47.342 10.3039 47.342C10.0892 47.342 9.88389 47.3793 9.68789 47.454C9.49189 47.5287 9.32856 47.678 9.19789 47.902C9.07656 48.1167 9.01589 48.4387 9.01589 48.868V49.078H8.28789C8.28789 48.3033 8.44189 47.7293 8.74989 47.356C9.06722 46.9733 9.59456 46.782 10.3319 46.782C11.0132 46.782 11.4892 46.9967 11.7599 47.426C12.0306 47.8553 12.1659 48.5507 12.1659 49.512V53.586C12.1659 53.6607 12.1659 53.8053 12.1659 54.02C12.1752 54.2253 12.1799 54.426 12.1799 54.622C12.1892 54.818 12.1986 54.944 12.2079 55H11.5639C11.5452 54.804 11.5219 54.5987 11.4939 54.384C11.4659 54.1693 11.4472 54.0153 11.4379 53.922C11.3166 54.258 11.1066 54.5427 10.8079 54.776C10.5092 55.0093 10.1546 55.126 9.74389 55.126ZM9.92589 54.51C10.1592 54.51 10.3692 54.4587 10.5559 54.356C10.7426 54.244 10.9106 54.104 11.0599 53.936C11.2092 53.7587 11.3306 53.572 11.4239 53.376V50.716C10.9292 50.9773 10.5139 51.2013 10.1779 51.388C9.85122 51.5747 9.58989 51.752 9.39389 51.92C9.20722 52.088 9.07189 52.2793 8.98789 52.494C8.90389 52.6993 8.86189 52.9513 8.86189 53.25C8.86189 53.7353 8.97389 54.0667 9.19789 54.244C9.42189 54.4213 9.66456 54.51 9.92589 54.51ZM13.6906 55V46.908H14.4326V47.776C14.6846 47.4773 14.9739 47.2393 15.3006 47.062C15.6272 46.8753 15.9772 46.782 16.3506 46.782C16.5932 46.782 16.8079 46.8427 16.9946 46.964C17.1906 47.076 17.3446 47.2627 17.4566 47.524C17.5686 47.776 17.6246 48.1167 17.6246 48.546V55H16.8826V48.63C16.8826 48.1353 16.8032 47.7993 16.6446 47.622C16.4952 47.4447 16.2899 47.356 16.0286 47.356C15.7579 47.356 15.4826 47.44 15.2026 47.608C14.9319 47.7667 14.6752 47.9813 14.4326 48.252V55H13.6906ZM21.0493 55.126C20.4427 55.126 19.9947 54.986 19.7053 54.706C19.416 54.4167 19.2247 54.034 19.1313 53.558C19.0473 53.082 19.0053 52.55 19.0053 51.962V50.058C19.0053 49.2647 19.066 48.63 19.1873 48.154C19.3087 47.6687 19.5187 47.3187 19.8173 47.104C20.116 46.8893 20.5267 46.782 21.0493 46.782C21.6093 46.782 22.0293 46.8987 22.3093 47.132C22.5987 47.356 22.79 47.6687 22.8833 48.07C22.9767 48.462 23.0233 48.9053 23.0233 49.4V49.722H22.3233V49.4C22.3233 48.8493 22.2767 48.4293 22.1833 48.14C22.0993 47.8413 21.964 47.636 21.7773 47.524C21.5907 47.4027 21.348 47.342 21.0493 47.342C20.6853 47.342 20.41 47.4307 20.2233 47.608C20.0367 47.776 19.9107 48.0513 19.8453 48.434C19.78 48.8167 19.7473 49.33 19.7473 49.974V52.074C19.7473 52.9513 19.8313 53.586 19.9993 53.978C20.1767 54.37 20.5313 54.566 21.0633 54.566C21.4273 54.566 21.698 54.4867 21.8753 54.328C22.062 54.1693 22.1833 53.922 22.2393 53.586C22.2953 53.25 22.3233 52.816 22.3233 52.284V51.976H23.0233V52.27C23.0233 52.8113 22.9813 53.2967 22.8973 53.726C22.8133 54.1553 22.6313 54.496 22.3513 54.748C22.0713 55 21.6373 55.126 21.0493 55.126ZM24.4093 55V43.66H25.1513V47.762C25.4127 47.4633 25.7067 47.2253 26.0333 47.048C26.36 46.8707 26.71 46.782 27.0833 46.782C27.326 46.782 27.5407 46.8427 27.7273 46.964C27.9233 47.076 28.0773 47.2627 28.1893 47.524C28.3013 47.776 28.3573 48.1167 28.3573 48.546V55H27.6013V48.63C27.6013 48.1353 27.5267 47.7993 27.3773 47.622C27.228 47.4447 27.0227 47.356 26.7613 47.356C26.4907 47.356 26.2153 47.44 25.9353 47.608C25.6553 47.7667 25.394 47.9813 25.1513 48.252V55H24.4093ZM31.2498 55.126C30.9231 55.126 30.6384 55.0513 30.3958 54.902C30.1531 54.7527 29.9618 54.5473 29.8218 54.286C29.6911 54.0153 29.6258 53.7073 29.6258 53.362C29.6258 53.0167 29.6678 52.718 29.7518 52.466C29.8451 52.2047 30.0084 51.962 30.2418 51.738C30.4751 51.514 30.8064 51.2807 31.2358 51.038C31.6744 50.786 32.2391 50.4967 32.9298 50.17V49.596C32.9298 49.008 32.8924 48.5507 32.8178 48.224C32.7524 47.8973 32.6358 47.6687 32.4678 47.538C32.3091 47.4073 32.0898 47.342 31.8098 47.342C31.5951 47.342 31.3898 47.3793 31.1938 47.454C30.9978 47.5287 30.8344 47.678 30.7038 47.902C30.5824 48.1167 30.5218 48.4387 30.5218 48.868V49.078H29.7938C29.7938 48.3033 29.9478 47.7293 30.2558 47.356C30.5731 46.9733 31.1004 46.782 31.8378 46.782C32.5191 46.782 32.9951 46.9967 33.2658 47.426C33.5364 47.8553 33.6718 48.5507 33.6718 49.512V53.586C33.6718 53.6607 33.6718 53.8053 33.6718 54.02C33.6811 54.2253 33.6858 54.426 33.6858 54.622C33.6951 54.818 33.7044 54.944 33.7138 55H33.0698C33.0511 54.804 33.0278 54.5987 32.9998 54.384C32.9718 54.1693 32.9531 54.0153 32.9438 53.922C32.8224 54.258 32.6124 54.5427 32.3138 54.776C32.0151 55.0093 31.6604 55.126 31.2498 55.126ZM31.4318 54.51C31.6651 54.51 31.8751 54.4587 32.0618 54.356C32.2484 54.244 32.4164 54.104 32.5658 53.936C32.7151 53.7587 32.8364 53.572 32.9298 53.376V50.716C32.4351 50.9773 32.0198 51.2013 31.6838 51.388C31.3571 51.5747 31.0958 51.752 30.8998 51.92C30.7131 52.088 30.5778 52.2793 30.4938 52.494C30.4098 52.6993 30.3678 52.9513 30.3678 53.25C30.3678 53.7353 30.4798 54.0667 30.7038 54.244C30.9278 54.4213 31.1704 54.51 31.4318 54.51ZM35.1964 55V43.66H35.9384V51.136L38.9484 46.908H39.7464L37.6184 50.002L39.6344 55H38.8784L37.0584 50.45L35.9384 51.962V55H35.1964Z" fill="black"/>
</svg>
