<svg width="680" height="89" viewBox="0 0 680 89" fill="none" xmlns="http://www.w3.org/2000/svg" style="">
<path d="M0 11.1257L156.346 11.1257" stroke="black" class="ikcLYGmp_0"></path>
<path d="M262.362 11.1257L680 11.1257" stroke="black" class="ikcLYGmp_1"></path>
<path d="M170.065 9.632C170.791 9.632 171.431 9.81333 171.985 10.176C172.551 10.5387 172.999 11.04 173.329 11.68C173.66 12.3093 173.825 13.04 173.825 13.872C173.825 14.6827 173.66 15.4133 173.329 16.064C172.999 16.7147 172.551 17.2267 171.985 17.6C171.42 17.9733 170.785 18.16 170.081 18.16C169.708 18.16 169.351 18.1013 169.009 17.984C168.679 17.8667 168.375 17.712 168.097 17.52C167.82 17.3173 167.575 17.0827 167.361 16.816C167.148 16.5493 166.977 16.2613 166.849 15.952L167.137 15.744V17.552C167.137 17.6907 167.089 17.808 166.993 17.904C166.908 17.9893 166.796 18.032 166.657 18.032C166.519 18.032 166.401 17.9893 166.305 17.904C166.22 17.808 166.177 17.6907 166.177 17.552V6.656C166.177 6.51733 166.22 6.40533 166.305 6.32C166.391 6.224 166.508 6.176 166.657 6.176C166.796 6.176 166.908 6.224 166.993 6.32C167.089 6.40533 167.137 6.51733 167.137 6.656V12.016L166.913 11.888C167.02 11.5573 167.175 11.2587 167.377 10.992C167.591 10.7147 167.836 10.4747 168.113 10.272C168.391 10.0693 168.695 9.91467 169.025 9.808C169.356 9.69067 169.703 9.632 170.065 9.632ZM169.985 10.528C169.409 10.528 168.903 10.672 168.465 10.96C168.028 11.248 167.681 11.6427 167.425 12.144C167.18 12.6453 167.057 13.2213 167.057 13.872C167.057 14.512 167.18 15.0933 167.425 15.616C167.681 16.128 168.028 16.5333 168.465 16.832C168.903 17.12 169.409 17.264 169.985 17.264C170.551 17.264 171.047 17.1147 171.473 16.816C171.911 16.5173 172.257 16.112 172.513 15.6C172.769 15.0773 172.897 14.5013 172.897 13.872C172.897 13.2213 172.769 12.6453 172.513 12.144C172.257 11.6427 171.911 11.248 171.473 10.96C171.047 10.672 170.551 10.528 169.985 10.528ZM182.585 9.824C182.723 9.824 182.835 9.872 182.921 9.968C183.017 10.064 183.065 10.1813 183.065 10.32V17.52C183.065 17.648 183.017 17.76 182.921 17.856C182.825 17.952 182.713 18 182.585 18C182.446 18 182.329 17.952 182.233 17.856C182.147 17.76 182.105 17.648 182.105 17.52V15.616L182.377 15.488C182.377 15.7867 182.291 16.0907 182.121 16.4C181.961 16.7093 181.737 16.9973 181.449 17.264C181.161 17.5307 180.819 17.7493 180.425 17.92C180.041 18.08 179.625 18.16 179.177 18.16C178.451 18.16 177.801 17.9733 177.225 17.6C176.659 17.2267 176.211 16.7147 175.881 16.064C175.561 15.4133 175.401 14.6827 175.401 13.872C175.401 13.04 175.566 12.3093 175.897 11.68C176.227 11.04 176.675 10.5387 177.241 10.176C177.806 9.81333 178.446 9.632 179.161 9.632C179.619 9.632 180.046 9.712 180.441 9.872C180.846 10.032 181.198 10.2507 181.497 10.528C181.795 10.8053 182.025 11.1253 182.185 11.488C182.355 11.84 182.441 12.208 182.441 12.592L182.105 12.352V10.32C182.105 10.1813 182.147 10.064 182.233 9.968C182.329 9.872 182.446 9.824 182.585 9.824ZM179.257 17.264C179.822 17.264 180.323 17.12 180.761 16.832C181.198 16.5333 181.539 16.128 181.785 15.616C182.041 15.0933 182.169 14.512 182.169 13.872C182.169 13.2427 182.041 12.6773 181.785 12.176C181.539 11.6747 181.198 11.2747 180.761 10.976C180.323 10.6773 179.822 10.528 179.257 10.528C178.702 10.528 178.201 10.672 177.753 10.96C177.315 11.248 176.969 11.6427 176.713 12.144C176.467 12.6453 176.345 13.2213 176.345 13.872C176.345 14.512 176.467 15.0933 176.713 15.616C176.969 16.128 177.315 16.5333 177.753 16.832C178.19 17.12 178.691 17.264 179.257 17.264ZM185.12 16.704C185.034 16.576 184.992 16.4533 184.992 16.336C185.002 16.208 185.072 16.1067 185.2 16.032C185.285 15.9573 185.381 15.9253 185.488 15.936C185.605 15.9467 185.712 16 185.808 16.096C186.096 16.4693 186.442 16.7733 186.848 17.008C187.264 17.232 187.754 17.344 188.32 17.344C188.618 17.344 188.912 17.296 189.2 17.2C189.498 17.0933 189.744 16.9387 189.936 16.736C190.128 16.5227 190.224 16.256 190.224 15.936C190.224 15.6053 190.128 15.3387 189.936 15.136C189.744 14.9333 189.493 14.7733 189.184 14.656C188.885 14.5387 188.565 14.4373 188.224 14.352C187.861 14.256 187.509 14.1493 187.168 14.032C186.826 13.904 186.522 13.7493 186.256 13.568C186 13.376 185.792 13.1467 185.632 12.88C185.472 12.6133 185.392 12.288 185.392 11.904C185.392 11.456 185.514 11.0613 185.76 10.72C186.005 10.3787 186.336 10.112 186.752 9.92C187.178 9.728 187.658 9.632 188.192 9.632C188.458 9.632 188.746 9.66933 189.056 9.744C189.365 9.808 189.669 9.92 189.968 10.08C190.266 10.24 190.533 10.4587 190.768 10.736C190.864 10.832 190.912 10.944 190.912 11.072C190.912 11.1893 190.858 11.296 190.752 11.392C190.666 11.456 190.565 11.488 190.448 11.488C190.341 11.488 190.25 11.4453 190.176 11.36C189.92 11.072 189.616 10.8533 189.264 10.704C188.912 10.5547 188.533 10.48 188.128 10.48C187.818 10.48 187.525 10.5333 187.248 10.64C186.981 10.736 186.757 10.8853 186.576 11.088C186.394 11.2907 186.304 11.5573 186.304 11.888C186.325 12.1973 186.432 12.448 186.624 12.64C186.826 12.832 187.088 12.992 187.408 13.12C187.738 13.248 188.106 13.3653 188.512 13.472C188.853 13.5573 189.178 13.6587 189.488 13.776C189.808 13.8933 190.085 14.0427 190.32 14.224C190.565 14.3947 190.757 14.6133 190.896 14.88C191.045 15.1467 191.12 15.4827 191.12 15.888C191.12 16.3573 190.986 16.7627 190.72 17.104C190.464 17.4453 190.117 17.7067 189.68 17.888C189.242 18.0693 188.757 18.16 188.224 18.16C187.648 18.16 187.088 18.048 186.544 17.824C186.01 17.6 185.536 17.2267 185.12 16.704ZM192.62 16.704C192.534 16.576 192.492 16.4533 192.492 16.336C192.502 16.208 192.572 16.1067 192.7 16.032C192.785 15.9573 192.881 15.9253 192.988 15.936C193.105 15.9467 193.212 16 193.308 16.096C193.596 16.4693 193.942 16.7733 194.348 17.008C194.764 17.232 195.254 17.344 195.82 17.344C196.118 17.344 196.412 17.296 196.7 17.2C196.998 17.0933 197.244 16.9387 197.436 16.736C197.628 16.5227 197.724 16.256 197.724 15.936C197.724 15.6053 197.628 15.3387 197.436 15.136C197.244 14.9333 196.993 14.7733 196.684 14.656C196.385 14.5387 196.065 14.4373 195.724 14.352C195.361 14.256 195.009 14.1493 194.668 14.032C194.326 13.904 194.022 13.7493 193.756 13.568C193.5 13.376 193.292 13.1467 193.132 12.88C192.972 12.6133 192.892 12.288 192.892 11.904C192.892 11.456 193.014 11.0613 193.26 10.72C193.505 10.3787 193.836 10.112 194.252 9.92C194.678 9.728 195.158 9.632 195.692 9.632C195.958 9.632 196.246 9.66933 196.556 9.744C196.865 9.808 197.169 9.92 197.468 10.08C197.766 10.24 198.033 10.4587 198.268 10.736C198.364 10.832 198.412 10.944 198.412 11.072C198.412 11.1893 198.358 11.296 198.252 11.392C198.166 11.456 198.065 11.488 197.948 11.488C197.841 11.488 197.75 11.4453 197.676 11.36C197.42 11.072 197.116 10.8533 196.764 10.704C196.412 10.5547 196.033 10.48 195.628 10.48C195.318 10.48 195.025 10.5333 194.748 10.64C194.481 10.736 194.257 10.8853 194.076 11.088C193.894 11.2907 193.804 11.5573 193.804 11.888C193.825 12.1973 193.932 12.448 194.124 12.64C194.326 12.832 194.588 12.992 194.908 13.12C195.238 13.248 195.606 13.3653 196.012 13.472C196.353 13.5573 196.678 13.6587 196.988 13.776C197.308 13.8933 197.585 14.0427 197.82 14.224C198.065 14.3947 198.257 14.6133 198.396 14.88C198.545 15.1467 198.62 15.4827 198.62 15.888C198.62 16.3573 198.486 16.7627 198.22 17.104C197.964 17.4453 197.617 17.7067 197.18 17.888C196.742 18.0693 196.257 18.16 195.724 18.16C195.148 18.16 194.588 18.048 194.044 17.824C193.51 17.6 193.036 17.2267 192.62 16.704ZM208.367 9.632C208.847 9.632 209.289 9.71733 209.695 9.888C210.1 10.048 210.452 10.2613 210.751 10.528C211.06 10.784 211.3 11.0613 211.471 11.36C211.641 11.648 211.727 11.9253 211.727 12.192L211.455 11.808V10.32C211.455 10.1813 211.497 10.064 211.583 9.968C211.679 9.872 211.796 9.824 211.935 9.824C212.084 9.824 212.201 9.872 212.287 9.968C212.372 10.064 212.415 10.1813 212.415 10.32V17.248C212.415 18.1013 212.239 18.8213 211.887 19.408C211.535 19.9947 211.055 20.4373 210.447 20.736C209.849 21.0453 209.167 21.2 208.399 21.2C208.025 21.2 207.631 21.152 207.215 21.056C206.809 20.96 206.457 20.8373 206.159 20.688C205.871 20.5387 205.711 20.384 205.679 20.224C205.593 20.128 205.551 20.032 205.551 19.936C205.561 19.8507 205.609 19.776 205.695 19.712C205.801 19.6373 205.913 19.6267 206.031 19.68C206.148 19.744 206.324 19.824 206.559 19.92C206.665 19.952 206.809 20 206.991 20.064C207.172 20.128 207.385 20.1813 207.631 20.224C207.887 20.2773 208.153 20.304 208.431 20.304C209.391 20.304 210.132 20.0267 210.655 19.472C211.188 18.928 211.455 18.208 211.455 17.312V15.776L211.631 15.824C211.535 16.208 211.375 16.544 211.151 16.832C210.937 17.12 210.681 17.3653 210.383 17.568C210.084 17.76 209.759 17.904 209.407 18C209.065 18.1067 208.724 18.16 208.383 18.16C207.647 18.16 206.985 17.9733 206.399 17.6C205.812 17.2267 205.343 16.72 204.991 16.08C204.649 15.44 204.479 14.7093 204.479 13.888C204.479 13.0773 204.649 12.352 204.991 11.712C205.343 11.0613 205.807 10.5547 206.383 10.192C206.969 9.81867 207.631 9.632 208.367 9.632ZM208.479 10.528C207.892 10.528 207.364 10.6773 206.895 10.976C206.436 11.264 206.073 11.664 205.807 12.176C205.551 12.6773 205.423 13.248 205.423 13.888C205.423 14.528 205.551 15.104 205.807 15.616C206.073 16.128 206.436 16.5333 206.895 16.832C207.364 17.12 207.892 17.264 208.479 17.264C209.065 17.264 209.588 17.12 210.047 16.832C210.505 16.544 210.868 16.1493 211.135 15.648C211.401 15.136 211.535 14.5493 211.535 13.888C211.535 13.2267 211.401 12.6453 211.135 12.144C210.868 11.632 210.505 11.2373 210.047 10.96C209.588 10.672 209.065 10.528 208.479 10.528ZM220.93 9.872C221.069 9.872 221.181 9.92 221.266 10.016C221.362 10.112 221.41 10.224 221.41 10.352V14.864C221.41 15.92 221.111 16.7253 220.514 17.28C219.917 17.8347 219.111 18.112 218.098 18.112C217.095 18.112 216.295 17.8347 215.698 17.28C215.111 16.7253 214.818 15.92 214.818 14.864V10.352C214.818 10.224 214.861 10.112 214.946 10.016C215.042 9.92 215.159 9.872 215.298 9.872C215.437 9.872 215.549 9.92 215.634 10.016C215.73 10.112 215.778 10.224 215.778 10.352V14.864C215.778 15.632 215.981 16.2187 216.386 16.624C216.802 17.0187 217.373 17.216 218.098 17.216C218.834 17.216 219.41 17.0187 219.826 16.624C220.242 16.2187 220.45 15.632 220.45 14.864V10.352C220.45 10.224 220.493 10.112 220.578 10.016C220.663 9.92 220.781 9.872 220.93 9.872ZM224.855 17.52C224.855 17.648 224.807 17.76 224.711 17.856C224.615 17.952 224.503 18 224.375 18C224.237 18 224.119 17.952 224.023 17.856C223.938 17.76 223.895 17.648 223.895 17.52V10.16C223.895 10.032 223.938 9.92 224.023 9.824C224.119 9.728 224.237 9.68 224.375 9.68C224.514 9.68 224.626 9.728 224.711 9.824C224.807 9.92 224.855 10.032 224.855 10.16V17.52ZM224.375 8.608C224.151 8.608 223.981 8.56 223.863 8.464C223.757 8.35733 223.703 8.208 223.703 8.016V7.856C223.703 7.664 223.762 7.52 223.879 7.424C224.007 7.31733 224.178 7.264 224.391 7.264C224.594 7.264 224.749 7.31733 224.855 7.424C224.973 7.52 225.031 7.664 225.031 7.856V8.016C225.031 8.208 224.973 8.35733 224.855 8.464C224.749 8.56 224.589 8.608 224.375 8.608ZM226.821 9.856H230.549C230.677 9.856 230.784 9.904 230.869 10C230.955 10.0853 230.997 10.192 230.997 10.32C230.997 10.4373 230.955 10.5387 230.869 10.624C230.784 10.7093 230.677 10.752 230.549 10.752H226.821C226.693 10.752 226.581 10.7093 226.485 10.624C226.4 10.528 226.357 10.4213 226.357 10.304C226.357 10.176 226.4 10.0693 226.485 9.984C226.581 9.89867 226.693 9.856 226.821 9.856ZM228.469 7.6C228.608 7.6 228.72 7.648 228.805 7.744C228.901 7.84 228.949 7.952 228.949 8.08V16.112C228.949 16.4107 228.987 16.6347 229.061 16.784C229.147 16.9333 229.253 17.0347 229.381 17.088C229.509 17.1307 229.637 17.152 229.765 17.152C229.851 17.152 229.925 17.1413 229.989 17.12C230.064 17.088 230.144 17.072 230.229 17.072C230.325 17.072 230.405 17.1093 230.469 17.184C230.544 17.2587 230.581 17.3547 230.581 17.472C230.581 17.6213 230.496 17.7493 230.325 17.856C230.155 17.952 229.952 18 229.717 18C229.621 18 229.477 17.9947 229.285 17.984C229.093 17.9627 228.896 17.904 228.693 17.808C228.491 17.7013 228.32 17.52 228.181 17.264C228.053 17.008 227.989 16.64 227.989 16.16V8.08C227.989 7.952 228.032 7.84 228.117 7.744C228.213 7.648 228.331 7.6 228.469 7.6ZM239.475 9.824C239.614 9.824 239.726 9.872 239.811 9.968C239.907 10.064 239.955 10.1813 239.955 10.32V17.52C239.955 17.648 239.907 17.76 239.811 17.856C239.715 17.952 239.603 18 239.475 18C239.336 18 239.219 17.952 239.123 17.856C239.038 17.76 238.995 17.648 238.995 17.52V15.616L239.267 15.488C239.267 15.7867 239.182 16.0907 239.011 16.4C238.851 16.7093 238.627 16.9973 238.339 17.264C238.051 17.5307 237.71 17.7493 237.315 17.92C236.931 18.08 236.515 18.16 236.067 18.16C235.342 18.16 234.691 17.9733 234.115 17.6C233.55 17.2267 233.102 16.7147 232.771 16.064C232.451 15.4133 232.291 14.6827 232.291 13.872C232.291 13.04 232.456 12.3093 232.787 11.68C233.118 11.04 233.566 10.5387 234.131 10.176C234.696 9.81333 235.336 9.632 236.051 9.632C236.51 9.632 236.936 9.712 237.331 9.872C237.736 10.032 238.088 10.2507 238.387 10.528C238.686 10.8053 238.915 11.1253 239.075 11.488C239.246 11.84 239.331 12.208 239.331 12.592L238.995 12.352V10.32C238.995 10.1813 239.038 10.064 239.123 9.968C239.219 9.872 239.336 9.824 239.475 9.824ZM236.147 17.264C236.712 17.264 237.214 17.12 237.651 16.832C238.088 16.5333 238.43 16.128 238.675 15.616C238.931 15.0933 239.059 14.512 239.059 13.872C239.059 13.2427 238.931 12.6773 238.675 12.176C238.43 11.6747 238.088 11.2747 237.651 10.976C237.214 10.6773 236.712 10.528 236.147 10.528C235.592 10.528 235.091 10.672 234.643 10.96C234.206 11.248 233.859 11.6427 233.603 12.144C233.358 12.6453 233.235 13.2213 233.235 13.872C233.235 14.512 233.358 15.0933 233.603 15.616C233.859 16.128 234.206 16.5333 234.643 16.832C235.08 17.12 235.582 17.264 236.147 17.264ZM242.954 18C242.805 18 242.688 17.952 242.602 17.856C242.517 17.76 242.474 17.648 242.474 17.52V10.352C242.474 10.224 242.517 10.112 242.602 10.016C242.698 9.92 242.816 9.872 242.954 9.872C243.093 9.872 243.205 9.92 243.29 10.016C243.386 10.112 243.434 10.224 243.434 10.352V12.752L243.194 12.8C243.226 12.4267 243.317 12.0587 243.466 11.696C243.626 11.3227 243.84 10.9813 244.106 10.672C244.373 10.3627 244.688 10.112 245.05 9.92C245.424 9.728 245.84 9.632 246.298 9.632C246.49 9.632 246.677 9.67467 246.858 9.76C247.04 9.83467 247.13 9.96267 247.13 10.144C247.13 10.304 247.088 10.4267 247.002 10.512C246.917 10.5973 246.816 10.64 246.698 10.64C246.602 10.64 246.496 10.6133 246.378 10.56C246.272 10.5067 246.128 10.48 245.946 10.48C245.648 10.48 245.349 10.5707 245.05 10.752C244.752 10.9227 244.48 11.1573 244.234 11.456C243.989 11.7547 243.792 12.0907 243.642 12.464C243.504 12.8267 243.434 13.1947 243.434 13.568V17.52C243.434 17.648 243.386 17.76 243.29 17.856C243.194 17.952 243.082 18 242.954 18Z" fill="black" class="ikcLYGmp_2"></path>
<path d="M0 77.8755L82.4567 77.8755" stroke="black" class="ikcLYGmp_3"></path>
<path d="M217.386 77.8755L680 77.8755" stroke="black" class="ikcLYGmp_4"></path>
<path d="M95.8876 76.382C96.3996 76.382 96.869 76.4407 97.2956 76.558C97.7223 76.6647 98.0636 76.814 98.3196 77.006C98.5863 77.198 98.7196 77.406 98.7196 77.63C98.7196 77.7367 98.6823 77.8433 98.6076 77.95C98.533 78.046 98.4316 78.094 98.3036 78.094C98.1756 78.094 98.069 78.062 97.9836 77.998C97.909 77.934 97.829 77.8593 97.7436 77.774C97.669 77.6887 97.557 77.6087 97.4076 77.534C97.269 77.47 97.0716 77.4113 96.8156 77.358C96.5596 77.3047 96.2663 77.278 95.9356 77.278C95.3383 77.278 94.7996 77.4273 94.3196 77.726C93.8396 78.0247 93.461 78.43 93.1836 78.942C92.9063 79.4433 92.7676 80.0087 92.7676 80.638C92.7676 81.278 92.901 81.854 93.1676 82.366C93.4343 82.878 93.8023 83.2833 94.2716 83.582C94.741 83.87 95.2903 84.014 95.9196 84.014C96.3463 84.014 96.677 83.9767 96.9116 83.902C97.1463 83.8273 97.349 83.742 97.5196 83.646C97.7223 83.5287 97.8663 83.4167 97.9516 83.31C98.0476 83.1927 98.1703 83.134 98.3196 83.134C98.4583 83.134 98.5596 83.1767 98.6236 83.262C98.6983 83.3367 98.7356 83.438 98.7356 83.566C98.7356 83.7367 98.6076 83.9287 98.3516 84.142C98.1063 84.3447 97.765 84.526 97.3276 84.686C96.8903 84.8353 96.389 84.91 95.8236 84.91C95.0236 84.91 94.3196 84.7233 93.7116 84.35C93.1143 83.9767 92.645 83.47 92.3036 82.83C91.973 82.1793 91.8076 81.4487 91.8076 80.638C91.8076 79.8593 91.9783 79.15 92.3196 78.51C92.661 77.87 93.1356 77.358 93.7436 76.974C94.3623 76.5793 95.077 76.382 95.8876 76.382ZM101.625 84.27C101.625 84.398 101.577 84.51 101.481 84.606C101.385 84.702 101.273 84.75 101.145 84.75C101.006 84.75 100.889 84.702 100.793 84.606C100.708 84.51 100.665 84.398 100.665 84.27V73.39C100.665 73.262 100.713 73.15 100.809 73.054C100.905 72.958 101.017 72.91 101.145 72.91C101.284 72.91 101.396 72.958 101.481 73.054C101.577 73.15 101.625 73.262 101.625 73.39V84.27ZM110.96 76.574C111.099 76.574 111.211 76.622 111.296 76.718C111.392 76.814 111.44 76.9313 111.44 77.07V84.27C111.44 84.398 111.392 84.51 111.296 84.606C111.2 84.702 111.088 84.75 110.96 84.75C110.822 84.75 110.704 84.702 110.608 84.606C110.523 84.51 110.48 84.398 110.48 84.27V82.366L110.752 82.238C110.752 82.5367 110.667 82.8407 110.496 83.15C110.336 83.4593 110.112 83.7473 109.824 84.014C109.536 84.2807 109.195 84.4993 108.8 84.67C108.416 84.83 108 84.91 107.552 84.91C106.827 84.91 106.176 84.7233 105.6 84.35C105.035 83.9767 104.587 83.4647 104.256 82.814C103.936 82.1633 103.776 81.4327 103.776 80.622C103.776 79.79 103.942 79.0593 104.272 78.43C104.603 77.79 105.051 77.2887 105.616 76.926C106.182 76.5633 106.822 76.382 107.536 76.382C107.995 76.382 108.422 76.462 108.816 76.622C109.222 76.782 109.574 77.0007 109.872 77.278C110.171 77.5553 110.4 77.8753 110.56 78.238C110.731 78.59 110.816 78.958 110.816 79.342L110.48 79.102V77.07C110.48 76.9313 110.523 76.814 110.608 76.718C110.704 76.622 110.822 76.574 110.96 76.574ZM107.632 84.014C108.198 84.014 108.699 83.87 109.136 83.582C109.574 83.2833 109.915 82.878 110.16 82.366C110.416 81.8433 110.544 81.262 110.544 80.622C110.544 79.9927 110.416 79.4273 110.16 78.926C109.915 78.4247 109.574 78.0247 109.136 77.726C108.699 77.4273 108.198 77.278 107.632 77.278C107.078 77.278 106.576 77.422 106.128 77.71C105.691 77.998 105.344 78.3927 105.088 78.894C104.843 79.3953 104.72 79.9713 104.72 80.622C104.72 81.262 104.843 81.8433 105.088 82.366C105.344 82.878 105.691 83.2833 106.128 83.582C106.566 83.87 107.067 84.014 107.632 84.014ZM113.495 83.454C113.41 83.326 113.367 83.2033 113.367 83.086C113.378 82.958 113.447 82.8567 113.575 82.782C113.661 82.7073 113.757 82.6753 113.863 82.686C113.981 82.6967 114.087 82.75 114.183 82.846C114.471 83.2193 114.818 83.5233 115.223 83.758C115.639 83.982 116.13 84.094 116.695 84.094C116.994 84.094 117.287 84.046 117.575 83.95C117.874 83.8433 118.119 83.6887 118.311 83.486C118.503 83.2727 118.599 83.006 118.599 82.686C118.599 82.3553 118.503 82.0887 118.311 81.886C118.119 81.6833 117.869 81.5233 117.559 81.406C117.261 81.2887 116.941 81.1873 116.599 81.102C116.237 81.006 115.885 80.8993 115.543 80.782C115.202 80.654 114.898 80.4993 114.631 80.318C114.375 80.126 114.167 79.8967 114.007 79.63C113.847 79.3633 113.767 79.038 113.767 78.654C113.767 78.206 113.89 77.8113 114.135 77.47C114.381 77.1287 114.711 76.862 115.127 76.67C115.554 76.478 116.034 76.382 116.567 76.382C116.834 76.382 117.122 76.4193 117.431 76.494C117.741 76.558 118.045 76.67 118.343 76.83C118.642 76.99 118.909 77.2087 119.143 77.486C119.239 77.582 119.287 77.694 119.287 77.822C119.287 77.9393 119.234 78.046 119.127 78.142C119.042 78.206 118.941 78.238 118.823 78.238C118.717 78.238 118.626 78.1953 118.551 78.11C118.295 77.822 117.991 77.6033 117.639 77.454C117.287 77.3047 116.909 77.23 116.503 77.23C116.194 77.23 115.901 77.2833 115.623 77.39C115.357 77.486 115.133 77.6353 114.951 77.838C114.77 78.0407 114.679 78.3073 114.679 78.638C114.701 78.9473 114.807 79.198 114.999 79.39C115.202 79.582 115.463 79.742 115.783 79.87C116.114 79.998 116.482 80.1153 116.887 80.222C117.229 80.3073 117.554 80.4087 117.863 80.526C118.183 80.6433 118.461 80.7927 118.695 80.974C118.941 81.1447 119.133 81.3633 119.271 81.63C119.421 81.8967 119.495 82.2327 119.495 82.638C119.495 83.1073 119.362 83.5127 119.095 83.854C118.839 84.1953 118.493 84.4567 118.055 84.638C117.618 84.8193 117.133 84.91 116.599 84.91C116.023 84.91 115.463 84.798 114.919 84.574C114.386 84.35 113.911 83.9767 113.495 83.454ZM120.995 83.454C120.91 83.326 120.867 83.2033 120.867 83.086C120.878 82.958 120.947 82.8567 121.075 82.782C121.161 82.7073 121.257 82.6753 121.363 82.686C121.481 82.6967 121.587 82.75 121.683 82.846C121.971 83.2193 122.318 83.5233 122.723 83.758C123.139 83.982 123.63 84.094 124.195 84.094C124.494 84.094 124.787 84.046 125.075 83.95C125.374 83.8433 125.619 83.6887 125.811 83.486C126.003 83.2727 126.099 83.006 126.099 82.686C126.099 82.3553 126.003 82.0887 125.811 81.886C125.619 81.6833 125.369 81.5233 125.059 81.406C124.761 81.2887 124.441 81.1873 124.099 81.102C123.737 81.006 123.385 80.8993 123.043 80.782C122.702 80.654 122.398 80.4993 122.131 80.318C121.875 80.126 121.667 79.8967 121.507 79.63C121.347 79.3633 121.267 79.038 121.267 78.654C121.267 78.206 121.39 77.8113 121.635 77.47C121.881 77.1287 122.211 76.862 122.627 76.67C123.054 76.478 123.534 76.382 124.067 76.382C124.334 76.382 124.622 76.4193 124.931 76.494C125.241 76.558 125.545 76.67 125.843 76.83C126.142 76.99 126.409 77.2087 126.643 77.486C126.739 77.582 126.787 77.694 126.787 77.822C126.787 77.9393 126.734 78.046 126.627 78.142C126.542 78.206 126.441 78.238 126.323 78.238C126.217 78.238 126.126 78.1953 126.051 78.11C125.795 77.822 125.491 77.6033 125.139 77.454C124.787 77.3047 124.409 77.23 124.003 77.23C123.694 77.23 123.401 77.2833 123.123 77.39C122.857 77.486 122.633 77.6353 122.451 77.838C122.27 78.0407 122.179 78.3073 122.179 78.638C122.201 78.9473 122.307 79.198 122.499 79.39C122.702 79.582 122.963 79.742 123.283 79.87C123.614 79.998 123.982 80.1153 124.387 80.222C124.729 80.3073 125.054 80.4087 125.363 80.526C125.683 80.6433 125.961 80.7927 126.195 80.974C126.441 81.1447 126.633 81.3633 126.771 81.63C126.921 81.8967 126.995 82.2327 126.995 82.638C126.995 83.1073 126.862 83.5127 126.595 83.854C126.339 84.1953 125.993 84.4567 125.555 84.638C125.118 84.8193 124.633 84.91 124.099 84.91C123.523 84.91 122.963 84.798 122.419 84.574C121.886 84.35 121.411 83.9767 120.995 83.454ZM129.887 84.27C129.887 84.398 129.839 84.51 129.743 84.606C129.647 84.702 129.535 84.75 129.407 84.75C129.269 84.75 129.151 84.702 129.055 84.606C128.97 84.51 128.927 84.398 128.927 84.27V76.91C128.927 76.782 128.97 76.67 129.055 76.574C129.151 76.478 129.269 76.43 129.407 76.43C129.546 76.43 129.658 76.478 129.743 76.574C129.839 76.67 129.887 76.782 129.887 76.91V84.27ZM129.407 75.358C129.183 75.358 129.013 75.31 128.895 75.214C128.789 75.1073 128.735 74.958 128.735 74.766V74.606C128.735 74.414 128.794 74.27 128.911 74.174C129.039 74.0673 129.21 74.014 129.423 74.014C129.626 74.014 129.781 74.0673 129.887 74.174C130.005 74.27 130.063 74.414 130.063 74.606V74.766C130.063 74.958 130.005 75.1073 129.887 75.214C129.781 75.31 129.621 75.358 129.407 75.358ZM135.981 76.382C136.493 76.382 136.963 76.4407 137.389 76.558C137.816 76.6647 138.157 76.814 138.413 77.006C138.68 77.198 138.813 77.406 138.813 77.63C138.813 77.7367 138.776 77.8433 138.701 77.95C138.627 78.046 138.525 78.094 138.397 78.094C138.269 78.094 138.163 78.062 138.077 77.998C138.003 77.934 137.923 77.8593 137.837 77.774C137.763 77.6887 137.651 77.6087 137.501 77.534C137.363 77.47 137.165 77.4113 136.909 77.358C136.653 77.3047 136.36 77.278 136.029 77.278C135.432 77.278 134.893 77.4273 134.413 77.726C133.933 78.0247 133.555 78.43 133.277 78.942C133 79.4433 132.861 80.0087 132.861 80.638C132.861 81.278 132.995 81.854 133.261 82.366C133.528 82.878 133.896 83.2833 134.365 83.582C134.835 83.87 135.384 84.014 136.013 84.014C136.44 84.014 136.771 83.9767 137.005 83.902C137.24 83.8273 137.443 83.742 137.613 83.646C137.816 83.5287 137.96 83.4167 138.045 83.31C138.141 83.1927 138.264 83.134 138.413 83.134C138.552 83.134 138.653 83.1767 138.717 83.262C138.792 83.3367 138.829 83.438 138.829 83.566C138.829 83.7367 138.701 83.9287 138.445 84.142C138.2 84.3447 137.859 84.526 137.421 84.686C136.984 84.8353 136.483 84.91 135.917 84.91C135.117 84.91 134.413 84.7233 133.805 84.35C133.208 83.9767 132.739 83.47 132.397 82.83C132.067 82.1793 131.901 81.4487 131.901 80.638C131.901 79.8593 132.072 79.15 132.413 78.51C132.755 77.87 133.229 77.358 133.837 76.974C134.456 76.5793 135.171 76.382 135.981 76.382ZM147.367 76.574C147.505 76.574 147.617 76.622 147.703 76.718C147.799 76.814 147.847 76.9313 147.847 77.07V84.27C147.847 84.398 147.799 84.51 147.703 84.606C147.607 84.702 147.495 84.75 147.367 84.75C147.228 84.75 147.111 84.702 147.015 84.606C146.929 84.51 146.887 84.398 146.887 84.27V82.366L147.159 82.238C147.159 82.5367 147.073 82.8407 146.903 83.15C146.743 83.4593 146.519 83.7473 146.231 84.014C145.943 84.2807 145.601 84.4993 145.207 84.67C144.823 84.83 144.407 84.91 143.959 84.91C143.233 84.91 142.583 84.7233 142.007 84.35C141.441 83.9767 140.993 83.4647 140.663 82.814C140.343 82.1633 140.183 81.4327 140.183 80.622C140.183 79.79 140.348 79.0593 140.679 78.43C141.009 77.79 141.457 77.2887 142.023 76.926C142.588 76.5633 143.228 76.382 143.943 76.382C144.401 76.382 144.828 76.462 145.223 76.622C145.628 76.782 145.98 77.0007 146.279 77.278C146.577 77.5553 146.807 77.8753 146.967 78.238C147.137 78.59 147.223 78.958 147.223 79.342L146.887 79.102V77.07C146.887 76.9313 146.929 76.814 147.015 76.718C147.111 76.622 147.228 76.574 147.367 76.574ZM144.039 84.014C144.604 84.014 145.105 83.87 145.543 83.582C145.98 83.2833 146.321 82.878 146.567 82.366C146.823 81.8433 146.951 81.262 146.951 80.622C146.951 79.9927 146.823 79.4273 146.567 78.926C146.321 78.4247 145.98 78.0247 145.543 77.726C145.105 77.4273 144.604 77.278 144.039 77.278C143.484 77.278 142.983 77.422 142.535 77.71C142.097 77.998 141.751 78.3927 141.495 78.894C141.249 79.3953 141.127 79.9713 141.127 80.622C141.127 81.262 141.249 81.8433 141.495 82.366C141.751 82.878 142.097 83.2833 142.535 83.582C142.972 83.87 143.473 84.014 144.039 84.014ZM151.422 84.27C151.422 84.398 151.374 84.51 151.278 84.606C151.182 84.702 151.07 84.75 150.942 84.75C150.803 84.75 150.686 84.702 150.59 84.606C150.504 84.51 150.462 84.398 150.462 84.27V73.39C150.462 73.262 150.51 73.15 150.606 73.054C150.702 72.958 150.814 72.91 150.942 72.91C151.08 72.91 151.192 72.958 151.278 73.054C151.374 73.15 151.422 73.262 151.422 73.39V84.27ZM161.836 76.382C162.316 76.382 162.759 76.4673 163.164 76.638C163.57 76.798 163.922 77.0113 164.22 77.278C164.53 77.534 164.77 77.8113 164.94 78.11C165.111 78.398 165.196 78.6753 165.196 78.942L164.924 78.558V77.07C164.924 76.9313 164.967 76.814 165.052 76.718C165.148 76.622 165.266 76.574 165.404 76.574C165.554 76.574 165.671 76.622 165.756 76.718C165.842 76.814 165.884 76.9313 165.884 77.07V83.998C165.884 84.8513 165.708 85.5713 165.356 86.158C165.004 86.7447 164.524 87.1873 163.916 87.486C163.319 87.7953 162.636 87.95 161.868 87.95C161.495 87.95 161.1 87.902 160.684 87.806C160.279 87.71 159.927 87.5873 159.628 87.438C159.34 87.2887 159.18 87.134 159.148 86.974C159.063 86.878 159.02 86.782 159.02 86.686C159.031 86.6007 159.079 86.526 159.164 86.462C159.271 86.3873 159.383 86.3767 159.5 86.43C159.618 86.494 159.794 86.574 160.028 86.67C160.135 86.702 160.279 86.75 160.46 86.814C160.642 86.878 160.855 86.9313 161.1 86.974C161.356 87.0273 161.623 87.054 161.9 87.054C162.86 87.054 163.602 86.7767 164.124 86.222C164.658 85.678 164.924 84.958 164.924 84.062V82.526L165.1 82.574C165.004 82.958 164.844 83.294 164.62 83.582C164.407 83.87 164.151 84.1153 163.852 84.318C163.554 84.51 163.228 84.654 162.876 84.75C162.535 84.8567 162.194 84.91 161.852 84.91C161.116 84.91 160.455 84.7233 159.868 84.35C159.282 83.9767 158.812 83.47 158.46 82.83C158.119 82.19 157.948 81.4593 157.948 80.638C157.948 79.8273 158.119 79.102 158.46 78.462C158.812 77.8113 159.276 77.3047 159.852 76.942C160.439 76.5687 161.1 76.382 161.836 76.382ZM161.948 77.278C161.362 77.278 160.834 77.4273 160.364 77.726C159.906 78.014 159.543 78.414 159.276 78.926C159.02 79.4273 158.892 79.998 158.892 80.638C158.892 81.278 159.02 81.854 159.276 82.366C159.543 82.878 159.906 83.2833 160.364 83.582C160.834 83.87 161.362 84.014 161.948 84.014C162.535 84.014 163.058 83.87 163.516 83.582C163.975 83.294 164.338 82.8993 164.604 82.398C164.871 81.886 165.004 81.2993 165.004 80.638C165.004 79.9767 164.871 79.3953 164.604 78.894C164.338 78.382 163.975 77.9873 163.516 77.71C163.058 77.422 162.535 77.278 161.948 77.278ZM174.4 76.622C174.538 76.622 174.65 76.67 174.736 76.766C174.832 76.862 174.88 76.974 174.88 77.102V81.614C174.88 82.67 174.581 83.4753 173.984 84.03C173.386 84.5847 172.581 84.862 171.568 84.862C170.565 84.862 169.765 84.5847 169.168 84.03C168.581 83.4753 168.288 82.67 168.288 81.614V77.102C168.288 76.974 168.33 76.862 168.416 76.766C168.512 76.67 168.629 76.622 168.768 76.622C168.906 76.622 169.018 76.67 169.104 76.766C169.2 76.862 169.248 76.974 169.248 77.102V81.614C169.248 82.382 169.45 82.9687 169.856 83.374C170.272 83.7687 170.842 83.966 171.568 83.966C172.304 83.966 172.88 83.7687 173.296 83.374C173.712 82.9687 173.92 82.382 173.92 81.614V77.102C173.92 76.974 173.962 76.862 174.048 76.766C174.133 76.67 174.25 76.622 174.4 76.622ZM178.325 84.27C178.325 84.398 178.277 84.51 178.181 84.606C178.085 84.702 177.973 84.75 177.845 84.75C177.706 84.75 177.589 84.702 177.493 84.606C177.408 84.51 177.365 84.398 177.365 84.27V76.91C177.365 76.782 177.408 76.67 177.493 76.574C177.589 76.478 177.706 76.43 177.845 76.43C177.984 76.43 178.096 76.478 178.181 76.574C178.277 76.67 178.325 76.782 178.325 76.91V84.27ZM177.845 75.358C177.621 75.358 177.45 75.31 177.333 75.214C177.226 75.1073 177.173 74.958 177.173 74.766V74.606C177.173 74.414 177.232 74.27 177.349 74.174C177.477 74.0673 177.648 74.014 177.861 74.014C178.064 74.014 178.218 74.0673 178.325 74.174C178.442 74.27 178.501 74.414 178.501 74.606V74.766C178.501 74.958 178.442 75.1073 178.325 75.214C178.218 75.31 178.058 75.358 177.845 75.358ZM180.291 76.606H184.019C184.147 76.606 184.254 76.654 184.339 76.75C184.424 76.8353 184.467 76.942 184.467 77.07C184.467 77.1873 184.424 77.2887 184.339 77.374C184.254 77.4593 184.147 77.502 184.019 77.502H180.291C180.163 77.502 180.051 77.4593 179.955 77.374C179.87 77.278 179.827 77.1713 179.827 77.054C179.827 76.926 179.87 76.8193 179.955 76.734C180.051 76.6487 180.163 76.606 180.291 76.606ZM181.939 74.35C182.078 74.35 182.19 74.398 182.275 74.494C182.371 74.59 182.419 74.702 182.419 74.83V82.862C182.419 83.1607 182.456 83.3847 182.531 83.534C182.616 83.6833 182.723 83.7847 182.851 83.838C182.979 83.8807 183.107 83.902 183.235 83.902C183.32 83.902 183.395 83.8913 183.459 83.87C183.534 83.838 183.614 83.822 183.699 83.822C183.795 83.822 183.875 83.8593 183.939 83.934C184.014 84.0087 184.051 84.1047 184.051 84.222C184.051 84.3713 183.966 84.4993 183.795 84.606C183.624 84.702 183.422 84.75 183.187 84.75C183.091 84.75 182.947 84.7447 182.755 84.734C182.563 84.7127 182.366 84.654 182.163 84.558C181.96 84.4513 181.79 84.27 181.651 84.014C181.523 83.758 181.459 83.39 181.459 82.91V74.83C181.459 74.702 181.502 74.59 181.587 74.494C181.683 74.398 181.8 74.35 181.939 74.35ZM192.945 76.574C193.083 76.574 193.195 76.622 193.281 76.718C193.377 76.814 193.425 76.9313 193.425 77.07V84.27C193.425 84.398 193.377 84.51 193.281 84.606C193.185 84.702 193.073 84.75 192.945 84.75C192.806 84.75 192.689 84.702 192.593 84.606C192.507 84.51 192.465 84.398 192.465 84.27V82.366L192.737 82.238C192.737 82.5367 192.651 82.8407 192.481 83.15C192.321 83.4593 192.097 83.7473 191.809 84.014C191.521 84.2807 191.179 84.4993 190.785 84.67C190.401 84.83 189.985 84.91 189.537 84.91C188.811 84.91 188.161 84.7233 187.585 84.35C187.019 83.9767 186.571 83.4647 186.241 82.814C185.921 82.1633 185.761 81.4327 185.761 80.622C185.761 79.79 185.926 79.0593 186.257 78.43C186.587 77.79 187.035 77.2887 187.601 76.926C188.166 76.5633 188.806 76.382 189.521 76.382C189.979 76.382 190.406 76.462 190.801 76.622C191.206 76.782 191.558 77.0007 191.857 77.278C192.155 77.5553 192.385 77.8753 192.545 78.238C192.715 78.59 192.801 78.958 192.801 79.342L192.465 79.102V77.07C192.465 76.9313 192.507 76.814 192.593 76.718C192.689 76.622 192.806 76.574 192.945 76.574ZM189.617 84.014C190.182 84.014 190.683 83.87 191.121 83.582C191.558 83.2833 191.899 82.878 192.145 82.366C192.401 81.8433 192.529 81.262 192.529 80.622C192.529 79.9927 192.401 79.4273 192.145 78.926C191.899 78.4247 191.558 78.0247 191.121 77.726C190.683 77.4273 190.182 77.278 189.617 77.278C189.062 77.278 188.561 77.422 188.113 77.71C187.675 77.998 187.329 78.3927 187.073 78.894C186.827 79.3953 186.705 79.9713 186.705 80.622C186.705 81.262 186.827 81.8433 187.073 82.366C187.329 82.878 187.675 83.2833 188.113 83.582C188.55 83.87 189.051 84.014 189.617 84.014ZM196.424 84.75C196.275 84.75 196.157 84.702 196.072 84.606C195.987 84.51 195.944 84.398 195.944 84.27V77.102C195.944 76.974 195.987 76.862 196.072 76.766C196.168 76.67 196.285 76.622 196.424 76.622C196.563 76.622 196.675 76.67 196.76 76.766C196.856 76.862 196.904 76.974 196.904 77.102V79.502L196.664 79.55C196.696 79.1767 196.787 78.8087 196.936 78.446C197.096 78.0727 197.309 77.7313 197.576 77.422C197.843 77.1127 198.157 76.862 198.52 76.67C198.893 76.478 199.309 76.382 199.768 76.382C199.96 76.382 200.147 76.4247 200.328 76.51C200.509 76.5847 200.6 76.7127 200.6 76.894C200.6 77.054 200.557 77.1767 200.472 77.262C200.387 77.3473 200.285 77.39 200.168 77.39C200.072 77.39 199.965 77.3633 199.848 77.31C199.741 77.2567 199.597 77.23 199.416 77.23C199.117 77.23 198.819 77.3207 198.52 77.502C198.221 77.6727 197.949 77.9073 197.704 78.206C197.459 78.5047 197.261 78.8407 197.112 79.214C196.973 79.5767 196.904 79.9447 196.904 80.318V84.27C196.904 84.398 196.856 84.51 196.76 84.606C196.664 84.702 196.552 84.75 196.424 84.75Z" fill="black" class="ikcLYGmp_5"></path>
<path d="M0 33.3752L253.795 33.3752" stroke="black" class="ikcLYGmp_6"></path>
<path d="M383.37 33.3752L680 33.3752" stroke="black" class="ikcLYGmp_7"></path>
<path d="M270.535 40.41C269.713 40.41 268.988 40.234 268.359 39.882C267.729 39.53 267.239 39.0393 266.887 38.41C266.535 37.7807 266.359 37.0447 266.359 36.202C266.359 35.2953 266.535 34.522 266.887 33.882C267.249 33.242 267.713 32.7513 268.279 32.41C268.855 32.058 269.463 31.882 270.103 31.882C270.572 31.882 271.025 31.9673 271.463 32.138C271.911 32.298 272.305 32.5433 272.647 32.874C272.999 33.194 273.276 33.5887 273.479 34.058C273.692 34.5273 273.809 35.0713 273.831 35.69C273.82 35.818 273.767 35.93 273.671 36.026C273.575 36.1113 273.463 36.154 273.335 36.154H266.919L266.727 35.29H273.031L272.823 35.482V35.162C272.78 34.6607 272.62 34.234 272.343 33.882C272.065 33.53 271.729 33.2633 271.335 33.082C270.94 32.9007 270.529 32.81 270.103 32.81C269.783 32.81 269.452 32.874 269.111 33.002C268.78 33.13 268.476 33.3327 268.199 33.61C267.932 33.8767 267.713 34.2233 267.543 34.65C267.372 35.066 267.287 35.562 267.287 36.138C267.287 36.7673 267.415 37.338 267.671 37.85C267.927 38.362 268.295 38.7673 268.775 39.066C269.265 39.3647 269.847 39.514 270.519 39.514C270.892 39.514 271.228 39.4607 271.527 39.354C271.825 39.2473 272.087 39.1087 272.311 38.938C272.535 38.7567 272.721 38.57 272.871 38.378C272.988 38.282 273.105 38.234 273.223 38.234C273.329 38.234 273.42 38.2767 273.495 38.362C273.58 38.4473 273.623 38.5433 273.623 38.65C273.623 38.778 273.569 38.89 273.463 38.986C273.143 39.37 272.727 39.706 272.215 39.994C271.703 40.2713 271.143 40.41 270.535 40.41ZM276.942 39.77C276.942 39.898 276.894 40.01 276.798 40.106C276.702 40.202 276.59 40.25 276.462 40.25C276.323 40.25 276.206 40.202 276.11 40.106C276.024 40.01 275.982 39.898 275.982 39.77V28.89C275.982 28.762 276.03 28.65 276.126 28.554C276.222 28.458 276.334 28.41 276.462 28.41C276.6 28.41 276.712 28.458 276.798 28.554C276.894 28.65 276.942 28.762 276.942 28.89V39.77ZM283.113 40.41C282.292 40.41 281.566 40.234 280.937 39.882C280.308 39.53 279.817 39.0393 279.465 38.41C279.113 37.7807 278.937 37.0447 278.937 36.202C278.937 35.2953 279.113 34.522 279.465 33.882C279.828 33.242 280.292 32.7513 280.857 32.41C281.433 32.058 282.041 31.882 282.681 31.882C283.15 31.882 283.604 31.9673 284.041 32.138C284.489 32.298 284.884 32.5433 285.225 32.874C285.577 33.194 285.854 33.5887 286.057 34.058C286.27 34.5273 286.388 35.0713 286.409 35.69C286.398 35.818 286.345 35.93 286.249 36.026C286.153 36.1113 286.041 36.154 285.913 36.154H279.497L279.305 35.29H285.609L285.401 35.482V35.162C285.358 34.6607 285.198 34.234 284.921 33.882C284.644 33.53 284.308 33.2633 283.913 33.082C283.518 32.9007 283.108 32.81 282.681 32.81C282.361 32.81 282.03 32.874 281.689 33.002C281.358 33.13 281.054 33.3327 280.777 33.61C280.51 33.8767 280.292 34.2233 280.121 34.65C279.95 35.066 279.865 35.562 279.865 36.138C279.865 36.7673 279.993 37.338 280.249 37.85C280.505 38.362 280.873 38.7673 281.353 39.066C281.844 39.3647 282.425 39.514 283.097 39.514C283.47 39.514 283.806 39.4607 284.105 39.354C284.404 39.2473 284.665 39.1087 284.889 38.938C285.113 38.7567 285.3 38.57 285.449 38.378C285.566 38.282 285.684 38.234 285.801 38.234C285.908 38.234 285.998 38.2767 286.073 38.362C286.158 38.4473 286.201 38.5433 286.201 38.65C286.201 38.778 286.148 38.89 286.041 38.986C285.721 39.37 285.305 39.706 284.793 39.994C284.281 40.2713 283.721 40.41 283.113 40.41ZM292.064 31.882C292.576 31.882 293.045 31.9407 293.472 32.058C293.898 32.1647 294.24 32.314 294.496 32.506C294.762 32.698 294.896 32.906 294.896 33.13C294.896 33.2367 294.858 33.3433 294.784 33.45C294.709 33.546 294.608 33.594 294.48 33.594C294.352 33.594 294.245 33.562 294.16 33.498C294.085 33.434 294.005 33.3593 293.92 33.274C293.845 33.1887 293.733 33.1087 293.584 33.034C293.445 32.97 293.248 32.9113 292.992 32.858C292.736 32.8047 292.442 32.778 292.112 32.778C291.514 32.778 290.976 32.9273 290.496 33.226C290.016 33.5247 289.637 33.93 289.36 34.442C289.082 34.9433 288.944 35.5087 288.944 36.138C288.944 36.778 289.077 37.354 289.344 37.866C289.61 38.378 289.978 38.7833 290.448 39.082C290.917 39.37 291.466 39.514 292.096 39.514C292.522 39.514 292.853 39.4767 293.088 39.402C293.322 39.3273 293.525 39.242 293.696 39.146C293.898 39.0287 294.042 38.9167 294.128 38.81C294.224 38.6927 294.346 38.634 294.496 38.634C294.634 38.634 294.736 38.6767 294.8 38.762C294.874 38.8367 294.912 38.938 294.912 39.066C294.912 39.2367 294.784 39.4287 294.528 39.642C294.282 39.8447 293.941 40.026 293.504 40.186C293.066 40.3353 292.565 40.41 292 40.41C291.2 40.41 290.496 40.2233 289.888 39.85C289.29 39.4767 288.821 38.97 288.48 38.33C288.149 37.6793 287.984 36.9487 287.984 36.138C287.984 35.3593 288.154 34.65 288.496 34.01C288.837 33.37 289.312 32.858 289.92 32.474C290.538 32.0793 291.253 31.882 292.064 31.882ZM296.217 32.106H299.945C300.073 32.106 300.18 32.154 300.265 32.25C300.35 32.3353 300.393 32.442 300.393 32.57C300.393 32.6873 300.35 32.7887 300.265 32.874C300.18 32.9593 300.073 33.002 299.945 33.002H296.217C296.089 33.002 295.977 32.9593 295.881 32.874C295.796 32.778 295.753 32.6713 295.753 32.554C295.753 32.426 295.796 32.3193 295.881 32.234C295.977 32.1487 296.089 32.106 296.217 32.106ZM297.865 29.85C298.004 29.85 298.116 29.898 298.201 29.994C298.297 30.09 298.345 30.202 298.345 30.33V38.362C298.345 38.6607 298.382 38.8847 298.457 39.034C298.542 39.1833 298.649 39.2847 298.777 39.338C298.905 39.3807 299.033 39.402 299.161 39.402C299.246 39.402 299.321 39.3913 299.385 39.37C299.46 39.338 299.54 39.322 299.625 39.322C299.721 39.322 299.801 39.3593 299.865 39.434C299.94 39.5087 299.977 39.6047 299.977 39.722C299.977 39.8713 299.892 39.9993 299.721 40.106C299.55 40.202 299.348 40.25 299.113 40.25C299.017 40.25 298.873 40.2447 298.681 40.234C298.489 40.2127 298.292 40.154 298.089 40.058C297.886 39.9513 297.716 39.77 297.577 39.514C297.449 39.258 297.385 38.89 297.385 38.41V30.33C297.385 30.202 297.428 30.09 297.513 29.994C297.609 29.898 297.726 29.85 297.865 29.85ZM302.647 40.25C302.498 40.25 302.38 40.202 302.295 40.106C302.21 40.01 302.167 39.898 302.167 39.77V32.602C302.167 32.474 302.21 32.362 302.295 32.266C302.391 32.17 302.508 32.122 302.647 32.122C302.786 32.122 302.898 32.17 302.983 32.266C303.079 32.362 303.127 32.474 303.127 32.602V35.002L302.887 35.05C302.919 34.6767 303.01 34.3087 303.159 33.946C303.319 33.5727 303.532 33.2313 303.799 32.922C304.066 32.6127 304.38 32.362 304.743 32.17C305.116 31.978 305.532 31.882 305.991 31.882C306.183 31.882 306.37 31.9247 306.551 32.01C306.732 32.0847 306.823 32.2127 306.823 32.394C306.823 32.554 306.78 32.6767 306.695 32.762C306.61 32.8473 306.508 32.89 306.391 32.89C306.295 32.89 306.188 32.8633 306.071 32.81C305.964 32.7567 305.82 32.73 305.639 32.73C305.34 32.73 305.042 32.8207 304.743 33.002C304.444 33.1727 304.172 33.4073 303.927 33.706C303.682 34.0047 303.484 34.3407 303.335 34.714C303.196 35.0767 303.127 35.4447 303.127 35.818V39.77C303.127 39.898 303.079 40.01 302.983 40.106C302.887 40.202 302.775 40.25 302.647 40.25ZM309.251 39.77C309.251 39.898 309.203 40.01 309.107 40.106C309.011 40.202 308.899 40.25 308.771 40.25C308.633 40.25 308.515 40.202 308.419 40.106C308.334 40.01 308.291 39.898 308.291 39.77V32.41C308.291 32.282 308.334 32.17 308.419 32.074C308.515 31.978 308.633 31.93 308.771 31.93C308.91 31.93 309.022 31.978 309.107 32.074C309.203 32.17 309.251 32.282 309.251 32.41V39.77ZM308.771 30.858C308.547 30.858 308.377 30.81 308.259 30.714C308.153 30.6073 308.099 30.458 308.099 30.266V30.106C308.099 29.914 308.158 29.77 308.275 29.674C308.403 29.5673 308.574 29.514 308.787 29.514C308.99 29.514 309.145 29.5673 309.251 29.674C309.369 29.77 309.427 29.914 309.427 30.106V30.266C309.427 30.458 309.369 30.6073 309.251 30.714C309.145 30.81 308.985 30.858 308.771 30.858ZM315.345 31.882C315.857 31.882 316.326 31.9407 316.753 32.058C317.18 32.1647 317.521 32.314 317.777 32.506C318.044 32.698 318.177 32.906 318.177 33.13C318.177 33.2367 318.14 33.3433 318.065 33.45C317.99 33.546 317.889 33.594 317.761 33.594C317.633 33.594 317.526 33.562 317.441 33.498C317.366 33.434 317.286 33.3593 317.201 33.274C317.126 33.1887 317.014 33.1087 316.865 33.034C316.726 32.97 316.529 32.9113 316.273 32.858C316.017 32.8047 315.724 32.778 315.393 32.778C314.796 32.778 314.257 32.9273 313.777 33.226C313.297 33.5247 312.918 33.93 312.641 34.442C312.364 34.9433 312.225 35.5087 312.225 36.138C312.225 36.778 312.358 37.354 312.625 37.866C312.892 38.378 313.26 38.7833 313.729 39.082C314.198 39.37 314.748 39.514 315.377 39.514C315.804 39.514 316.134 39.4767 316.369 39.402C316.604 39.3273 316.806 39.242 316.977 39.146C317.18 39.0287 317.324 38.9167 317.409 38.81C317.505 38.6927 317.628 38.634 317.777 38.634C317.916 38.634 318.017 38.6767 318.081 38.762C318.156 38.8367 318.193 38.938 318.193 39.066C318.193 39.2367 318.065 39.4287 317.809 39.642C317.564 39.8447 317.222 40.026 316.785 40.186C316.348 40.3353 315.846 40.41 315.281 40.41C314.481 40.41 313.777 40.2233 313.169 39.85C312.572 39.4767 312.102 38.97 311.761 38.33C311.43 37.6793 311.265 36.9487 311.265 36.138C311.265 35.3593 311.436 34.65 311.777 34.01C312.118 33.37 312.593 32.858 313.201 32.474C313.82 32.0793 314.534 31.882 315.345 31.882ZM327.809 31.882C328.289 31.882 328.732 31.9673 329.137 32.138C329.543 32.298 329.895 32.5113 330.193 32.778C330.503 33.034 330.743 33.3113 330.913 33.61C331.084 33.898 331.169 34.1753 331.169 34.442L330.897 34.058V32.57C330.897 32.4313 330.94 32.314 331.025 32.218C331.121 32.122 331.239 32.074 331.377 32.074C331.527 32.074 331.644 32.122 331.729 32.218C331.815 32.314 331.857 32.4313 331.857 32.57V39.498C331.857 40.3513 331.681 41.0713 331.329 41.658C330.977 42.2447 330.497 42.6873 329.889 42.986C329.292 43.2953 328.609 43.45 327.841 43.45C327.468 43.45 327.073 43.402 326.657 43.306C326.252 43.21 325.9 43.0873 325.601 42.938C325.313 42.7887 325.153 42.634 325.121 42.474C325.036 42.378 324.993 42.282 324.993 42.186C325.004 42.1007 325.052 42.026 325.137 41.962C325.244 41.8873 325.356 41.8767 325.473 41.93C325.591 41.994 325.767 42.074 326.001 42.17C326.108 42.202 326.252 42.25 326.433 42.314C326.615 42.378 326.828 42.4313 327.073 42.474C327.329 42.5273 327.596 42.554 327.873 42.554C328.833 42.554 329.575 42.2767 330.097 41.722C330.631 41.178 330.897 40.458 330.897 39.562V38.026L331.073 38.074C330.977 38.458 330.817 38.794 330.593 39.082C330.38 39.37 330.124 39.6153 329.825 39.818C329.527 40.01 329.201 40.154 328.849 40.25C328.508 40.3567 328.167 40.41 327.825 40.41C327.089 40.41 326.428 40.2233 325.841 39.85C325.255 39.4767 324.785 38.97 324.433 38.33C324.092 37.69 323.921 36.9593 323.921 36.138C323.921 35.3273 324.092 34.602 324.433 33.962C324.785 33.3113 325.249 32.8047 325.825 32.442C326.412 32.0687 327.073 31.882 327.809 31.882ZM327.921 32.778C327.335 32.778 326.807 32.9273 326.337 33.226C325.879 33.514 325.516 33.914 325.249 34.426C324.993 34.9273 324.865 35.498 324.865 36.138C324.865 36.778 324.993 37.354 325.249 37.866C325.516 38.378 325.879 38.7833 326.337 39.082C326.807 39.37 327.335 39.514 327.921 39.514C328.508 39.514 329.031 39.37 329.489 39.082C329.948 38.794 330.311 38.3993 330.577 37.898C330.844 37.386 330.977 36.7993 330.977 36.138C330.977 35.4767 330.844 34.8953 330.577 34.394C330.311 33.882 329.948 33.4873 329.489 33.21C329.031 32.922 328.508 32.778 327.921 32.778ZM340.373 32.122C340.511 32.122 340.623 32.17 340.709 32.266C340.805 32.362 340.853 32.474 340.853 32.602V37.114C340.853 38.17 340.554 38.9753 339.957 39.53C339.359 40.0847 338.554 40.362 337.541 40.362C336.538 40.362 335.738 40.0847 335.141 39.53C334.554 38.9753 334.261 38.17 334.261 37.114V32.602C334.261 32.474 334.303 32.362 334.389 32.266C334.485 32.17 334.602 32.122 334.741 32.122C334.879 32.122 334.991 32.17 335.077 32.266C335.173 32.362 335.221 32.474 335.221 32.602V37.114C335.221 37.882 335.423 38.4687 335.829 38.874C336.245 39.2687 336.815 39.466 337.541 39.466C338.277 39.466 338.853 39.2687 339.269 38.874C339.685 38.4687 339.893 37.882 339.893 37.114V32.602C339.893 32.474 339.935 32.362 340.021 32.266C340.106 32.17 340.223 32.122 340.373 32.122ZM344.298 39.77C344.298 39.898 344.25 40.01 344.154 40.106C344.058 40.202 343.946 40.25 343.818 40.25C343.679 40.25 343.562 40.202 343.466 40.106C343.381 40.01 343.338 39.898 343.338 39.77V32.41C343.338 32.282 343.381 32.17 343.466 32.074C343.562 31.978 343.679 31.93 343.818 31.93C343.957 31.93 344.069 31.978 344.154 32.074C344.25 32.17 344.298 32.282 344.298 32.41V39.77ZM343.818 30.858C343.594 30.858 343.423 30.81 343.306 30.714C343.199 30.6073 343.146 30.458 343.146 30.266V30.106C343.146 29.914 343.205 29.77 343.322 29.674C343.45 29.5673 343.621 29.514 343.834 29.514C344.037 29.514 344.191 29.5673 344.298 29.674C344.415 29.77 344.474 29.914 344.474 30.106V30.266C344.474 30.458 344.415 30.6073 344.298 30.714C344.191 30.81 344.031 30.858 343.818 30.858ZM346.264 32.106L349.992 32.106C350.12 32.106 350.227 32.154 350.312 32.25C350.397 32.3353 350.44 32.442 350.44 32.57C350.44 32.6873 350.397 32.7887 350.312 32.874C350.227 32.9593 350.12 33.002 349.992 33.002L346.264 33.002C346.136 33.002 346.024 32.9593 345.928 32.874C345.843 32.778 345.8 32.6713 345.8 32.554C345.8 32.426 345.843 32.3193 345.928 32.234C346.024 32.1487 346.136 32.106 346.264 32.106ZM347.912 29.85C348.051 29.85 348.163 29.898 348.248 29.994C348.344 30.09 348.392 30.202 348.392 30.33V38.362C348.392 38.6607 348.429 38.8847 348.504 39.034C348.589 39.1833 348.696 39.2847 348.824 39.338C348.952 39.3807 349.08 39.402 349.208 39.402C349.293 39.402 349.368 39.3913 349.432 39.37C349.507 39.338 349.587 39.322 349.672 39.322C349.768 39.322 349.848 39.3593 349.912 39.434C349.987 39.5087 350.024 39.6047 350.024 39.722C350.024 39.8713 349.939 39.9993 349.768 40.106C349.597 40.202 349.395 40.25 349.16 40.25C349.064 40.25 348.92 40.2447 348.728 40.234C348.536 40.2127 348.339 40.154 348.136 40.058C347.933 39.9513 347.763 39.77 347.624 39.514C347.496 39.258 347.432 38.89 347.432 38.41V30.33C347.432 30.202 347.475 30.09 347.56 29.994C347.656 29.898 347.773 29.85 347.912 29.85ZM358.918 32.074C359.056 32.074 359.168 32.122 359.254 32.218C359.35 32.314 359.398 32.4313 359.398 32.57V39.77C359.398 39.898 359.35 40.01 359.254 40.106C359.158 40.202 359.046 40.25 358.918 40.25C358.779 40.25 358.662 40.202 358.566 40.106C358.48 40.01 358.438 39.898 358.438 39.77V37.866L358.71 37.738C358.71 38.0367 358.624 38.3407 358.454 38.65C358.294 38.9593 358.07 39.2473 357.782 39.514C357.494 39.7807 357.152 39.9993 356.758 40.17C356.374 40.33 355.958 40.41 355.51 40.41C354.784 40.41 354.134 40.2233 353.558 39.85C352.992 39.4767 352.544 38.9647 352.214 38.314C351.894 37.6633 351.734 36.9327 351.734 36.122C351.734 35.29 351.899 34.5593 352.23 33.93C352.56 33.29 353.008 32.7887 353.574 32.426C354.139 32.0633 354.779 31.882 355.494 31.882C355.952 31.882 356.379 31.962 356.774 32.122C357.179 32.282 357.531 32.5007 357.83 32.778C358.128 33.0553 358.358 33.3753 358.518 33.738C358.688 34.09 358.774 34.458 358.774 34.842L358.438 34.602V32.57C358.438 32.4313 358.48 32.314 358.566 32.218C358.662 32.122 358.779 32.074 358.918 32.074ZM355.59 39.514C356.155 39.514 356.656 39.37 357.094 39.082C357.531 38.7833 357.872 38.378 358.118 37.866C358.374 37.3433 358.502 36.762 358.502 36.122C358.502 35.4927 358.374 34.9273 358.118 34.426C357.872 33.9247 357.531 33.5247 357.094 33.226C356.656 32.9273 356.155 32.778 355.59 32.778C355.035 32.778 354.534 32.922 354.086 33.21C353.648 33.498 353.302 33.8927 353.046 34.394C352.8 34.8953 352.678 35.4713 352.678 36.122C352.678 36.762 352.8 37.3433 353.046 37.866C353.302 38.378 353.648 38.7833 354.086 39.082C354.523 39.37 355.024 39.514 355.59 39.514ZM362.397 40.25C362.248 40.25 362.13 40.202 362.045 40.106C361.96 40.01 361.917 39.898 361.917 39.77V32.602C361.917 32.474 361.96 32.362 362.045 32.266C362.141 32.17 362.258 32.122 362.397 32.122C362.536 32.122 362.648 32.17 362.733 32.266C362.829 32.362 362.877 32.474 362.877 32.602V35.002L362.637 35.05C362.669 34.6767 362.76 34.3087 362.909 33.946C363.069 33.5727 363.282 33.2313 363.549 32.922C363.816 32.6127 364.13 32.362 364.493 32.17C364.866 31.978 365.282 31.882 365.741 31.882C365.933 31.882 366.12 31.9247 366.301 32.01C366.482 32.0847 366.573 32.2127 366.573 32.394C366.573 32.554 366.53 32.6767 366.445 32.762C366.36 32.8473 366.258 32.89 366.141 32.89C366.045 32.89 365.938 32.8633 365.821 32.81C365.714 32.7567 365.57 32.73 365.389 32.73C365.09 32.73 364.792 32.8207 364.493 33.002C364.194 33.1727 363.922 33.4073 363.677 33.706C363.432 34.0047 363.234 34.3407 363.085 34.714C362.946 35.0767 362.877 35.4447 362.877 35.818V39.77C362.877 39.898 362.829 40.01 362.733 40.106C362.637 40.202 362.525 40.25 362.397 40.25Z" fill="black" class="ikcLYGmp_8"></path>
<path d="M510.803 55.6257L680 55.6257" stroke="black" class="ikcLYGmp_9"></path>
<path d="M0 55.6257L375.874 55.6257" stroke="black" class="ikcLYGmp_10"></path>
<path d="M392.409 54.324C392.548 54.324 392.66 54.372 392.745 54.468C392.841 54.564 392.889 54.6813 392.889 54.82V62.02C392.889 62.148 392.841 62.26 392.745 62.356C392.649 62.452 392.537 62.5 392.409 62.5C392.27 62.5 392.153 62.452 392.057 62.356C391.972 62.26 391.929 62.148 391.929 62.02V60.116L392.201 59.988C392.201 60.2867 392.116 60.5907 391.945 60.9C391.785 61.2093 391.561 61.4973 391.273 61.764C390.985 62.0307 390.644 62.2493 390.249 62.42C389.865 62.58 389.449 62.66 389.001 62.66C388.276 62.66 387.625 62.4733 387.049 62.1C386.484 61.7267 386.036 61.2147 385.705 60.564C385.385 59.9133 385.225 59.1827 385.225 58.372C385.225 57.54 385.39 56.8093 385.721 56.18C386.052 55.54 386.5 55.0387 387.065 54.676C387.63 54.3133 388.27 54.132 388.985 54.132C389.444 54.132 389.87 54.212 390.265 54.372C390.67 54.532 391.022 54.7507 391.321 55.028C391.62 55.3053 391.849 55.6253 392.009 55.988C392.18 56.34 392.265 56.708 392.265 57.092L391.929 56.852V54.82C391.929 54.6813 391.972 54.564 392.057 54.468C392.153 54.372 392.27 54.324 392.409 54.324ZM389.081 61.764C389.646 61.764 390.148 61.62 390.585 61.332C391.022 61.0333 391.364 60.628 391.609 60.116C391.865 59.5933 391.993 59.012 391.993 58.372C391.993 57.7427 391.865 57.1773 391.609 56.676C391.364 56.1747 391.022 55.7747 390.585 55.476C390.148 55.1773 389.646 55.028 389.081 55.028C388.526 55.028 388.025 55.172 387.577 55.46C387.14 55.748 386.793 56.1427 386.537 56.644C386.292 57.1453 386.169 57.7213 386.169 58.372C386.169 59.012 386.292 59.5933 386.537 60.116C386.793 60.628 387.14 61.0333 387.577 61.332C388.014 61.62 388.516 61.764 389.081 61.764ZM399.008 54.132C399.52 54.132 399.989 54.1907 400.416 54.308C400.843 54.4147 401.184 54.564 401.44 54.756C401.707 54.948 401.84 55.156 401.84 55.38C401.84 55.4867 401.803 55.5933 401.728 55.7C401.653 55.796 401.552 55.844 401.424 55.844C401.296 55.844 401.189 55.812 401.104 55.748C401.029 55.684 400.949 55.6093 400.864 55.524C400.789 55.4387 400.677 55.3587 400.528 55.284C400.389 55.22 400.192 55.1613 399.936 55.108C399.68 55.0547 399.387 55.028 399.056 55.028C398.459 55.028 397.92 55.1773 397.44 55.476C396.96 55.7747 396.581 56.18 396.304 56.692C396.027 57.1933 395.888 57.7587 395.888 58.388C395.888 59.028 396.021 59.604 396.288 60.116C396.555 60.628 396.923 61.0333 397.392 61.332C397.861 61.62 398.411 61.764 399.04 61.764C399.467 61.764 399.797 61.7267 400.032 61.652C400.267 61.5773 400.469 61.492 400.64 61.396C400.843 61.2787 400.987 61.1667 401.072 61.06C401.168 60.9427 401.291 60.884 401.44 60.884C401.579 60.884 401.68 60.9267 401.744 61.012C401.819 61.0867 401.856 61.188 401.856 61.316C401.856 61.4867 401.728 61.6787 401.472 61.892C401.227 62.0947 400.885 62.276 400.448 62.436C400.011 62.5853 399.509 62.66 398.944 62.66C398.144 62.66 397.44 62.4733 396.832 62.1C396.235 61.7267 395.765 61.22 395.424 60.58C395.093 59.9293 394.928 59.1987 394.928 58.388C394.928 57.6093 395.099 56.9 395.44 56.26C395.781 55.62 396.256 55.108 396.864 54.724C397.483 54.3293 398.197 54.132 399.008 54.132ZM411.305 58.404C411.305 59.2147 411.129 59.9453 410.777 60.596C410.425 61.236 409.945 61.7427 409.337 62.116C408.729 62.4787 408.036 62.66 407.257 62.66C406.5 62.66 405.812 62.4787 405.193 62.116C404.585 61.7427 404.1 61.236 403.737 60.596C403.385 59.9453 403.209 59.2147 403.209 58.404C403.209 57.5827 403.385 56.852 403.737 56.212C404.1 55.572 404.585 55.0653 405.193 54.692C405.812 54.3187 406.5 54.132 407.257 54.132C408.036 54.132 408.729 54.3187 409.337 54.692C409.945 55.0653 410.425 55.572 410.777 56.212C411.129 56.852 411.305 57.5827 411.305 58.404ZM410.345 58.404C410.345 57.7533 410.212 57.1773 409.945 56.676C409.679 56.164 409.311 55.764 408.841 55.476C408.383 55.1773 407.855 55.028 407.257 55.028C406.681 55.028 406.159 55.1773 405.689 55.476C405.22 55.764 404.847 56.164 404.569 56.676C404.303 57.1773 404.169 57.7533 404.169 58.404C404.169 59.0547 404.303 59.6307 404.569 60.132C404.847 60.6333 405.22 61.0333 405.689 61.332C406.159 61.62 406.681 61.764 407.257 61.764C407.855 61.764 408.383 61.62 408.841 61.332C409.311 61.0333 409.679 60.6333 409.945 60.132C410.212 59.6307 410.345 59.0547 410.345 58.404ZM419.458 54.372C419.596 54.372 419.708 54.42 419.794 54.516C419.89 54.612 419.938 54.724 419.938 54.852V59.364C419.938 60.42 419.639 61.2253 419.042 61.78C418.444 62.3347 417.639 62.612 416.626 62.612C415.623 62.612 414.823 62.3347 414.226 61.78C413.639 61.2253 413.346 60.42 413.346 59.364V54.852C413.346 54.724 413.388 54.612 413.474 54.516C413.57 54.42 413.687 54.372 413.826 54.372C413.964 54.372 414.076 54.42 414.162 54.516C414.258 54.612 414.306 54.724 414.306 54.852V59.364C414.306 60.132 414.508 60.7187 414.914 61.124C415.33 61.5187 415.9 61.716 416.626 61.716C417.362 61.716 417.938 61.5187 418.354 61.124C418.77 60.7187 418.978 60.132 418.978 59.364V54.852C418.978 54.724 419.02 54.612 419.106 54.516C419.191 54.42 419.308 54.372 419.458 54.372ZM421.991 61.204C421.906 61.076 421.863 60.9533 421.863 60.836C421.874 60.708 421.943 60.6067 422.071 60.532C422.156 60.4573 422.252 60.4253 422.359 60.436C422.476 60.4467 422.583 60.5 422.679 60.596C422.967 60.9693 423.314 61.2733 423.719 61.508C424.135 61.732 424.626 61.844 425.191 61.844C425.49 61.844 425.783 61.796 426.071 61.7C426.37 61.5933 426.615 61.4387 426.807 61.236C426.999 61.0227 427.095 60.756 427.095 60.436C427.095 60.1053 426.999 59.8387 426.807 59.636C426.615 59.4333 426.364 59.2733 426.055 59.156C425.756 59.0387 425.436 58.9373 425.095 58.852C424.732 58.756 424.38 58.6493 424.039 58.532C423.698 58.404 423.394 58.2493 423.127 58.068C422.871 57.876 422.663 57.6467 422.503 57.38C422.343 57.1133 422.263 56.788 422.263 56.404C422.263 55.956 422.386 55.5613 422.631 55.22C422.876 54.8787 423.207 54.612 423.623 54.42C424.05 54.228 424.53 54.132 425.063 54.132C425.33 54.132 425.618 54.1693 425.927 54.244C426.236 54.308 426.54 54.42 426.839 54.58C427.138 54.74 427.404 54.9587 427.639 55.236C427.735 55.332 427.783 55.444 427.783 55.572C427.783 55.6893 427.73 55.796 427.623 55.892C427.538 55.956 427.436 55.988 427.319 55.988C427.212 55.988 427.122 55.9453 427.047 55.86C426.791 55.572 426.487 55.3533 426.135 55.204C425.783 55.0547 425.404 54.98 424.999 54.98C424.69 54.98 424.396 55.0333 424.119 55.14C423.852 55.236 423.628 55.3853 423.447 55.588C423.266 55.7907 423.175 56.0573 423.175 56.388C423.196 56.6973 423.303 56.948 423.495 57.14C423.698 57.332 423.959 57.492 424.279 57.62C424.61 57.748 424.978 57.8653 425.383 57.972C425.724 58.0573 426.05 58.1587 426.359 58.276C426.679 58.3933 426.956 58.5427 427.191 58.724C427.436 58.8947 427.628 59.1133 427.767 59.38C427.916 59.6467 427.991 59.9827 427.991 60.388C427.991 60.8573 427.858 61.2627 427.591 61.604C427.335 61.9453 426.988 62.2067 426.551 62.388C426.114 62.5693 425.628 62.66 425.095 62.66C424.519 62.66 423.959 62.548 423.415 62.324C422.882 62.1 422.407 61.7267 421.991 61.204ZM429.427 54.356H433.155C433.283 54.356 433.39 54.404 433.475 54.5C433.56 54.5853 433.603 54.692 433.603 54.82C433.603 54.9373 433.56 55.0387 433.475 55.124C433.39 55.2093 433.283 55.252 433.155 55.252H429.427C429.299 55.252 429.187 55.2093 429.091 55.124C429.006 55.028 428.963 54.9213 428.963 54.804C428.963 54.676 429.006 54.5693 429.091 54.484C429.187 54.3987 429.299 54.356 429.427 54.356ZM431.075 52.1C431.214 52.1 431.326 52.148 431.411 52.244C431.507 52.34 431.555 52.452 431.555 52.58V60.612C431.555 60.9107 431.592 61.1347 431.667 61.284C431.752 61.4333 431.859 61.5347 431.987 61.588C432.115 61.6307 432.243 61.652 432.371 61.652C432.456 61.652 432.531 61.6413 432.595 61.62C432.67 61.588 432.75 61.572 432.835 61.572C432.931 61.572 433.011 61.6093 433.075 61.684C433.15 61.7587 433.187 61.8547 433.187 61.972C433.187 62.1213 433.102 62.2493 432.931 62.356C432.76 62.452 432.558 62.5 432.323 62.5C432.227 62.5 432.083 62.4947 431.891 62.484C431.699 62.4627 431.502 62.404 431.299 62.308C431.096 62.2013 430.926 62.02 430.787 61.764C430.659 61.508 430.595 61.14 430.595 60.66V52.58C430.595 52.452 430.638 52.34 430.723 52.244C430.819 52.148 430.936 52.1 431.075 52.1ZM436.305 62.02C436.305 62.148 436.257 62.26 436.161 62.356C436.065 62.452 435.953 62.5 435.825 62.5C435.686 62.5 435.569 62.452 435.473 62.356C435.387 62.26 435.345 62.148 435.345 62.02V54.66C435.345 54.532 435.387 54.42 435.473 54.324C435.569 54.228 435.686 54.18 435.825 54.18C435.963 54.18 436.075 54.228 436.161 54.324C436.257 54.42 436.305 54.532 436.305 54.66V62.02ZM435.825 53.108C435.601 53.108 435.43 53.06 435.313 52.964C435.206 52.8573 435.153 52.708 435.153 52.516V52.356C435.153 52.164 435.211 52.02 435.329 51.924C435.457 51.8173 435.627 51.764 435.841 51.764C436.043 51.764 436.198 51.8173 436.305 51.924C436.422 52.02 436.481 52.164 436.481 52.356V52.516C436.481 52.708 436.422 52.8573 436.305 52.964C436.198 53.06 436.038 53.108 435.825 53.108ZM442.399 54.132C442.911 54.132 443.38 54.1907 443.807 54.308C444.233 54.4147 444.575 54.564 444.831 54.756C445.097 54.948 445.231 55.156 445.231 55.38C445.231 55.4867 445.193 55.5933 445.119 55.7C445.044 55.796 444.943 55.844 444.815 55.844C444.687 55.844 444.58 55.812 444.495 55.748C444.42 55.684 444.34 55.6093 444.255 55.524C444.18 55.4387 444.068 55.3587 443.919 55.284C443.78 55.22 443.583 55.1613 443.327 55.108C443.071 55.0547 442.777 55.028 442.447 55.028C441.849 55.028 441.311 55.1773 440.831 55.476C440.351 55.7747 439.972 56.18 439.695 56.692C439.417 57.1933 439.279 57.7587 439.279 58.388C439.279 59.028 439.412 59.604 439.679 60.116C439.945 60.628 440.313 61.0333 440.783 61.332C441.252 61.62 441.801 61.764 442.431 61.764C442.857 61.764 443.188 61.7267 443.423 61.652C443.657 61.5773 443.86 61.492 444.031 61.396C444.233 61.2787 444.377 61.1667 444.463 61.06C444.559 60.9427 444.681 60.884 444.831 60.884C444.969 60.884 445.071 60.9267 445.135 61.012C445.209 61.0867 445.247 61.188 445.247 61.316C445.247 61.4867 445.119 61.6787 444.863 61.892C444.617 62.0947 444.276 62.276 443.839 62.436C443.401 62.5853 442.9 62.66 442.335 62.66C441.535 62.66 440.831 62.4733 440.223 62.1C439.625 61.7267 439.156 61.22 438.815 60.58C438.484 59.9293 438.319 59.1987 438.319 58.388C438.319 57.6093 438.489 56.9 438.831 56.26C439.172 55.62 439.647 55.108 440.255 54.724C440.873 54.3293 441.588 54.132 442.399 54.132ZM454.863 54.132C455.343 54.132 455.786 54.2173 456.191 54.388C456.596 54.548 456.948 54.7613 457.247 55.028C457.556 55.284 457.796 55.5613 457.967 55.86C458.138 56.148 458.223 56.4253 458.223 56.692L457.951 56.308V54.82C457.951 54.6813 457.994 54.564 458.079 54.468C458.175 54.372 458.292 54.324 458.431 54.324C458.58 54.324 458.698 54.372 458.783 54.468C458.868 54.564 458.911 54.6813 458.911 54.82V61.748C458.911 62.6013 458.735 63.3213 458.383 63.908C458.031 64.4947 457.551 64.9373 456.943 65.236C456.346 65.5453 455.663 65.7 454.895 65.7C454.522 65.7 454.127 65.652 453.711 65.556C453.306 65.46 452.954 65.3373 452.655 65.188C452.367 65.0387 452.207 64.884 452.175 64.724C452.09 64.628 452.047 64.532 452.047 64.436C452.058 64.3507 452.106 64.276 452.191 64.212C452.298 64.1373 452.41 64.1267 452.527 64.18C452.644 64.244 452.82 64.324 453.055 64.42C453.162 64.452 453.306 64.5 453.487 64.564C453.668 64.628 453.882 64.6813 454.127 64.724C454.383 64.7773 454.65 64.804 454.927 64.804C455.887 64.804 456.628 64.5267 457.151 63.972C457.684 63.428 457.951 62.708 457.951 61.812V60.276L458.127 60.324C458.031 60.708 457.871 61.044 457.647 61.332C457.434 61.62 457.178 61.8653 456.879 62.068C456.58 62.26 456.255 62.404 455.903 62.5C455.562 62.6067 455.22 62.66 454.879 62.66C454.143 62.66 453.482 62.4733 452.895 62.1C452.308 61.7267 451.839 61.22 451.487 60.58C451.146 59.94 450.975 59.2093 450.975 58.388C450.975 57.5773 451.146 56.852 451.487 56.212C451.839 55.5613 452.303 55.0547 452.879 54.692C453.466 54.3187 454.127 54.132 454.863 54.132ZM454.975 55.028C454.388 55.028 453.86 55.1773 453.391 55.476C452.932 55.764 452.57 56.164 452.303 56.676C452.047 57.1773 451.919 57.748 451.919 58.388C451.919 59.028 452.047 59.604 452.303 60.116C452.57 60.628 452.932 61.0333 453.391 61.332C453.86 61.62 454.388 61.764 454.975 61.764C455.562 61.764 456.084 61.62 456.543 61.332C457.002 61.044 457.364 60.6493 457.631 60.148C457.898 59.636 458.031 59.0493 458.031 58.388C458.031 57.7267 457.898 57.1453 457.631 56.644C457.364 56.132 457.002 55.7373 456.543 55.46C456.084 55.172 455.562 55.028 454.975 55.028ZM467.426 54.372C467.565 54.372 467.677 54.42 467.762 54.516C467.858 54.612 467.906 54.724 467.906 54.852V59.364C467.906 60.42 467.608 61.2253 467.01 61.78C466.413 62.3347 465.608 62.612 464.594 62.612C463.592 62.612 462.792 62.3347 462.194 61.78C461.608 61.2253 461.314 60.42 461.314 59.364V54.852C461.314 54.724 461.357 54.612 461.442 54.516C461.538 54.42 461.656 54.372 461.794 54.372C461.933 54.372 462.045 54.42 462.13 54.516C462.226 54.612 462.274 54.724 462.274 54.852V59.364C462.274 60.132 462.477 60.7187 462.882 61.124C463.298 61.5187 463.869 61.716 464.594 61.716C465.33 61.716 465.906 61.5187 466.322 61.124C466.738 60.7187 466.946 60.132 466.946 59.364V54.852C466.946 54.724 466.989 54.612 467.074 54.516C467.16 54.42 467.277 54.372 467.426 54.372ZM471.352 62.02C471.352 62.148 471.304 62.26 471.208 62.356C471.112 62.452 471 62.5 470.872 62.5C470.733 62.5 470.616 62.452 470.52 62.356C470.434 62.26 470.392 62.148 470.392 62.02V54.66C470.392 54.532 470.434 54.42 470.52 54.324C470.616 54.228 470.733 54.18 470.872 54.18C471.01 54.18 471.122 54.228 471.208 54.324C471.304 54.42 471.352 54.532 471.352 54.66V62.02ZM470.872 53.108C470.648 53.108 470.477 53.06 470.36 52.964C470.253 52.8573 470.2 52.708 470.2 52.516V52.356C470.2 52.164 470.258 52.02 470.376 51.924C470.504 51.8173 470.674 51.764 470.888 51.764C471.09 51.764 471.245 51.8173 471.352 51.924C471.469 52.02 471.528 52.164 471.528 52.356V52.516C471.528 52.708 471.469 52.8573 471.352 52.964C471.245 53.06 471.085 53.108 470.872 53.108ZM473.318 54.356H477.046C477.174 54.356 477.28 54.404 477.366 54.5C477.451 54.5853 477.494 54.692 477.494 54.82C477.494 54.9373 477.451 55.0387 477.366 55.124C477.28 55.2093 477.174 55.252 477.046 55.252H473.318C473.19 55.252 473.078 55.2093 472.982 55.124C472.896 55.028 472.854 54.9213 472.854 54.804C472.854 54.676 472.896 54.5693 472.982 54.484C473.078 54.3987 473.19 54.356 473.318 54.356ZM474.966 52.1C475.104 52.1 475.216 52.148 475.302 52.244C475.398 52.34 475.446 52.452 475.446 52.58V60.612C475.446 60.9107 475.483 61.1347 475.558 61.284C475.643 61.4333 475.75 61.5347 475.878 61.588C476.006 61.6307 476.134 61.652 476.262 61.652C476.347 61.652 476.422 61.6413 476.486 61.62C476.56 61.588 476.64 61.572 476.726 61.572C476.822 61.572 476.902 61.6093 476.966 61.684C477.04 61.7587 477.078 61.8547 477.078 61.972C477.078 62.1213 476.992 62.2493 476.822 62.356C476.651 62.452 476.448 62.5 476.214 62.5C476.118 62.5 475.974 62.4947 475.782 62.484C475.59 62.4627 475.392 62.404 475.19 62.308C474.987 62.2013 474.816 62.02 474.678 61.764C474.55 61.508 474.486 61.14 474.486 60.66V52.58C474.486 52.452 474.528 52.34 474.614 52.244C474.71 52.148 474.827 52.1 474.966 52.1ZM485.971 54.324C486.11 54.324 486.222 54.372 486.307 54.468C486.403 54.564 486.451 54.6813 486.451 54.82V62.02C486.451 62.148 486.403 62.26 486.307 62.356C486.211 62.452 486.099 62.5 485.971 62.5C485.833 62.5 485.715 62.452 485.619 62.356C485.534 62.26 485.491 62.148 485.491 62.02V60.116L485.763 59.988C485.763 60.2867 485.678 60.5907 485.507 60.9C485.347 61.2093 485.123 61.4973 484.835 61.764C484.547 62.0307 484.206 62.2493 483.811 62.42C483.427 62.58 483.011 62.66 482.563 62.66C481.838 62.66 481.187 62.4733 480.611 62.1C480.046 61.7267 479.598 61.2147 479.267 60.564C478.947 59.9133 478.787 59.1827 478.787 58.372C478.787 57.54 478.953 56.8093 479.283 56.18C479.614 55.54 480.062 55.0387 480.627 54.676C481.193 54.3133 481.833 54.132 482.547 54.132C483.006 54.132 483.433 54.212 483.827 54.372C484.233 54.532 484.585 54.7507 484.883 55.028C485.182 55.3053 485.411 55.6253 485.571 55.988C485.742 56.34 485.827 56.708 485.827 57.092L485.491 56.852V54.82C485.491 54.6813 485.534 54.564 485.619 54.468C485.715 54.372 485.833 54.324 485.971 54.324ZM482.643 61.764C483.209 61.764 483.71 61.62 484.147 61.332C484.585 61.0333 484.926 60.628 485.171 60.116C485.427 59.5933 485.555 59.012 485.555 58.372C485.555 57.7427 485.427 57.1773 485.171 56.676C484.926 56.1747 484.585 55.7747 484.147 55.476C483.71 55.1773 483.209 55.028 482.643 55.028C482.089 55.028 481.587 55.172 481.139 55.46C480.702 55.748 480.355 56.1427 480.099 56.644C479.854 57.1453 479.731 57.7213 479.731 58.372C479.731 59.012 479.854 59.5933 480.099 60.116C480.355 60.628 480.702 61.0333 481.139 61.332C481.577 61.62 482.078 61.764 482.643 61.764ZM489.451 62.5C489.301 62.5 489.184 62.452 489.099 62.356C489.013 62.26 488.971 62.148 488.971 62.02V54.852C488.971 54.724 489.013 54.612 489.099 54.516C489.195 54.42 489.312 54.372 489.451 54.372C489.589 54.372 489.701 54.42 489.787 54.516C489.883 54.612 489.931 54.724 489.931 54.852V57.252L489.691 57.3C489.723 56.9267 489.813 56.5587 489.963 56.196C490.123 55.8227 490.336 55.4813 490.603 55.172C490.869 54.8627 491.184 54.612 491.547 54.42C491.92 54.228 492.336 54.132 492.795 54.132C492.987 54.132 493.173 54.1747 493.355 54.26C493.536 54.3347 493.627 54.4627 493.627 54.644C493.627 54.804 493.584 54.9267 493.499 55.012C493.413 55.0973 493.312 55.14 493.195 55.14C493.099 55.14 492.992 55.1133 492.875 55.06C492.768 55.0067 492.624 54.98 492.443 54.98C492.144 54.98 491.845 55.0707 491.547 55.252C491.248 55.4227 490.976 55.6573 490.731 55.956C490.485 56.2547 490.288 56.5907 490.139 56.964C490 57.3267 489.931 57.6947 489.931 58.068V62.02C489.931 62.148 489.883 62.26 489.787 62.356C489.691 62.452 489.579 62.5 489.451 62.5Z" fill="black" class="ikcLYGmp_11"></path>
<style data-made-with="vivus-instant">.ikcLYGmp_0{stroke-dasharray:157 159;stroke-dashoffset:158;animation:ikcLYGmp_draw 2000ms linear 0ms forwards;}.ikcLYGmp_1{stroke-dasharray:418 420;stroke-dashoffset:419;animation:ikcLYGmp_draw 2000ms linear 90ms forwards;}.ikcLYGmp_2{stroke-dasharray:457 459;stroke-dashoffset:458;animation:ikcLYGmp_draw 2000ms linear 181ms forwards;}.ikcLYGmp_3{stroke-dasharray:83 85;stroke-dashoffset:84;animation:ikcLYGmp_draw 2000ms linear 272ms forwards;}.ikcLYGmp_4{stroke-dasharray:463 465;stroke-dashoffset:464;animation:ikcLYGmp_draw 2000ms linear 363ms forwards;}.ikcLYGmp_5{stroke-dasharray:596 598;stroke-dashoffset:597;animation:ikcLYGmp_draw 2000ms linear 454ms forwards;}.ikcLYGmp_6{stroke-dasharray:254 256;stroke-dashoffset:255;animation:ikcLYGmp_draw 2000ms linear 545ms forwards;}.ikcLYGmp_7{stroke-dasharray:297 299;stroke-dashoffset:298;animation:ikcLYGmp_draw 2000ms linear 636ms forwards;}.ikcLYGmp_8{stroke-dasharray:549 551;stroke-dashoffset:550;animation:ikcLYGmp_draw 2000ms linear 727ms forwards;}.ikcLYGmp_9{stroke-dasharray:170 172;stroke-dashoffset:171;animation:ikcLYGmp_draw 2000ms linear 818ms forwards;}.ikcLYGmp_10{stroke-dasharray:376 378;stroke-dashoffset:377;animation:ikcLYGmp_draw 2000ms linear 909ms forwards;}.ikcLYGmp_11{stroke-dasharray:569 571;stroke-dashoffset:570;animation:ikcLYGmp_draw 2000ms linear 1000ms forwards;}@keyframes ikcLYGmp_draw{100%{stroke-dashoffset:0;}}@keyframes ikcLYGmp_fade{0%{stroke-opacity:1;}94.44444444444444%{stroke-opacity:1;}100%{stroke-opacity:0;}}</style></svg>
