<svg width="324" height="81" viewBox="0 0 324 81" fill="none" xmlns="http://www.w3.org/2000/svg">
<path d="M0.76 79V1.23999H26.872C31.544 1.23999 35.384 2.13599 38.392 3.92799C41.4 5.65599 43.64 8.216 45.112 11.608C46.584 14.936 47.32 19 47.32 23.8C47.32 29.816 46.328 34.424 44.344 37.624C42.36 40.76 39.672 42.936 36.28 44.152C32.888 45.368 29.08 45.976 24.856 45.976H17.944V79H0.76ZM17.944 33.976H23.704C25.816 33.976 27.416 33.592 28.504 32.824C29.592 32.056 30.296 30.904 30.616 29.368C31 27.832 31.192 25.88 31.192 23.512C31.192 21.528 31.032 19.8 30.712 18.328C30.456 16.792 29.784 15.576 28.696 14.68C27.608 13.784 25.912 13.336 23.608 13.336H17.944V33.976ZM55.6038 79V1.23999H77.0118C82.2598 1.23999 86.8038 1.81599 90.6438 2.96799C94.4838 4.12 97.4598 6.2 99.5718 9.20799C101.748 12.152 102.836 16.344 102.836 21.784C102.836 24.984 102.58 27.832 102.068 30.328C101.556 32.824 100.596 35 99.1877 36.856C97.8438 38.648 95.8918 40.152 93.3318 41.368L103.988 79H86.2278L77.6838 44.152H72.7878V79H55.6038ZM72.7878 34.264H77.5878C80.0198 34.264 81.9078 33.848 83.2518 33.016C84.5958 32.12 85.5238 30.872 86.0358 29.272C86.6118 27.608 86.8998 25.624 86.8998 23.32C86.8998 19.992 86.2918 17.4 85.0758 15.544C83.8598 13.688 81.6198 12.76 78.3558 12.76H72.7878V34.264ZM113.262 79V1.23999H130.446V79H113.262ZM164.313 80.152C158.425 80.152 153.753 79.096 150.297 76.984C146.905 74.808 144.505 71.8 143.097 67.96C141.689 64.056 140.985 59.48 140.985 54.232V26.2C140.985 20.824 141.689 16.216 143.097 12.376C144.505 8.472 146.905 5.46399 150.297 3.352C153.753 1.24 158.425 0.183996 164.313 0.183996C170.073 0.183996 174.553 1.144 177.753 3.064C181.017 4.92 183.321 7.544 184.665 10.936C186.009 14.328 186.681 18.232 186.681 22.648V29.368H169.881V21.592C169.881 20.056 169.785 18.584 169.593 17.176C169.465 15.768 169.017 14.616 168.249 13.72C167.481 12.76 166.169 12.28 164.313 12.28C162.521 12.28 161.177 12.76 160.281 13.72C159.449 14.68 158.905 15.896 158.649 17.368C158.457 18.776 158.361 20.28 158.361 21.88V58.456C158.361 60.184 158.489 61.784 158.745 63.256C159.065 64.664 159.641 65.816 160.473 66.712C161.369 67.544 162.649 67.96 164.313 67.96C166.105 67.96 167.385 67.512 168.153 66.616C168.921 65.656 169.401 64.44 169.593 62.968C169.785 61.496 169.881 59.992 169.881 58.456V50.296H186.681V57.016C186.681 61.432 186.009 65.4 184.665 68.92C183.385 72.376 181.113 75.128 177.849 77.176C174.649 79.16 170.137 80.152 164.313 80.152ZM196.231 79V1.23999H213.415V79H196.231ZM225.01 79V1.23999H237.106L253.042 38.68V1.23999H267.25V79H255.634L239.698 38.68V79H225.01ZM299.079 80.152C293.703 80.152 289.447 79.032 286.311 76.792C283.239 74.552 281.031 71.416 279.687 67.384C278.407 63.288 277.767 58.584 277.767 53.272V27.16C277.767 21.656 278.471 16.888 279.879 12.856C281.287 8.824 283.687 5.72 287.079 3.544C290.535 1.304 295.207 0.183996 301.095 0.183996C306.855 0.183996 311.367 1.144 314.631 3.064C317.959 4.984 320.327 7.64 321.735 11.032C323.143 14.424 323.847 18.392 323.847 22.936V27.928H307.047V21.592C307.047 19.928 306.919 18.392 306.663 16.984C306.471 15.576 305.959 14.456 305.127 13.624C304.359 12.728 303.079 12.28 301.286 12.28C299.431 12.28 298.087 12.792 297.255 13.816C296.423 14.776 295.879 15.992 295.623 17.464C295.431 18.936 295.335 20.472 295.335 22.072V58.072C295.335 59.8 295.495 61.432 295.815 62.968C296.199 64.44 296.839 65.656 297.734 66.616C298.695 67.512 300.039 67.96 301.767 67.96C303.559 67.96 304.935 67.48 305.895 66.52C306.855 65.56 307.527 64.312 307.911 62.776C308.295 61.24 308.487 59.608 308.487 57.88V48.76H301.479V38.68H323.943V79H312.615L311.655 72.568C310.631 74.744 309.127 76.568 307.143 78.04C305.159 79.448 302.471 80.152 299.079 80.152Z" fill="black"/>
</svg>
