<svg width="1440" height="75" viewBox="0 0 1440 75" fill="none" xmlns="http://www.w3.org/2000/svg">
<path d="M1155.51 61V17.672H1147.7V9.16H1174.78V17.672H1167.03V61H1155.51ZM1179.34 61V9.16H1202.64V16.968H1190.8V29.832H1199.82V37.768H1190.8V53.256H1202.76V61H1179.34ZM1221.73 61.768C1218.48 61.768 1215.77 61.192 1213.6 60.04C1211.42 58.888 1209.78 57.1173 1208.67 54.728C1207.56 52.296 1206.94 49.16 1206.81 45.32L1216.61 43.848C1216.65 46.0667 1216.84 47.8587 1217.18 49.224C1217.57 50.5893 1218.08 51.5707 1218.72 52.168C1219.4 52.7653 1220.21 53.064 1221.15 53.064C1222.34 53.064 1223.11 52.6587 1223.45 51.848C1223.84 51.0373 1224.03 50.184 1224.03 49.288C1224.03 47.1547 1223.52 45.3627 1222.49 43.912C1221.47 42.4187 1220.08 40.9253 1218.33 39.432L1213.85 35.528C1211.89 33.864 1210.23 31.9867 1208.86 29.896C1207.54 27.7627 1206.88 25.1387 1206.88 22.024C1206.88 17.6293 1208.18 14.28 1210.78 11.976C1213.38 9.62933 1216.93 8.456 1221.41 8.456C1224.18 8.456 1226.4 8.92533 1228.06 9.864C1229.77 10.8027 1231.05 12.04 1231.9 13.576C1232.8 15.0693 1233.39 16.6693 1233.69 18.376C1234.03 20.04 1234.23 21.64 1234.27 23.176L1224.41 24.392C1224.37 22.856 1224.26 21.5333 1224.09 20.424C1223.97 19.272 1223.67 18.3973 1223.2 17.8C1222.73 17.16 1222 16.84 1221.02 16.84C1219.95 16.84 1219.17 17.288 1218.65 18.184C1218.18 19.08 1217.95 19.976 1217.95 20.872C1217.95 22.792 1218.4 24.3707 1219.29 25.608C1220.23 26.8027 1221.45 28.0613 1222.94 29.384L1227.23 33.16C1229.49 35.08 1231.39 37.256 1232.93 39.688C1234.5 42.12 1235.29 45.128 1235.29 48.712C1235.29 51.144 1234.74 53.3627 1233.63 55.368C1232.52 57.3307 1230.94 58.888 1228.89 60.04C1226.89 61.192 1224.5 61.768 1221.73 61.768ZM1245.51 61V17.672H1237.7V9.16H1264.78V17.672H1257.03V61H1245.51ZM1269.4 61V9.16H1280.86V61H1269.4ZM1288.4 61L1289.29 9.16H1301.58L1307.28 39.304L1313.42 9.16H1325.26L1326.16 61H1318.03L1317.07 26.504L1311.05 61H1303.82L1297.42 26.248L1296.65 61H1288.4ZM1348.5 61.768C1344.62 61.768 1341.55 61.0853 1339.28 59.72C1337.02 58.3547 1335.4 56.392 1334.42 53.832C1333.44 51.272 1332.95 48.2213 1332.95 44.68V25.416C1332.95 21.832 1333.44 18.7813 1334.42 16.264C1335.4 13.7467 1337.02 11.8267 1339.28 10.504C1341.55 9.13866 1344.62 8.456 1348.5 8.456C1352.43 8.456 1355.52 9.13866 1357.78 10.504C1360.08 11.8267 1361.73 13.7467 1362.71 16.264C1363.69 18.7813 1364.18 21.832 1364.18 25.416V44.68C1364.18 48.2213 1363.69 51.272 1362.71 53.832C1361.73 56.392 1360.08 58.3547 1357.78 59.72C1355.52 61.0853 1352.43 61.768 1348.5 61.768ZM1348.5 53.64C1349.7 53.64 1350.57 53.3413 1351.12 52.744C1351.68 52.1467 1352.04 51.3787 1352.21 50.44C1352.38 49.5013 1352.47 48.5413 1352.47 47.56V22.6C1352.47 21.576 1352.38 20.616 1352.21 19.72C1352.04 18.7813 1351.68 18.0133 1351.12 17.416C1350.57 16.8187 1349.7 16.52 1348.5 16.52C1347.39 16.52 1346.56 16.8187 1346 17.416C1345.45 18.0133 1345.09 18.7813 1344.92 19.72C1344.75 20.616 1344.66 21.576 1344.66 22.6V47.56C1344.66 48.5413 1344.72 49.5013 1344.85 50.44C1345.02 51.3787 1345.36 52.1467 1345.88 52.744C1346.43 53.3413 1347.31 53.64 1348.5 53.64ZM1371.15 61V9.16H1379.22L1389.84 34.12V9.16H1399.31V61H1391.57L1380.94 34.12V61H1371.15ZM1407.09 61V9.16H1418.55V61H1407.09ZM1423.78 61L1433.57 9.16H1446.63L1456.29 61H1445.73L1444.01 50.056H1436.39L1434.6 61H1423.78ZM1437.41 43.208H1442.92L1440.17 22.984L1437.41 43.208ZM1461.53 61V9.16H1472.98V53.256H1484.89V61H1461.53ZM1503.16 61.768C1499.92 61.768 1497.21 61.192 1495.03 60.04C1492.86 58.888 1491.22 57.1173 1490.11 54.728C1489 52.296 1488.38 49.16 1488.25 45.32L1498.04 43.848C1498.09 46.0667 1498.28 47.8587 1498.62 49.224C1499 50.5893 1499.51 51.5707 1500.15 52.168C1500.84 52.7653 1501.65 53.064 1502.59 53.064C1503.78 53.064 1504.55 52.6587 1504.89 51.848C1505.27 51.0373 1505.47 50.184 1505.47 49.288C1505.47 47.1547 1504.95 45.3627 1503.93 43.912C1502.91 42.4187 1501.52 40.9253 1499.77 39.432L1495.29 35.528C1493.33 33.864 1491.66 31.9867 1490.3 29.896C1488.98 27.7627 1488.31 25.1387 1488.31 22.024C1488.31 17.6293 1489.62 14.28 1492.22 11.976C1494.82 9.62933 1498.36 8.456 1502.84 8.456C1505.62 8.456 1507.83 8.92533 1509.5 9.864C1511.21 10.8027 1512.49 12.04 1513.34 13.576C1514.23 15.0693 1514.83 16.6693 1515.13 18.376C1515.47 20.04 1515.66 21.64 1515.71 23.176L1505.85 24.392C1505.81 22.856 1505.7 21.5333 1505.53 20.424C1505.4 19.272 1505.1 18.3973 1504.63 17.8C1504.17 17.16 1503.44 16.84 1502.46 16.84C1501.39 16.84 1500.6 17.288 1500.09 18.184C1499.62 19.08 1499.39 19.976 1499.39 20.872C1499.39 22.792 1499.83 24.3707 1500.73 25.608C1501.67 26.8027 1502.89 28.0613 1504.38 29.384L1508.67 33.16C1510.93 35.08 1512.83 37.256 1514.36 39.688C1515.94 42.12 1516.73 45.128 1516.73 48.712C1516.73 51.144 1516.18 53.3627 1515.07 55.368C1513.96 57.3307 1512.38 58.888 1510.33 60.04C1508.33 61.192 1505.94 61.768 1503.16 61.768Z" fill="black"/>
<path d="M767.512 61H766.512V62H767.512V61ZM767.512 17.672H768.512V16.672H767.512V17.672ZM759.704 17.672H758.704V18.672H759.704V17.672ZM759.704 9.16V8.16H758.704V9.16H759.704ZM786.776 9.16H787.776V8.16H786.776V9.16ZM786.776 17.672V18.672H787.776V17.672H786.776ZM779.032 17.672V16.672H778.032V17.672H779.032ZM779.032 61V62H780.032V61H779.032ZM768.512 61V17.672H766.512V61H768.512ZM767.512 16.672H759.704V18.672H767.512V16.672ZM760.704 17.672V9.16H758.704V17.672H760.704ZM759.704 10.16H786.776V8.16H759.704V10.16ZM785.776 9.16V17.672H787.776V9.16H785.776ZM786.776 16.672H779.032V18.672H786.776V16.672ZM778.032 17.672V61H780.032V17.672H778.032ZM779.032 60H767.512V62H779.032V60ZM791.34 61H790.34V62H791.34V61ZM791.34 9.16V8.16H790.34V9.16H791.34ZM814.636 9.16H815.636V8.16H814.636V9.16ZM814.636 16.968V17.968H815.636V16.968H814.636ZM802.796 16.968V15.968H801.796V16.968H802.796ZM802.796 29.832H801.796V30.832H802.796V29.832ZM811.82 29.832H812.82V28.832H811.82V29.832ZM811.82 37.768V38.768H812.82V37.768H811.82ZM802.796 37.768V36.768H801.796V37.768H802.796ZM802.796 53.256H801.796V54.256H802.796V53.256ZM814.764 53.256H815.764V52.256H814.764V53.256ZM814.764 61V62H815.764V61H814.764ZM792.34 61V9.16H790.34V61H792.34ZM791.34 10.16H814.636V8.16H791.34V10.16ZM813.636 9.16V16.968H815.636V9.16H813.636ZM814.636 15.968H802.796V17.968H814.636V15.968ZM801.796 16.968V29.832H803.796V16.968H801.796ZM802.796 30.832H811.82V28.832H802.796V30.832ZM810.82 29.832V37.768H812.82V29.832H810.82ZM811.82 36.768H802.796V38.768H811.82V36.768ZM801.796 37.768V53.256H803.796V37.768H801.796ZM802.796 54.256H814.764V52.256H802.796V54.256ZM813.764 53.256V61H815.764V53.256H813.764ZM814.764 60H791.34V62H814.764V60ZM825.597 60.04L825.129 60.9238L825.597 60.04ZM820.669 54.728L819.759 55.143L819.762 55.1491L820.669 54.728ZM818.813 45.32L818.664 44.3311L817.784 44.4635L817.814 45.3533L818.813 45.32ZM828.605 43.848L829.605 43.8288L829.583 42.6898L828.456 42.8591L828.605 43.848ZM829.181 49.224L828.211 49.4665L828.214 49.4807L828.218 49.4947L829.181 49.224ZM830.717 52.168L830.035 52.8991L830.046 52.91L830.058 52.9206L830.717 52.168ZM835.453 51.848L834.549 51.4199L834.54 51.4397L834.531 51.4599L835.453 51.848ZM834.493 43.912L833.668 44.4776L833.676 44.4887L834.493 43.912ZM830.333 39.432L829.676 40.1859L829.684 40.1926L830.333 39.432ZM825.853 35.528L826.51 34.774L826.5 34.7652L825.853 35.528ZM820.861 29.896L820.011 30.4229L820.017 30.4329L820.024 30.4428L820.861 29.896ZM822.781 11.976L823.444 12.7248L823.451 12.7187L822.781 11.976ZM840.061 9.864L839.57 10.735L839.579 10.7402L840.061 9.864ZM843.901 13.576L843.027 14.0616L843.035 14.0762L843.044 14.0905L843.901 13.576ZM845.693 18.376L844.708 18.5484L844.71 18.5627L844.713 18.5769L845.693 18.376ZM846.269 23.176L846.391 24.1685L847.294 24.0571L847.269 23.1482L846.269 23.176ZM836.413 24.392L835.413 24.4198L835.444 25.5191L836.535 25.3845L836.413 24.392ZM836.093 20.424L835.099 20.5344L835.101 20.5553L835.105 20.5761L836.093 20.424ZM835.197 17.8L834.391 18.3914L834.4 18.4048L834.411 18.4178L835.197 17.8ZM830.653 18.184L829.785 17.6879L829.776 17.7038L829.767 17.72L830.653 18.184ZM831.293 25.608L830.483 26.1945L830.495 26.2104L830.507 26.2258L831.293 25.608ZM834.941 29.384L834.278 30.1326L834.28 30.1345L834.941 29.384ZM839.229 33.16L838.568 33.9105L838.575 33.9165L838.582 33.9223L839.229 33.16ZM844.925 39.688L844.079 40.222L844.086 40.2325L844.925 39.688ZM845.629 55.368L846.5 55.8601L846.504 55.8521L845.629 55.368ZM840.893 60.04L840.403 59.1684L840.395 59.1729L840.893 60.04ZM833.725 60.768C830.596 60.768 828.058 60.2116 826.065 59.1562L825.129 60.9238C827.488 62.1724 830.369 62.768 833.725 62.768V60.768ZM826.065 59.1562C824.096 58.1137 822.6 56.5129 821.576 54.3069L819.762 55.1491C820.956 57.7217 822.746 59.6623 825.129 60.9238L826.065 59.1562ZM821.579 54.313C820.543 52.0414 819.938 49.0479 819.812 45.2867L817.814 45.3533C817.944 49.2721 818.577 52.5506 819.759 55.143L821.579 54.313ZM818.962 46.3089L828.754 44.8369L828.456 42.8591L818.664 44.3311L818.962 46.3089ZM827.605 43.8672C827.649 46.1234 827.844 47.9988 828.211 49.4665L830.151 48.9815C829.835 47.7185 829.647 46.01 829.605 43.8288L827.605 43.8672ZM828.218 49.4947C828.624 50.9378 829.202 52.1218 830.035 52.8991L831.399 51.4369C830.952 51.0196 830.506 50.2409 830.144 48.9533L828.218 49.4947ZM830.058 52.9206C830.93 53.6834 831.977 54.064 833.149 54.064V52.064C832.443 52.064 831.869 51.8473 831.376 51.4154L830.058 52.9206ZM833.149 54.064C833.851 54.064 834.516 53.9461 835.088 53.6444C835.679 53.3323 836.116 52.8514 836.375 52.2361L834.531 51.4599C834.449 51.6552 834.331 51.7824 834.154 51.8756C833.958 51.9792 833.642 52.064 833.149 52.064V54.064ZM836.357 52.2761C836.804 51.3318 837.029 50.3322 837.029 49.288H835.029C835.029 50.0358 834.87 50.7429 834.549 51.4199L836.357 52.2761ZM837.029 49.288C837.029 46.9906 836.475 44.9864 835.31 43.3353L833.676 44.4887C834.559 45.739 835.029 47.3187 835.029 49.288H837.029ZM835.318 43.3465C834.233 41.7643 832.781 40.2072 830.982 38.6714L829.684 40.1926C831.383 41.6434 832.705 43.0731 833.668 44.4775L835.318 43.3465ZM830.99 38.6781L826.51 34.7741L825.196 36.2819L829.676 40.1859L830.99 38.6781ZM826.5 34.7652C824.608 33.1617 823.009 31.3566 821.698 29.3492L820.024 30.4428C821.443 32.6167 823.172 34.5663 825.206 36.2908L826.5 34.7652ZM821.711 29.3691C820.508 27.4281 819.877 24.9972 819.877 22.024H817.877C817.877 25.2802 818.569 28.0972 820.011 30.4229L821.711 29.3691ZM819.877 22.024C819.877 17.8345 821.11 14.7911 823.444 12.7248L822.118 11.2272C819.247 13.7689 817.877 17.4242 817.877 22.024H819.877ZM823.451 12.7187C825.823 10.5798 829.101 9.456 833.405 9.456V7.456C828.749 7.456 824.944 8.67888 822.111 11.2333L823.451 12.7187ZM833.405 9.456C836.079 9.456 838.108 9.9106 839.57 10.735L840.552 8.99302C838.686 7.94006 836.278 7.456 833.405 7.456V9.456ZM839.579 10.7402C841.139 11.5984 842.275 12.7077 843.027 14.0616L844.775 13.0904C843.821 11.3723 842.396 10.007 840.543 8.98778L839.579 10.7402ZM843.044 14.0905C843.877 15.4791 844.431 16.9632 844.708 18.5484L846.678 18.2036C846.358 16.3754 845.717 14.6595 844.758 13.0615L843.044 14.0905ZM844.713 18.5769C845.044 20.1898 845.228 21.7317 845.269 23.2038L847.269 23.1482C847.224 21.5483 847.024 19.8902 846.673 18.1751L844.713 18.5769ZM846.147 22.1835L836.291 23.3995L836.535 25.3845L846.391 24.1685L846.147 22.1835ZM837.413 24.3642C837.369 22.8006 837.26 21.4343 837.081 20.2719L835.105 20.5761C835.267 21.6324 835.371 22.9114 835.413 24.4198L837.413 24.3642ZM837.087 20.3136C836.948 19.0665 836.613 17.9839 835.983 17.1822L834.411 18.4178C834.719 18.8108 834.982 19.4775 835.099 20.5344L837.087 20.3136ZM836.003 17.2086C835.301 16.2507 834.237 15.84 833.021 15.84V17.84C833.768 17.84 834.154 18.0693 834.391 18.3914L836.003 17.2086ZM833.021 15.84C831.61 15.84 830.482 16.4675 829.785 17.6879L831.521 18.6801C831.848 18.1084 832.298 17.84 833.021 17.84V15.84ZM829.767 17.72C829.233 18.7405 828.949 19.7945 828.949 20.872H830.949C830.949 20.1575 831.135 19.4195 831.539 18.648L829.767 17.72ZM828.949 20.872C828.949 22.9481 829.435 24.7471 830.483 26.1945L832.103 25.0215C831.359 23.9942 830.949 22.6359 830.949 20.872H828.949ZM830.507 26.2258C831.492 27.4797 832.753 28.7817 834.278 30.1326L835.604 28.6354C834.143 27.341 832.971 26.1257 832.079 24.9902L830.507 26.2258ZM834.28 30.1345L838.568 33.9105L839.89 32.4095L835.602 28.6335L834.28 30.1345ZM838.582 33.9223C840.768 35.7788 842.599 37.8784 844.08 40.222L845.77 39.154C844.179 36.6336 842.212 34.3812 839.876 32.3977L838.582 33.9223ZM844.086 40.2325C845.537 42.4678 846.293 45.2755 846.293 48.712H848.293C848.293 44.9805 847.47 41.7722 845.764 39.1435L844.086 40.2325ZM846.293 48.712C846.293 50.9854 845.776 53.0359 844.754 54.8839L846.504 55.8521C847.7 53.6895 848.293 51.3026 848.293 48.712H846.293ZM844.758 54.8759C843.743 56.6729 842.299 58.1019 840.403 59.1684L841.383 60.9116C843.583 59.6741 845.297 57.9884 846.5 55.8601L844.758 54.8759ZM840.395 59.1729C838.569 60.222 836.358 60.768 833.725 60.768V62.768C836.638 62.768 839.207 62.162 841.391 60.9071L840.395 59.1729ZM857.512 61H856.512V62H857.512V61ZM857.512 17.672H858.512V16.672H857.512V17.672ZM849.704 17.672H848.704V18.672H849.704V17.672ZM849.704 9.16V8.16H848.704V9.16H849.704ZM876.776 9.16H877.776V8.16H876.776V9.16ZM876.776 17.672V18.672H877.776V17.672H876.776ZM869.032 17.672V16.672H868.032V17.672H869.032ZM869.032 61V62H870.032V61H869.032ZM858.512 61V17.672H856.512V61H858.512ZM857.512 16.672H849.704V18.672H857.512V16.672ZM850.704 17.672V9.16H848.704V17.672H850.704ZM849.704 10.16H876.776V8.16H849.704V10.16ZM875.776 9.16V17.672H877.776V9.16H875.776ZM876.776 16.672H869.032V18.672H876.776V16.672ZM868.032 17.672V61H870.032V17.672H868.032ZM869.032 60H857.512V62H869.032V60ZM881.404 61H880.404V62H881.404V61ZM881.404 9.16V8.16H880.404V9.16H881.404ZM892.86 9.16H893.86V8.16H892.86V9.16ZM892.86 61V62H893.86V61H892.86ZM882.404 61V9.16H880.404V61H882.404ZM881.404 10.16H892.86V8.16H881.404V10.16ZM891.86 9.16V61H893.86V9.16H891.86ZM892.86 60H881.404V62H892.86V60ZM900.398 61L899.398 60.9827L899.381 62H900.398V61ZM901.294 9.16V8.16H900.311L900.294 9.14271L901.294 9.16ZM913.582 9.16L914.565 8.97432L914.411 8.16H913.582V9.16ZM919.278 39.304L918.295 39.4897L920.258 39.5037L919.278 39.304ZM925.422 9.16V8.16H924.605L924.442 8.96028L925.422 9.16ZM937.262 9.16L938.262 9.14271L938.245 8.16H937.262V9.16ZM938.158 61V62H939.175L939.158 60.9827L938.158 61ZM930.03 61L929.03 61.0278L929.057 62H930.03V61ZM929.07 26.504L930.07 26.4762L928.085 26.3322L929.07 26.504ZM923.054 61V62H923.895L924.039 61.1718L923.054 61ZM915.822 61L914.839 61.1811L914.989 62H915.822V61ZM909.422 26.248L910.405 26.0669L908.422 26.2259L909.422 26.248ZM908.654 61V62H909.632L909.654 61.0221L908.654 61ZM901.398 61.0173L902.294 9.17728L900.294 9.14271L899.398 60.9827L901.398 61.0173ZM901.294 10.16H913.582V8.16H901.294V10.16ZM912.599 9.34567L918.295 39.4897L920.261 39.1183L914.565 8.97432L912.599 9.34567ZM920.258 39.5037L926.402 9.35971L924.442 8.96028L918.298 39.1043L920.258 39.5037ZM925.422 10.16H937.262V8.16H925.422V10.16ZM936.262 9.17728L937.158 61.0173L939.158 60.9827L938.262 9.14271L936.262 9.17728ZM938.158 60H930.03V62H938.158V60ZM931.03 60.9722L930.07 26.4762L928.07 26.5318L929.03 61.0278L931.03 60.9722ZM928.085 26.3322L922.069 60.8282L924.039 61.1718L930.055 26.6758L928.085 26.3322ZM923.054 60H915.822V62H923.054V60ZM916.805 60.8189L910.405 26.0669L908.439 26.4291L914.839 61.1811L916.805 60.8189ZM908.422 26.2259L907.654 60.9779L909.654 61.0221L910.422 26.2701L908.422 26.2259ZM908.654 60H900.398V62H908.654V60ZM951.285 59.72L950.768 60.5761L951.285 59.72ZM946.421 16.264L945.489 15.9008V15.9008L946.421 16.264ZM951.285 10.504L951.789 11.3673L951.801 11.3601L951.285 10.504ZM969.781 10.504L969.264 11.3601L969.273 11.3658L969.283 11.3713L969.781 10.504ZM974.708 16.264L973.777 16.6272L974.708 16.264ZM974.708 53.832L973.775 53.4741L974.708 53.832ZM969.781 59.72L969.271 58.8597L969.264 58.8639L969.781 59.72ZM963.124 52.744L962.392 52.0635L963.124 52.744ZM964.212 50.44L965.196 50.6189L964.212 50.44ZM964.212 19.72L963.229 19.8989L963.23 19.9071L964.212 19.72ZM963.124 17.416L962.392 18.0964V18.0964L963.124 17.416ZM958.005 17.416L958.737 18.0964V18.0964L958.005 17.416ZM956.917 19.72L957.899 19.9071L957.9 19.8989L956.917 19.72ZM956.853 50.44L955.862 50.5751L955.865 50.5971L955.869 50.6189L956.853 50.44ZM957.876 52.744L957.117 53.3948L957.13 53.4099L957.144 53.4244L957.876 52.744ZM960.501 60.768C956.72 60.768 953.85 60.1009 951.801 58.8639L950.768 60.5761C953.242 62.0698 956.516 62.768 960.501 62.768V60.768ZM951.801 58.8639C949.738 57.6182 948.259 55.8347 947.354 53.4741L945.487 54.1899C946.544 56.9493 948.308 59.0911 950.768 60.5761L951.801 58.8639ZM947.354 53.4741C946.427 51.0562 945.949 48.1329 945.949 44.68H943.949C943.949 48.3097 944.451 51.4878 945.487 54.1899L947.354 53.4741ZM945.949 44.68V25.416H943.949V44.68H945.949ZM945.949 25.416C945.949 21.918 946.428 18.9978 947.352 16.6272L945.489 15.9008C944.45 18.5649 943.949 21.746 943.949 25.416H945.949ZM947.352 16.6272C948.254 14.3128 949.729 12.5723 951.789 11.3672L950.78 9.64081C948.317 11.0811 946.549 13.1806 945.489 15.9008L947.352 16.6272ZM951.801 11.3601C953.85 10.1231 956.72 9.456 960.501 9.456V7.456C956.516 7.456 953.242 8.15419 950.768 9.64793L951.801 11.3601ZM960.501 9.456C964.326 9.456 967.216 10.124 969.264 11.3601L970.297 9.64793C967.822 8.15334 964.525 7.456 960.501 7.456V9.456ZM969.283 11.3713C971.385 12.5782 972.877 14.3185 973.777 16.6272L975.64 15.9008C974.578 13.1748 972.784 11.0751 970.278 9.63674L969.283 11.3713ZM973.777 16.6272C974.701 18.9978 975.18 21.918 975.18 25.416H977.18C977.18 21.746 976.679 18.5649 975.64 15.9008L973.777 16.6272ZM975.18 25.416V44.68H977.18V25.416H975.18ZM975.18 44.68C975.18 48.1329 974.702 51.0562 973.775 53.4741L975.642 54.1899C976.678 51.4878 977.18 48.3097 977.18 44.68H975.18ZM973.775 53.4741C972.872 55.829 971.376 57.6122 969.271 58.8597L970.29 60.5803C972.793 59.0971 974.582 56.955 975.642 54.1899L973.775 53.4741ZM969.264 58.8639C967.216 60.1 964.326 60.768 960.501 60.768V62.768C964.525 62.768 967.822 62.0707 970.297 60.5761L969.264 58.8639ZM960.501 54.64C961.843 54.64 963.04 54.3048 963.857 53.4244L962.392 52.0635C962.1 52.3779 961.548 52.64 960.501 52.64V54.64ZM963.857 53.4244C964.563 52.6649 964.997 51.7127 965.196 50.6189L963.229 50.2611C963.086 51.0446 962.796 51.6285 962.392 52.0635L963.857 53.4244ZM965.196 50.6189C965.378 49.6195 965.469 48.5996 965.469 47.56H963.469C963.469 48.4831 963.388 49.3831 963.229 50.2611L965.196 50.6189ZM965.469 47.56V22.6H963.469V47.56H965.469ZM965.469 22.6C965.469 21.5207 965.379 20.4975 965.195 19.5329L963.23 19.9071C963.388 20.7345 963.469 21.6313 963.469 22.6H965.469ZM965.196 19.5411C964.997 18.4473 964.563 17.4951 963.857 16.7355L962.392 18.0964C962.796 18.5315 963.086 19.1154 963.229 19.8989L965.196 19.5411ZM963.857 16.7355C963.04 15.8552 961.843 15.52 960.501 15.52V17.52C961.548 17.52 962.1 17.7821 962.392 18.0964L963.857 16.7355ZM960.501 15.52C959.217 15.52 958.076 15.869 957.272 16.7355L958.737 18.0964C959.042 17.7684 959.565 17.52 960.501 17.52V15.52ZM957.272 16.7355C956.566 17.4951 956.132 18.4473 955.933 19.5411L957.9 19.8989C958.043 19.1154 958.333 18.5315 958.737 18.0964L957.272 16.7355ZM955.934 19.5329C955.75 20.4975 955.661 21.5207 955.661 22.6H957.661C957.661 21.6313 957.741 20.7345 957.899 19.9071L955.934 19.5329ZM955.661 22.6V47.56H957.661V22.6H955.661ZM955.661 47.56C955.661 48.5849 955.727 49.5901 955.862 50.5751L957.843 50.3049C957.722 49.4126 957.661 48.4978 957.661 47.56H955.661ZM955.869 50.6189C956.064 51.6949 956.468 52.6369 957.117 53.3948L958.636 52.0932C958.261 51.6565 957.982 51.0624 957.836 50.2611L955.869 50.6189ZM957.144 53.4244C957.961 54.3048 959.158 54.64 960.501 54.64V52.64C959.453 52.64 958.901 52.3779 958.609 52.0635L957.144 53.4244ZM983.152 61H982.152V62H983.152V61ZM983.152 9.16V8.16H982.152V9.16H983.152ZM991.217 9.16L992.137 8.76836L991.878 8.16H991.217V9.16ZM1001.84 34.12L1000.92 34.5116L1002.84 34.12H1001.84ZM1001.84 9.16V8.16H1000.84V9.16H1001.84ZM1011.31 9.16H1012.31V8.16H1011.31V9.16ZM1011.31 61V62H1012.31V61H1011.31ZM1003.57 61L1002.64 61.3676L1002.89 62H1003.57V61ZM992.945 34.12L993.874 33.7524L991.945 34.12H992.945ZM992.945 61V62H993.945V61H992.945ZM984.152 61V9.16H982.152V61H984.152ZM983.152 10.16H991.217V8.16H983.152V10.16ZM990.296 9.55164L1000.92 34.5116L1002.76 33.7284L992.137 8.76836L990.296 9.55164ZM1002.84 34.12V9.16H1000.84V34.12H1002.84ZM1001.84 10.16H1011.31V8.16H1001.84V10.16ZM1010.31 9.16V61H1012.31V9.16H1010.31ZM1011.31 60H1003.57V62H1011.31V60ZM1004.5 60.6324L993.874 33.7524L992.015 34.4876L1002.64 61.3676L1004.5 60.6324ZM991.945 34.12V61H993.945V34.12H991.945ZM992.945 60H983.152V62H992.945V60ZM1019.09 61H1018.09V62H1019.09V61ZM1019.09 9.16V8.16H1018.09V9.16H1019.09ZM1030.55 9.16H1031.55V8.16H1030.55V9.16ZM1030.55 61V62H1031.55V61H1030.55ZM1020.09 61V9.16H1018.09V61H1020.09ZM1019.09 10.16H1030.55V8.16H1019.09V10.16ZM1029.55 9.16V61H1031.55V9.16H1029.55ZM1030.55 60H1019.09V62H1030.55V60ZM1035.78 61L1034.8 60.8144L1034.57 62H1035.78V61ZM1045.57 9.16V8.16H1044.74L1044.59 8.97439L1045.57 9.16ZM1058.63 9.16L1059.61 8.97673L1059.46 8.16H1058.63V9.16ZM1068.29 61V62H1069.5L1069.28 60.8167L1068.29 61ZM1057.73 61L1056.75 61.156L1056.88 62H1057.73V61ZM1056.01 50.056L1056.99 49.9L1056.86 49.056H1056.01V50.056ZM1048.39 50.056V49.056H1047.54L1047.4 49.8944L1048.39 50.056ZM1046.6 61V62H1047.45L1047.58 61.1616L1046.6 61ZM1049.41 43.208L1048.42 43.0732L1048.27 44.208H1049.41V43.208ZM1054.92 43.208V44.208H1056.06L1055.91 43.0732L1054.92 43.208ZM1052.17 22.984L1053.16 22.8492L1051.17 22.8492L1052.17 22.984ZM1036.76 61.1856L1046.56 9.3456L1044.59 8.97439L1034.8 60.8144L1036.76 61.1856ZM1045.57 10.16H1058.63V8.16H1045.57V10.16ZM1057.65 9.34326L1067.31 61.1833L1069.28 60.8167L1059.61 8.97673L1057.65 9.34326ZM1068.29 60H1057.73V62H1068.29V60ZM1058.72 60.844L1056.99 49.9L1055.02 50.212L1056.75 61.156L1058.72 60.844ZM1056.01 49.056H1048.39V51.056H1056.01V49.056ZM1047.4 49.8944L1045.61 60.8384L1047.58 61.1616L1049.38 50.2176L1047.4 49.8944ZM1046.6 60H1035.78V62H1046.6V60ZM1049.41 44.208H1054.92V42.208H1049.41V44.208ZM1055.91 43.0732L1053.16 22.8492L1051.17 23.1188L1053.93 43.3428L1055.91 43.0732ZM1051.17 22.8492L1048.42 43.0732L1050.4 43.3428L1053.16 23.1188L1051.17 22.8492ZM1073.53 61H1072.53V62H1073.53V61ZM1073.53 9.16V8.16H1072.53V9.16H1073.53ZM1084.98 9.16H1085.98V8.16H1084.98V9.16ZM1084.98 53.256H1083.98V54.256H1084.98V53.256ZM1096.89 53.256H1097.89V52.256H1096.89V53.256ZM1096.89 61V62H1097.89V61H1096.89ZM1074.53 61V9.16H1072.53V61H1074.53ZM1073.53 10.16H1084.98V8.16H1073.53V10.16ZM1083.98 9.16V53.256H1085.98V9.16H1083.98ZM1084.98 54.256H1096.89V52.256H1084.98V54.256ZM1095.89 53.256V61H1097.89V53.256H1095.89ZM1096.89 60H1073.53V62H1096.89V60ZM1107.03 60.04L1106.57 60.9238L1107.03 60.04ZM1102.11 54.728L1101.2 55.143L1101.2 55.1491L1102.11 54.728ZM1100.25 45.32L1100.1 44.3311L1099.22 44.4635L1099.25 45.3533L1100.25 45.32ZM1110.04 43.848L1111.04 43.8288L1111.02 42.6898L1109.89 42.8591L1110.04 43.848ZM1110.62 49.224L1109.65 49.4665L1109.65 49.4807L1109.66 49.4947L1110.62 49.224ZM1112.15 52.168L1111.47 52.8991L1111.48 52.91L1111.5 52.9206L1112.15 52.168ZM1116.89 51.848L1115.99 51.4199L1115.98 51.4397L1115.97 51.4599L1116.89 51.848ZM1115.93 43.912L1115.11 44.4776L1115.11 44.4887L1115.93 43.912ZM1111.77 39.432L1111.11 40.1859L1111.12 40.1926L1111.77 39.432ZM1107.29 35.528L1107.95 34.774L1107.94 34.7652L1107.29 35.528ZM1102.3 29.896L1101.45 30.4229L1101.45 30.4329L1101.46 30.4428L1102.3 29.896ZM1104.22 11.976L1104.88 12.7248L1104.89 12.7187L1104.22 11.976ZM1121.5 9.864L1121.01 10.735L1121.02 10.7402L1121.5 9.864ZM1125.34 13.576L1124.46 14.0616L1124.47 14.0762L1124.48 14.0905L1125.34 13.576ZM1127.13 18.376L1126.15 18.5484L1126.15 18.5627L1126.15 18.5769L1127.13 18.376ZM1127.71 23.176L1127.83 24.1685L1128.73 24.0571L1128.71 23.1482L1127.71 23.176ZM1117.85 24.392L1116.85 24.4198L1116.88 25.5191L1117.97 25.3845L1117.85 24.392ZM1117.53 20.424L1116.54 20.5344L1116.54 20.5553L1116.54 20.5761L1117.53 20.424ZM1116.63 17.8L1115.83 18.3914L1115.84 18.4048L1115.85 18.4178L1116.63 17.8ZM1112.09 18.184L1111.22 17.6879L1111.21 17.7038L1111.2 17.72L1112.09 18.184ZM1112.73 25.608L1111.92 26.1945L1111.93 26.2104L1111.94 26.2258L1112.73 25.608ZM1116.38 29.384L1115.72 30.1326L1115.72 30.1345L1116.38 29.384ZM1120.67 33.16L1120.01 33.9105L1120.01 33.9165L1120.02 33.9223L1120.67 33.16ZM1126.36 39.688L1125.52 40.222L1125.52 40.2325L1126.36 39.688ZM1127.07 55.368L1127.94 55.8601L1127.94 55.8521L1127.07 55.368ZM1122.33 60.04L1121.84 59.1684L1121.83 59.1729L1122.33 60.04ZM1115.16 60.768C1112.03 60.768 1109.5 60.2116 1107.5 59.1562L1106.57 60.9238C1108.93 62.1724 1111.81 62.768 1115.16 62.768V60.768ZM1107.5 59.1562C1105.53 58.1137 1104.04 56.5129 1103.01 54.3069L1101.2 55.1491C1102.39 57.7217 1104.18 59.6623 1106.57 60.9238L1107.5 59.1562ZM1103.02 54.313C1101.98 52.0414 1101.38 49.0479 1101.25 45.2867L1099.25 45.3533C1099.38 49.2721 1100.01 52.5506 1101.2 55.143L1103.02 54.313ZM1100.4 46.3089L1110.19 44.8369L1109.89 42.8591L1100.1 44.3311L1100.4 46.3089ZM1109.04 43.8672C1109.09 46.1234 1109.28 47.9988 1109.65 49.4665L1111.59 48.9815C1111.27 47.7185 1111.08 46.01 1111.04 43.8288L1109.04 43.8672ZM1109.66 49.4947C1110.06 50.9378 1110.64 52.1218 1111.47 52.8991L1112.84 51.4369C1112.39 51.0196 1111.94 50.2409 1111.58 48.9533L1109.66 49.4947ZM1111.5 52.9206C1112.37 53.6834 1113.41 54.064 1114.59 54.064V52.064C1113.88 52.064 1113.31 51.8473 1112.81 51.4154L1111.5 52.9206ZM1114.59 54.064C1115.29 54.064 1115.95 53.9461 1116.53 53.6444C1117.12 53.3323 1117.55 52.8514 1117.81 52.2361L1115.97 51.4599C1115.89 51.6552 1115.77 51.7824 1115.59 51.8756C1115.4 51.9792 1115.08 52.064 1114.59 52.064V54.064ZM1117.79 52.2761C1118.24 51.3318 1118.47 50.3322 1118.47 49.288H1116.47C1116.47 50.0358 1116.31 50.7429 1115.99 51.4199L1117.79 52.2761ZM1118.47 49.288C1118.47 46.9906 1117.91 44.9864 1116.75 43.3353L1115.11 44.4887C1116 45.739 1116.47 47.3187 1116.47 49.288H1118.47ZM1116.76 43.3465C1115.67 41.7643 1114.22 40.2072 1112.42 38.6714L1111.12 40.1926C1112.82 41.6434 1114.14 43.0731 1115.11 44.4775L1116.76 43.3465ZM1112.43 38.6781L1107.95 34.7741L1106.63 36.2819L1111.11 40.1859L1112.43 38.6781ZM1107.94 34.7652C1106.05 33.1617 1104.45 31.3566 1103.14 29.3492L1101.46 30.4428C1102.88 32.6167 1104.61 34.5663 1106.64 36.2908L1107.94 34.7652ZM1103.15 29.3691C1101.95 27.4281 1101.31 24.9972 1101.31 22.024H1099.31C1099.31 25.2802 1100.01 28.0972 1101.45 30.4229L1103.15 29.3691ZM1101.31 22.024C1101.31 17.8345 1102.55 14.7911 1104.88 12.7248L1103.56 11.2272C1100.68 13.7689 1099.31 17.4242 1099.31 22.024H1101.31ZM1104.89 12.7187C1107.26 10.5798 1110.54 9.456 1114.84 9.456V7.456C1110.19 7.456 1106.38 8.67888 1103.55 11.2333L1104.89 12.7187ZM1114.84 9.456C1117.52 9.456 1119.55 9.9106 1121.01 10.735L1121.99 8.99302C1120.12 7.94006 1117.72 7.456 1114.84 7.456V9.456ZM1121.02 10.7402C1122.58 11.5984 1123.71 12.7077 1124.46 14.0616L1126.21 13.0904C1125.26 11.3723 1123.83 10.007 1121.98 8.98778L1121.02 10.7402ZM1124.48 14.0905C1125.31 15.4791 1125.87 16.9632 1126.15 18.5484L1128.12 18.2036C1127.8 16.3754 1127.15 14.6595 1126.2 13.0615L1124.48 14.0905ZM1126.15 18.5769C1126.48 20.1898 1126.67 21.7317 1126.71 23.2038L1128.71 23.1482C1128.66 21.5483 1128.46 19.8902 1128.11 18.1751L1126.15 18.5769ZM1127.58 22.1835L1117.73 23.3995L1117.97 25.3845L1127.83 24.1685L1127.58 22.1835ZM1118.85 24.3642C1118.81 22.8006 1118.7 21.4343 1118.52 20.2719L1116.54 20.5761C1116.7 21.6324 1116.81 22.9114 1116.85 24.4198L1118.85 24.3642ZM1118.52 20.3136C1118.39 19.0665 1118.05 17.9839 1117.42 17.1822L1115.85 18.4178C1116.16 18.8108 1116.42 19.4775 1116.54 20.5344L1118.52 20.3136ZM1117.44 17.2086C1116.74 16.2507 1115.67 15.84 1114.46 15.84V17.84C1115.21 17.84 1115.59 18.0693 1115.83 18.3914L1117.44 17.2086ZM1114.46 15.84C1113.05 15.84 1111.92 16.4675 1111.22 17.6879L1112.96 18.6801C1113.29 18.1084 1113.74 17.84 1114.46 17.84V15.84ZM1111.2 17.72C1110.67 18.7405 1110.39 19.7945 1110.39 20.872H1112.39C1112.39 20.1575 1112.57 19.4195 1112.98 18.648L1111.2 17.72ZM1110.39 20.872C1110.39 22.9481 1110.87 24.7471 1111.92 26.1945L1113.54 25.0215C1112.8 23.9942 1112.39 22.6359 1112.39 20.872H1110.39ZM1111.94 26.2258C1112.93 27.4797 1114.19 28.7817 1115.72 30.1326L1117.04 28.6354C1115.58 27.341 1114.41 26.1257 1113.52 24.9902L1111.94 26.2258ZM1115.72 30.1345L1120.01 33.9105L1121.33 32.4095L1117.04 28.6335L1115.72 30.1345ZM1120.02 33.9223C1122.21 35.7788 1124.04 37.8784 1125.52 40.222L1127.21 39.154C1125.62 36.6336 1123.65 34.3812 1121.31 32.3977L1120.02 33.9223ZM1125.52 40.2325C1126.97 42.4678 1127.73 45.2755 1127.73 48.712H1129.73C1129.73 44.9805 1128.91 41.7722 1127.2 39.1435L1125.52 40.2325ZM1127.73 48.712C1127.73 50.9854 1127.21 53.0359 1126.19 54.8839L1127.94 55.8521C1129.14 53.6895 1129.73 51.3026 1129.73 48.712H1127.73ZM1126.2 54.8759C1125.18 56.6729 1123.74 58.1019 1121.84 59.1684L1122.82 60.9116C1125.02 59.6741 1126.73 57.9884 1127.94 55.8601L1126.2 54.8759ZM1121.83 59.1729C1120.01 60.222 1117.8 60.768 1115.16 60.768V62.768C1118.08 62.768 1120.64 62.162 1122.83 60.9071L1121.83 59.1729Z" fill="black"/>
<path d="M-8.488 64H-9.488V65H-8.488V64ZM-8.488 20.672H-7.488V19.672H-8.488V20.672ZM-16.296 20.672H-17.296V21.672H-16.296V20.672ZM-16.296 12.16V11.16H-17.296V12.16H-16.296ZM10.776 12.16H11.776V11.16H10.776V12.16ZM10.776 20.672V21.672H11.776V20.672H10.776ZM3.032 20.672V19.672H2.032V20.672H3.032ZM3.032 64V65H4.032V64H3.032ZM-7.488 64V20.672H-9.488V64H-7.488ZM-8.488 19.672H-16.296V21.672H-8.488V19.672ZM-15.296 20.672V12.16H-17.296V20.672H-15.296ZM-16.296 13.16H10.776V11.16H-16.296V13.16ZM9.776 12.16V20.672H11.776V12.16H9.776ZM10.776 19.672H3.032V21.672H10.776V19.672ZM2.032 20.672V64H4.032V20.672H2.032ZM3.032 63H-8.488V65H3.032V63ZM15.34 64H14.34V65H15.34V64ZM15.34 12.16V11.16H14.34V12.16H15.34ZM38.636 12.16H39.636V11.16H38.636V12.16ZM38.636 19.968V20.968H39.636V19.968H38.636ZM26.796 19.968V18.968H25.796V19.968H26.796ZM26.796 32.832H25.796V33.832H26.796V32.832ZM35.82 32.832H36.82V31.832H35.82V32.832ZM35.82 40.768V41.768H36.82V40.768H35.82ZM26.796 40.768V39.768H25.796V40.768H26.796ZM26.796 56.256H25.796V57.256H26.796V56.256ZM38.764 56.256H39.764V55.256H38.764V56.256ZM38.764 64V65H39.764V64H38.764ZM16.34 64V12.16H14.34V64H16.34ZM15.34 13.16H38.636V11.16H15.34V13.16ZM37.636 12.16V19.968H39.636V12.16H37.636ZM38.636 18.968H26.796V20.968H38.636V18.968ZM25.796 19.968V32.832H27.796V19.968H25.796ZM26.796 33.832H35.82V31.832H26.796V33.832ZM34.82 32.832V40.768H36.82V32.832H34.82ZM35.82 39.768H26.796V41.768H35.82V39.768ZM25.796 40.768V56.256H27.796V40.768H25.796ZM26.796 57.256H38.764V55.256H26.796V57.256ZM37.764 56.256V64H39.764V56.256H37.764ZM38.764 63H15.34V65H38.764V63ZM49.597 63.04L49.1291 63.9238L49.597 63.04ZM44.669 57.728L43.7592 58.143L43.762 58.1491L44.669 57.728ZM42.813 48.32L42.6643 47.3311L41.7839 47.4635L41.8136 48.3533L42.813 48.32ZM52.605 46.848L53.6048 46.8288L53.5829 45.6898L52.4563 45.8591L52.605 46.848ZM53.181 52.224L52.2109 52.4665L52.2144 52.4807L52.2184 52.4947L53.181 52.224ZM54.717 55.168L54.0347 55.8991L54.0464 55.91L54.0585 55.9206L54.717 55.168ZM59.453 54.848L58.5493 54.4199L58.5399 54.4397L58.5314 54.4599L59.453 54.848ZM58.493 46.912L57.6682 47.4776L57.676 47.4887L58.493 46.912ZM54.333 42.432L53.676 43.1859L53.6837 43.1926L54.333 42.432ZM49.853 38.528L50.51 37.774L50.4997 37.7652L49.853 38.528ZM44.861 32.896L44.0111 33.4229L44.0173 33.4329L44.0237 33.4428L44.861 32.896ZM46.781 14.976L47.4439 15.7248L47.4506 15.7187L46.781 14.976ZM64.061 12.864L63.5696 13.735L63.5791 13.7402L64.061 12.864ZM67.901 16.576L67.0268 17.0616L67.0349 17.0762L67.0435 17.0905L67.901 16.576ZM69.693 21.376L68.708 21.5484L68.7105 21.5627L68.7134 21.5769L69.693 21.376ZM70.269 26.176L70.3914 27.1685L71.2939 27.0571L71.2686 26.1482L70.269 26.176ZM60.413 27.392L59.4134 27.4198L59.4439 28.5191L60.5354 28.3845L60.413 27.392ZM60.093 23.424L59.0991 23.5344L59.1014 23.5553L59.1046 23.5761L60.093 23.424ZM59.197 20.8L58.3906 21.3914L58.4004 21.4048L58.4107 21.4178L59.197 20.8ZM54.653 21.184L53.7848 20.6879L53.7757 20.7038L53.7672 20.72L54.653 21.184ZM55.293 28.608L54.4831 29.1945L54.4946 29.2104L54.5067 29.2258L55.293 28.608ZM58.941 32.384L58.278 33.1326L58.2801 33.1345L58.941 32.384ZM63.229 36.16L62.5681 36.9105L62.5749 36.9165L62.5818 36.9223L63.229 36.16ZM68.925 42.688L68.0794 43.222L68.0862 43.2325L68.925 42.688ZM69.629 58.368L70.4996 58.8601L70.504 58.8521L69.629 58.368ZM64.893 63.04L64.4027 62.1684L64.3949 62.1729L64.893 63.04ZM57.725 63.768C54.5956 63.768 52.0583 63.2116 50.0649 62.1562L49.1291 63.9238C51.4877 65.1724 54.3691 65.768 57.725 65.768V63.768ZM50.0649 62.1562C48.0957 61.1137 46.6003 59.5129 45.576 57.3069L43.762 58.1491C44.9564 60.7217 46.7463 62.6623 49.1291 63.9238L50.0649 62.1562ZM45.5788 57.313C44.5427 55.0414 43.9378 52.0479 43.8124 48.2867L41.8136 48.3533C41.9442 52.2721 42.5767 55.5506 43.7592 58.143L45.5788 57.313ZM42.9617 49.3089L52.7537 47.8369L52.4563 45.8591L42.6643 47.3311L42.9617 49.3089ZM51.6052 46.8672C51.6486 49.1234 51.8439 50.9988 52.2109 52.4665L54.1511 51.9815C53.8354 50.7185 53.6468 49.01 53.6048 46.8288L51.6052 46.8672ZM52.2184 52.4947C52.6242 53.9378 53.2019 55.1218 54.0347 55.8991L55.3993 54.4369C54.9521 54.0196 54.5058 53.2409 54.1437 51.9533L52.2184 52.4947ZM54.0585 55.9206C54.9303 56.6834 55.9773 57.064 57.149 57.064V55.064C56.4433 55.064 55.8691 54.8473 55.3755 54.4154L54.0585 55.9206ZM57.149 57.064C57.851 57.064 58.5161 56.9461 59.0878 56.6444C59.679 56.3323 60.1155 55.8514 60.3746 55.2361L58.5314 54.4599C58.4491 54.6552 58.3309 54.7824 58.1542 54.8756C57.9579 54.9792 57.6417 55.064 57.149 55.064V57.064ZM60.3567 55.2761C60.804 54.3318 61.029 53.3322 61.029 52.288H59.029C59.029 53.0358 58.87 53.7429 58.5493 54.4199L60.3567 55.2761ZM61.029 52.288C61.029 49.9906 60.4754 47.9864 59.31 46.3353L57.676 47.4887C58.5586 48.739 59.029 50.3187 59.029 52.288H61.029ZM59.3177 46.3465C58.2328 44.7643 56.7813 43.2072 54.9823 41.6714L53.6837 43.1926C55.3833 44.6434 56.7052 46.0731 57.6683 47.4775L59.3177 46.3465ZM54.99 41.6781L50.51 37.7741L49.196 39.2819L53.676 43.1859L54.99 41.6781ZM50.4997 37.7652C48.6084 36.1617 47.0092 34.3566 45.6983 32.3492L44.0237 33.4428C45.4434 35.6167 47.1723 37.5663 49.2063 39.2908L50.4997 37.7652ZM45.7109 32.3691C44.5075 30.4281 43.877 27.9972 43.877 25.024H41.877C41.877 28.2802 42.5692 31.0972 44.0111 33.4229L45.7109 32.3691ZM43.877 25.024C43.877 20.8345 45.1097 17.7911 47.4438 15.7248L46.1182 14.2272C43.247 16.7689 41.877 20.4242 41.877 25.024H43.877ZM47.4506 15.7187C49.8229 13.5798 53.1013 12.456 57.405 12.456V10.456C52.7487 10.456 48.9445 11.6789 46.1114 14.2333L47.4506 15.7187ZM57.405 12.456C60.0789 12.456 62.1083 12.9106 63.5697 13.735L64.5523 11.993C62.6857 10.9401 60.2777 10.456 57.405 10.456V12.456ZM63.5791 13.7402C65.1393 14.5984 66.2746 15.7077 67.0268 17.0616L68.7752 16.0904C67.8207 14.3723 66.396 13.007 64.5429 11.9878L63.5791 13.7402ZM67.0435 17.0905C67.8767 18.4791 68.4306 19.9632 68.708 21.5484L70.678 21.2036C70.3581 19.3754 69.7173 17.6595 68.7585 16.0615L67.0435 17.0905ZM68.7134 21.5769C69.0442 23.1898 69.2285 24.7317 69.2694 26.2038L71.2686 26.1482C71.2242 24.5483 71.0244 22.8902 70.6726 21.1751L68.7134 21.5769ZM70.1466 25.1835L60.2906 26.3995L60.5354 28.3845L70.3914 27.1685L70.1466 25.1835ZM61.4126 27.3642C61.3692 25.8006 61.2602 24.4343 61.0814 23.2719L59.1046 23.5761C59.2671 24.6324 59.3715 25.9114 59.4134 27.4198L61.4126 27.3642ZM61.0869 23.3136C60.9483 22.0665 60.6132 20.9839 59.9833 20.1822L58.4107 21.4178C58.7195 21.8108 58.9817 22.4775 59.0991 23.5344L61.0869 23.3136ZM60.0034 20.2086C59.3009 19.2507 58.2367 18.84 57.021 18.84V20.84C57.768 20.84 58.1544 21.0693 58.3906 21.3914L60.0034 20.2086ZM57.021 18.84C55.6104 18.84 54.4821 19.4675 53.7848 20.6879L55.5212 21.6801C55.8479 21.1084 56.2983 20.84 57.021 20.84V18.84ZM53.7672 20.72C53.2326 21.7405 52.949 22.7945 52.949 23.872H54.949C54.949 23.1575 55.1347 22.4195 55.5388 21.648L53.7672 20.72ZM52.949 23.872C52.949 25.9481 53.4349 27.7471 54.4831 29.1945L56.1029 28.0215C55.3591 26.9942 54.949 25.6359 54.949 23.872H52.949ZM54.5067 29.2258C55.4919 30.4797 56.7528 31.7817 58.278 33.1326L59.604 31.6354C58.1426 30.341 56.9715 29.1257 56.0793 27.9902L54.5067 29.2258ZM58.2801 33.1345L62.5681 36.9105L63.8899 35.4095L59.6019 31.6335L58.2801 33.1345ZM62.5818 36.9223C64.7683 38.7788 66.5993 40.8784 68.0795 43.222L69.7705 42.154C68.1787 39.6336 66.2124 37.3812 63.8762 35.3977L62.5818 36.9223ZM68.0862 43.2325C69.5373 45.4678 70.293 48.2755 70.293 51.712H72.293C72.293 47.9805 71.4701 44.7722 69.7638 42.1435L68.0862 43.2325ZM70.293 51.712C70.293 53.9854 69.7763 56.0359 68.754 57.8839L70.504 58.8521C71.7004 56.6895 72.293 54.3026 72.293 51.712H70.293ZM68.7584 57.8759C67.7428 59.6729 66.2988 61.1019 64.4027 62.1684L65.3833 63.9116C67.5832 62.6741 69.2966 60.9884 70.4996 58.8601L68.7584 57.8759ZM64.3949 62.1729C62.5687 63.222 60.3584 63.768 57.725 63.768V65.768C60.6383 65.768 63.2066 65.162 65.3911 63.9071L64.3949 62.1729ZM81.512 64H80.512V65H81.512V64ZM81.512 20.672H82.512V19.672H81.512V20.672ZM73.704 20.672H72.704V21.672H73.704V20.672ZM73.704 12.16V11.16H72.704V12.16H73.704ZM100.776 12.16H101.776V11.16H100.776V12.16ZM100.776 20.672V21.672H101.776V20.672H100.776ZM93.032 20.672V19.672H92.032V20.672H93.032ZM93.032 64V65H94.032V64H93.032ZM82.512 64V20.672H80.512V64H82.512ZM81.512 19.672H73.704V21.672H81.512V19.672ZM74.704 20.672V12.16H72.704V20.672H74.704ZM73.704 13.16H100.776V11.16H73.704V13.16ZM99.776 12.16V20.672H101.776V12.16H99.776ZM100.776 19.672H93.032V21.672H100.776V19.672ZM92.032 20.672V64H94.032V20.672H92.032ZM93.032 63H81.512V65H93.032V63ZM105.404 64H104.404V65H105.404V64ZM105.404 12.16V11.16H104.404V12.16H105.404ZM116.86 12.16H117.86V11.16H116.86V12.16ZM116.86 64V65H117.86V64H116.86ZM106.404 64V12.16H104.404V64H106.404ZM105.404 13.16H116.86V11.16H105.404V13.16ZM115.86 12.16V64H117.86V12.16H115.86ZM116.86 63H105.404V65H116.86V63ZM124.398 64L123.398 63.9827L123.381 65H124.398V64ZM125.294 12.16V11.16H124.311L124.294 12.1427L125.294 12.16ZM137.582 12.16L138.565 11.9743L138.411 11.16H137.582V12.16ZM143.278 42.304L142.295 42.4897L144.258 42.5037L143.278 42.304ZM149.422 12.16V11.16H148.605L148.442 11.9603L149.422 12.16ZM161.262 12.16L162.262 12.1427L162.245 11.16H161.262V12.16ZM162.158 64V65H163.175L163.158 63.9827L162.158 64ZM154.03 64L153.03 64.0278L153.057 65H154.03V64ZM153.07 29.504L154.07 29.4762L152.085 29.3322L153.07 29.504ZM147.054 64V65H147.895L148.039 64.1718L147.054 64ZM139.822 64L138.839 64.1811L138.989 65H139.822V64ZM133.422 29.248L134.405 29.0669L132.422 29.2259L133.422 29.248ZM132.654 64V65H133.632L133.654 64.0221L132.654 64ZM125.398 64.0173L126.294 12.1773L124.294 12.1427L123.398 63.9827L125.398 64.0173ZM125.294 13.16H137.582V11.16H125.294V13.16ZM136.599 12.3457L142.295 42.4897L144.261 42.1183L138.565 11.9743L136.599 12.3457ZM144.258 42.5037L150.402 12.3597L148.442 11.9603L142.298 42.1043L144.258 42.5037ZM149.422 13.16H161.262V11.16H149.422V13.16ZM160.262 12.1773L161.158 64.0173L163.158 63.9827L162.262 12.1427L160.262 12.1773ZM162.158 63H154.03V65H162.158V63ZM155.03 63.9722L154.07 29.4762L152.07 29.5318L153.03 64.0278L155.03 63.9722ZM152.085 29.3322L146.069 63.8282L148.039 64.1718L154.055 29.6758L152.085 29.3322ZM147.054 63H139.822V65H147.054V63ZM140.805 63.8189L134.405 29.0669L132.439 29.4291L138.839 64.1811L140.805 63.8189ZM132.422 29.2259L131.654 63.9779L133.654 64.0221L134.422 29.2701L132.422 29.2259ZM132.654 63H124.398V65H132.654V63ZM175.285 62.72L174.768 63.5761L175.285 62.72ZM170.421 19.264L169.489 18.9008V18.9008L170.421 19.264ZM175.285 13.504L175.789 14.3673L175.801 14.3601L175.285 13.504ZM193.781 13.504L193.264 14.3601L193.273 14.3658L193.283 14.3713L193.781 13.504ZM198.708 19.264L197.777 19.6272L198.708 19.264ZM198.708 56.832L197.775 56.4741L198.708 56.832ZM193.781 62.72L193.271 61.8597L193.264 61.8639L193.781 62.72ZM187.124 55.744L186.392 55.0635L187.124 55.744ZM188.212 53.44L189.196 53.6189L188.212 53.44ZM188.212 22.72L187.229 22.8989L187.23 22.9071L188.212 22.72ZM187.124 20.416L186.392 21.0964V21.0964L187.124 20.416ZM182.005 20.416L182.737 21.0964V21.0964L182.005 20.416ZM180.917 22.72L181.899 22.9071L181.9 22.8989L180.917 22.72ZM180.853 53.44L179.862 53.5751L179.865 53.5971L179.869 53.6189L180.853 53.44ZM181.876 55.744L181.117 56.3948L181.13 56.4099L181.144 56.4244L181.876 55.744ZM184.501 63.768C180.72 63.768 177.85 63.1009 175.801 61.8639L174.768 63.5761C177.242 65.0698 180.516 65.768 184.501 65.768V63.768ZM175.801 61.8639C173.738 60.6182 172.259 58.8347 171.354 56.4741L169.487 57.1899C170.544 59.9493 172.308 62.0911 174.768 63.5761L175.801 61.8639ZM171.354 56.4741C170.427 54.0562 169.949 51.1329 169.949 47.68H167.949C167.949 51.3097 168.451 54.4878 169.487 57.1899L171.354 56.4741ZM169.949 47.68V28.416H167.949V47.68H169.949ZM169.949 28.416C169.949 24.918 170.428 21.9978 171.352 19.6272L169.489 18.9008C168.45 21.5649 167.949 24.746 167.949 28.416H169.949ZM171.352 19.6272C172.254 17.3128 173.729 15.5723 175.789 14.3672L174.78 12.6408C172.317 14.0811 170.549 16.1806 169.489 18.9008L171.352 19.6272ZM175.801 14.3601C177.85 13.1231 180.72 12.456 184.501 12.456V10.456C180.516 10.456 177.242 11.1542 174.768 12.6479L175.801 14.3601ZM184.501 12.456C188.326 12.456 191.216 13.124 193.264 14.3601L194.297 12.6479C191.822 11.1533 188.525 10.456 184.501 10.456V12.456ZM193.283 14.3713C195.385 15.5782 196.877 17.3185 197.777 19.6272L199.64 18.9008C198.578 16.1748 196.784 14.0751 194.278 12.6367L193.283 14.3713ZM197.777 19.6272C198.701 21.9978 199.18 24.918 199.18 28.416H201.18C201.18 24.746 200.679 21.5649 199.64 18.9008L197.777 19.6272ZM199.18 28.416V47.68H201.18V28.416H199.18ZM199.18 47.68C199.18 51.1329 198.702 54.0562 197.775 56.4741L199.642 57.1899C200.678 54.4878 201.18 51.3097 201.18 47.68H199.18ZM197.775 56.4741C196.872 58.829 195.376 60.6122 193.271 61.8597L194.29 63.5803C196.793 62.0971 198.582 59.955 199.642 57.1899L197.775 56.4741ZM193.264 61.8639C191.216 63.1 188.326 63.768 184.501 63.768V65.768C188.525 65.768 191.822 65.0707 194.297 63.5761L193.264 61.8639ZM184.501 57.64C185.843 57.64 187.04 57.3048 187.857 56.4244L186.392 55.0635C186.1 55.3779 185.548 55.64 184.501 55.64V57.64ZM187.857 56.4244C188.563 55.6649 188.997 54.7127 189.196 53.6189L187.229 53.2611C187.086 54.0446 186.796 54.6285 186.392 55.0635L187.857 56.4244ZM189.196 53.6189C189.378 52.6195 189.469 51.5996 189.469 50.56H187.469C187.469 51.4831 187.388 52.3831 187.229 53.2611L189.196 53.6189ZM189.469 50.56V25.6H187.469V50.56H189.469ZM189.469 25.6C189.469 24.5207 189.379 23.4975 189.195 22.5329L187.23 22.9071C187.388 23.7345 187.469 24.6313 187.469 25.6H189.469ZM189.196 22.5411C188.997 21.4473 188.563 20.4951 187.857 19.7355L186.392 21.0964C186.796 21.5315 187.086 22.1154 187.229 22.8989L189.196 22.5411ZM187.857 19.7355C187.04 18.8552 185.843 18.52 184.501 18.52V20.52C185.548 20.52 186.1 20.7821 186.392 21.0964L187.857 19.7355ZM184.501 18.52C183.217 18.52 182.076 18.869 181.272 19.7355L182.737 21.0964C183.042 20.7684 183.565 20.52 184.501 20.52V18.52ZM181.272 19.7355C180.566 20.4951 180.132 21.4473 179.933 22.5411L181.9 22.8989C182.043 22.1154 182.333 21.5315 182.737 21.0964L181.272 19.7355ZM179.934 22.5329C179.75 23.4975 179.661 24.5207 179.661 25.6H181.661C181.661 24.6313 181.741 23.7345 181.899 22.9071L179.934 22.5329ZM179.661 25.6V50.56H181.661V25.6H179.661ZM179.661 50.56C179.661 51.5849 179.727 52.5901 179.862 53.5751L181.843 53.3049C181.722 52.4126 181.661 51.4978 181.661 50.56H179.661ZM179.869 53.6189C180.064 54.6949 180.468 55.6369 181.117 56.3948L182.636 55.0932C182.261 54.6565 181.982 54.0624 181.836 53.2611L179.869 53.6189ZM181.144 56.4244C181.961 57.3048 183.158 57.64 184.501 57.64V55.64C183.453 55.64 182.901 55.3779 182.609 55.0635L181.144 56.4244ZM207.152 64H206.152V65H207.152V64ZM207.152 12.16V11.16H206.152V12.16H207.152ZM215.217 12.16L216.137 11.7684L215.878 11.16H215.217V12.16ZM225.84 37.12L224.92 37.5116L226.84 37.12H225.84ZM225.84 12.16V11.16H224.84V12.16H225.84ZM235.312 12.16H236.312V11.16H235.312V12.16ZM235.312 64V65H236.312V64H235.312ZM227.568 64L226.639 64.3676L226.888 65H227.568V64ZM216.945 37.12L217.874 36.7524L215.945 37.12H216.945ZM216.945 64V65H217.945V64H216.945ZM208.152 64V12.16H206.152V64H208.152ZM207.152 13.16H215.217V11.16H207.152V13.16ZM214.296 12.5516L224.92 37.5116L226.761 36.7284L216.137 11.7684L214.296 12.5516ZM226.84 37.12V12.16H224.84V37.12H226.84ZM225.84 13.16H235.312V11.16H225.84V13.16ZM234.312 12.16V64H236.312V12.16H234.312ZM235.312 63H227.568V65H235.312V63ZM228.498 63.6324L217.874 36.7524L216.015 37.4876L226.639 64.3676L228.498 63.6324ZM215.945 37.12V64H217.945V37.12H215.945ZM216.945 63H207.152V65H216.945V63ZM243.091 64H242.091V65H243.091V64ZM243.091 12.16V11.16H242.091V12.16H243.091ZM254.547 12.16H255.547V11.16H254.547V12.16ZM254.547 64V65H255.547V64H254.547ZM244.091 64V12.16H242.091V64H244.091ZM243.091 13.16H254.547V11.16H243.091V13.16ZM253.547 12.16V64H255.547V12.16H253.547ZM254.547 63H243.091V65H254.547V63ZM259.781 64L258.799 63.8144L258.575 65H259.781V64ZM269.573 12.16V11.16H268.745L268.591 11.9744L269.573 12.16ZM282.63 12.16L283.613 11.9767L283.46 11.16H282.63V12.16ZM292.294 64V65H293.497L293.277 63.8167L292.294 64ZM281.733 64L280.746 64.156L280.879 65H281.733V64ZM280.005 53.056L280.993 52.9L280.86 52.056H280.005V53.056ZM272.389 53.056V52.056H271.54L271.403 52.8944L272.389 53.056ZM270.598 64V65H271.447L271.584 64.1616L270.598 64ZM273.414 46.208L272.423 46.0732L272.268 47.208H273.414V46.208ZM278.918 46.208V47.208H280.063L279.908 46.0732L278.918 46.208ZM276.165 25.984L277.156 25.8492L275.175 25.8492L276.165 25.984ZM260.764 64.1856L270.556 12.3456L268.591 11.9744L258.799 63.8144L260.764 64.1856ZM269.573 13.16H282.63V11.16H269.573V13.16ZM281.646 12.3433L291.31 64.1833L293.277 63.8167L283.613 11.9767L281.646 12.3433ZM292.294 63H281.733V65H292.294V63ZM282.721 63.844L280.993 52.9L279.018 53.212L280.746 64.156L282.721 63.844ZM280.005 52.056H272.389V54.056H280.005V52.056ZM271.403 52.8944L269.611 63.8384L271.584 64.1616L273.376 53.2176L271.403 52.8944ZM270.598 63H259.781V65H270.598V63ZM273.414 47.208H278.918V45.208H273.414V47.208ZM279.908 46.0732L277.156 25.8492L275.175 26.1188L277.927 46.3428L279.908 46.0732ZM275.175 25.8492L272.423 46.0732L274.404 46.3428L277.156 26.1188L275.175 25.8492ZM297.527 64H296.527V65H297.527V64ZM297.527 12.16V11.16H296.527V12.16H297.527ZM308.983 12.16H309.983V11.16H308.983V12.16ZM308.983 56.256H307.983V57.256H308.983V56.256ZM320.888 56.256H321.888V55.256H320.888V56.256ZM320.888 64V65H321.888V64H320.888ZM298.527 64V12.16H296.527V64H298.527ZM297.527 13.16H308.983V11.16H297.527V13.16ZM307.983 12.16V56.256H309.983V12.16H307.983ZM308.983 57.256H320.888V55.256H308.983V57.256ZM319.888 56.256V64H321.888V56.256H319.888ZM320.888 63H297.527V65H320.888V63ZM331.034 63.04L330.567 63.9238L331.034 63.04ZM326.107 57.728L325.197 58.143L325.199 58.1491L326.107 57.728ZM324.25 48.32L324.102 47.3311L323.221 47.4635L323.251 48.3533L324.25 48.32ZM334.043 46.848L335.042 46.8288L335.02 45.6898L333.894 45.8591L334.043 46.848ZM334.618 52.224L333.648 52.4665L333.652 52.4807L333.656 52.4947L334.618 52.224ZM336.155 55.168L335.472 55.8991L335.484 55.91L335.496 55.9206L336.155 55.168ZM340.891 54.848L339.987 54.4199L339.977 54.4397L339.969 54.4599L340.891 54.848ZM339.931 46.912L339.106 47.4776L339.114 47.4887L339.931 46.912ZM335.771 42.432L335.113 43.1859L335.121 43.1926L335.771 42.432ZM331.29 38.528L331.948 37.774L331.937 37.7652L331.29 38.528ZM326.298 32.896L325.449 33.4229L325.455 33.4329L325.461 33.4428L326.298 32.896ZM328.219 14.976L328.881 15.7248L328.888 15.7187L328.219 14.976ZM345.499 12.864L345.007 13.735L345.017 13.7402L345.499 12.864ZM349.339 16.576L348.464 17.0616L348.472 17.0762L348.481 17.0905L349.339 16.576ZM351.13 21.376L350.145 21.5484L350.148 21.5627L350.151 21.5769L351.13 21.376ZM351.707 26.176L351.829 27.1685L352.731 27.0571L352.706 26.1482L351.707 26.176ZM341.85 27.392L340.851 27.4198L340.881 28.5191L341.973 28.3845L341.85 27.392ZM341.53 23.424L340.537 23.5344L340.539 23.5553L340.542 23.5761L341.53 23.424ZM340.634 20.8L339.828 21.3914L339.838 21.4048L339.848 21.4178L340.634 20.8ZM336.091 21.184L335.222 20.6879L335.213 20.7038L335.205 20.72L336.091 21.184ZM336.73 28.608L335.921 29.1945L335.932 29.2104L335.944 29.2258L336.73 28.608ZM340.379 32.384L339.715 33.1326L339.718 33.1345L340.379 32.384ZM344.667 36.16L344.006 36.9105L344.012 36.9165L344.019 36.9223L344.667 36.16ZM350.362 42.688L349.517 43.222L349.524 43.2325L350.362 42.688ZM351.066 58.368L351.937 58.8601L351.942 58.8521L351.066 58.368ZM346.331 63.04L345.84 62.1684L345.832 62.1729L346.331 63.04ZM339.163 63.768C336.033 63.768 333.496 63.2116 331.502 62.1562L330.567 63.9238C332.925 65.1724 335.807 65.768 339.163 65.768V63.768ZM331.502 62.1562C329.533 61.1137 328.038 59.5129 327.014 57.3069L325.199 58.1491C326.394 60.7217 328.184 62.6623 330.567 63.9238L331.502 62.1562ZM327.016 57.313C325.98 55.0414 325.375 52.0479 325.25 48.2867L323.251 48.3533C323.382 52.2721 324.014 55.5506 325.197 58.143L327.016 57.313ZM324.399 49.3089L334.191 47.8369L333.894 45.8591L324.102 47.3311L324.399 49.3089ZM333.043 46.8672C333.086 49.1234 333.281 50.9988 333.648 52.4665L335.589 51.9815C335.273 50.7185 335.084 49.01 335.042 46.8288L333.043 46.8672ZM333.656 52.4947C334.062 53.9378 334.639 55.1218 335.472 55.8991L336.837 54.4369C336.39 54.0196 335.943 53.2409 335.581 51.9533L333.656 52.4947ZM335.496 55.9206C336.368 56.6834 337.415 57.064 338.586 57.064V55.064C337.881 55.064 337.307 54.8473 336.813 54.4154L335.496 55.9206ZM338.586 57.064C339.288 57.064 339.954 56.9461 340.525 56.6444C341.117 56.3323 341.553 55.8514 341.812 55.2361L339.969 54.4599C339.887 54.6552 339.768 54.7824 339.592 54.8756C339.395 54.9792 339.079 55.064 338.586 55.064V57.064ZM341.794 55.2761C342.242 54.3318 342.466 53.3322 342.466 52.288H340.466C340.466 53.0358 340.307 53.7429 339.987 54.4199L341.794 55.2761ZM342.466 52.288C342.466 49.9906 341.913 47.9864 340.747 46.3353L339.114 47.4887C339.996 48.739 340.466 50.3187 340.466 52.288H342.466ZM340.755 46.3465C339.67 44.7643 338.219 43.2072 336.42 41.6714L335.121 43.1926C336.821 44.6434 338.143 46.0731 339.106 47.4775L340.755 46.3465ZM336.427 41.6781L331.947 37.7741L330.634 39.2819L335.114 43.1859L336.427 41.6781ZM331.937 37.7652C330.046 36.1617 328.447 34.3566 327.136 32.3492L325.461 33.4428C326.881 35.6167 328.61 37.5663 330.644 39.2908L331.937 37.7652ZM327.148 32.3691C325.945 30.4281 325.315 27.9972 325.315 25.024H323.315C323.315 28.2802 324.007 31.0972 325.449 33.4229L327.148 32.3691ZM325.315 25.024C325.315 20.8345 326.547 17.7911 328.881 15.7248L327.556 14.2272C324.684 16.7689 323.315 20.4242 323.315 25.024H325.315ZM328.888 15.7187C331.26 13.5798 334.539 12.456 338.842 12.456V10.456C334.186 10.456 330.382 11.6789 327.549 14.2333L328.888 15.7187ZM338.842 12.456C341.516 12.456 343.546 12.9106 345.007 13.735L345.99 11.993C344.123 10.9401 341.715 10.456 338.842 10.456V12.456ZM345.017 13.7402C346.577 14.5984 347.712 15.7077 348.464 17.0616L350.213 16.0904C349.258 14.3723 347.833 13.007 345.98 11.9878L345.017 13.7402ZM348.481 17.0905C349.314 18.4791 349.868 19.9632 350.145 21.5484L352.116 21.2036C351.796 19.3754 351.155 17.6595 350.196 16.0615L348.481 17.0905ZM350.151 21.5769C350.482 23.1898 350.666 24.7317 350.707 26.2038L352.706 26.1482C352.662 24.5483 352.462 22.8902 352.11 21.1751L350.151 21.5769ZM351.584 25.1835L341.728 26.3995L341.973 28.3845L351.829 27.1685L351.584 25.1835ZM342.85 27.3642C342.807 25.8006 342.698 24.4343 342.519 23.2719L340.542 23.5761C340.705 24.6324 340.809 25.9114 340.851 27.4198L342.85 27.3642ZM342.524 23.3136C342.386 22.0665 342.051 20.9839 341.421 20.1822L339.848 21.4178C340.157 21.8108 340.419 22.4775 340.537 23.5344L342.524 23.3136ZM341.441 20.2086C340.738 19.2507 339.674 18.84 338.458 18.84V20.84C339.206 20.84 339.592 21.0693 339.828 21.3914L341.441 20.2086ZM338.458 18.84C337.048 18.84 335.92 19.4675 335.222 20.6879L336.959 21.6801C337.285 21.1084 337.736 20.84 338.458 20.84V18.84ZM335.205 20.72C334.67 21.7405 334.387 22.7945 334.387 23.872H336.387C336.387 23.1575 336.572 22.4195 336.976 21.648L335.205 20.72ZM334.387 23.872C334.387 25.9481 334.872 27.7471 335.921 29.1945L337.54 28.0215C336.797 26.9942 336.387 25.6359 336.387 23.872H334.387ZM335.944 29.2258C336.929 30.4797 338.19 31.7817 339.715 33.1326L341.042 31.6354C339.58 30.341 338.409 29.1257 337.517 27.9902L335.944 29.2258ZM339.718 33.1345L344.006 36.9105L345.327 35.4095L341.039 31.6335L339.718 33.1345ZM344.019 36.9223C346.206 38.7788 348.037 40.8784 349.517 43.222L351.208 42.154C349.616 39.6336 347.65 37.3812 345.314 35.3977L344.019 36.9223ZM349.524 43.2325C350.975 45.4678 351.73 48.2755 351.73 51.712H353.73C353.73 47.9805 352.908 44.7722 351.201 42.1435L349.524 43.2325ZM351.73 51.712C351.73 53.9854 351.214 56.0359 350.191 57.8839L351.942 58.8521C353.138 56.6895 353.73 54.3026 353.73 51.712H351.73ZM350.196 57.8759C349.18 59.6729 347.736 61.1019 345.84 62.1684L346.821 63.9116C349.021 62.6741 350.734 60.9884 351.937 58.8601L350.196 57.8759ZM345.832 62.1729C344.006 63.222 341.796 63.768 339.163 63.768V65.768C342.076 65.768 344.644 65.162 346.829 63.9071L345.832 62.1729Z" fill="black"/>
<path d="M379.512 61V17.672H371.704V9.16H398.776V17.672H391.032V61H379.512ZM403.34 61V9.16H426.636V16.968H414.796V29.832H423.82V37.768H414.796V53.256H426.764V61H403.34ZM445.725 61.768C442.482 61.768 439.773 61.192 437.597 60.04C435.421 58.888 433.778 57.1173 432.669 54.728C431.56 52.296 430.941 49.16 430.813 45.32L440.605 43.848C440.648 46.0667 440.84 47.8587 441.181 49.224C441.565 50.5893 442.077 51.5707 442.717 52.168C443.4 52.7653 444.21 53.064 445.149 53.064C446.344 53.064 447.112 52.6587 447.453 51.848C447.837 51.0373 448.029 50.184 448.029 49.288C448.029 47.1547 447.517 45.3627 446.493 43.912C445.469 42.4187 444.082 40.9253 442.333 39.432L437.853 35.528C435.89 33.864 434.226 31.9867 432.861 29.896C431.538 27.7627 430.877 25.1387 430.877 22.024C430.877 17.6293 432.178 14.28 434.781 11.976C437.384 9.62933 440.925 8.456 445.405 8.456C448.178 8.456 450.397 8.92533 452.061 9.864C453.768 10.8027 455.048 12.04 455.901 13.576C456.797 15.0693 457.394 16.6693 457.693 18.376C458.034 20.04 458.226 21.64 458.269 23.176L448.413 24.392C448.37 22.856 448.264 21.5333 448.093 20.424C447.965 19.272 447.666 18.3973 447.197 17.8C446.728 17.16 446.002 16.84 445.021 16.84C443.954 16.84 443.165 17.288 442.653 18.184C442.184 19.08 441.949 19.976 441.949 20.872C441.949 22.792 442.397 24.3707 443.293 25.608C444.232 26.8027 445.448 28.0613 446.941 29.384L451.229 33.16C453.49 35.08 455.389 37.256 456.925 39.688C458.504 42.12 459.293 45.128 459.293 48.712C459.293 51.144 458.738 53.3627 457.629 55.368C456.52 57.3307 454.941 58.888 452.893 60.04C450.888 61.192 448.498 61.768 445.725 61.768ZM469.512 61V17.672H461.704V9.16H488.776V17.672H481.032V61H469.512ZM493.404 61V9.16H504.86V61H493.404ZM512.398 61L513.294 9.16H525.582L531.278 39.304L537.422 9.16H549.262L550.158 61H542.03L541.07 26.504L535.054 61H527.822L521.422 26.248L520.654 61H512.398ZM572.501 61.768C568.618 61.768 565.546 61.0853 563.285 59.72C561.023 58.3547 559.402 56.392 558.421 53.832C557.439 51.272 556.949 48.2213 556.949 44.68V25.416C556.949 21.832 557.439 18.7813 558.421 16.264C559.402 13.7467 561.023 11.8267 563.285 10.504C565.546 9.13866 568.618 8.456 572.501 8.456C576.426 8.456 579.519 9.13866 581.781 10.504C584.085 11.8267 585.727 13.7467 586.708 16.264C587.69 18.7813 588.181 21.832 588.181 25.416V44.68C588.181 48.2213 587.69 51.272 586.708 53.832C585.727 56.392 584.085 58.3547 581.781 59.72C579.519 61.0853 576.426 61.768 572.501 61.768ZM572.501 53.64C573.695 53.64 574.57 53.3413 575.125 52.744C575.679 52.1467 576.042 51.3787 576.213 50.44C576.383 49.5013 576.469 48.5413 576.469 47.56V22.6C576.469 21.576 576.383 20.616 576.213 19.72C576.042 18.7813 575.679 18.0133 575.125 17.416C574.57 16.8187 573.695 16.52 572.501 16.52C571.391 16.52 570.559 16.8187 570.005 17.416C569.45 18.0133 569.087 18.7813 568.917 19.72C568.746 20.616 568.661 21.576 568.661 22.6V47.56C568.661 48.5413 568.725 49.5013 568.853 50.44C569.023 51.3787 569.365 52.1467 569.877 52.744C570.431 53.3413 571.306 53.64 572.501 53.64ZM595.153 61V9.16H603.217L613.841 34.12V9.16H623.312V61H615.569L604.945 34.12V61H595.153ZM631.092 61V9.16H642.548V61H631.092ZM647.782 61L657.574 9.16H670.63L680.294 61H669.734L668.006 50.056H660.39L658.598 61H647.782ZM661.414 43.208H666.918L664.166 22.984L661.414 43.208ZM685.528 61V9.16H696.984V53.256H708.888V61H685.528ZM727.163 61.768C723.92 61.768 721.211 61.192 719.035 60.04C716.859 58.888 715.216 57.1173 714.107 54.728C712.997 52.296 712.379 49.16 712.251 45.32L722.043 43.848C722.085 46.0667 722.277 47.8587 722.619 49.224C723.003 50.5893 723.515 51.5707 724.155 52.168C724.837 52.7653 725.648 53.064 726.587 53.064C727.781 53.064 728.549 52.6587 728.891 51.848C729.275 51.0373 729.467 50.184 729.467 49.288C729.467 47.1547 728.955 45.3627 727.931 43.912C726.907 42.4187 725.52 40.9253 723.771 39.432L719.291 35.528C717.328 33.864 715.664 31.9867 714.299 29.896C712.976 27.7627 712.315 25.1387 712.315 22.024C712.315 17.6293 713.616 14.28 716.219 11.976C718.821 9.62933 722.363 8.456 726.843 8.456C729.616 8.456 731.835 8.92533 733.499 9.864C735.205 10.8027 736.485 12.04 737.339 13.576C738.235 15.0693 738.832 16.6693 739.131 18.376C739.472 20.04 739.664 21.64 739.707 23.176L729.851 24.392C729.808 22.856 729.701 21.5333 729.531 20.424C729.403 19.272 729.104 18.3973 728.635 17.8C728.165 17.16 727.44 16.84 726.458 16.84C725.392 16.84 724.603 17.288 724.091 18.184C723.621 19.08 723.387 19.976 723.387 20.872C723.387 22.792 723.835 24.3707 724.731 25.608C725.669 26.8027 726.885 28.0613 728.378 29.384L732.667 33.16C734.928 35.08 736.827 37.256 738.363 39.688C739.941 42.12 740.731 45.128 740.731 48.712C740.731 51.144 740.176 53.3627 739.067 55.368C737.957 57.3307 736.379 58.888 734.331 60.04C732.325 61.192 729.936 61.768 727.163 61.768Z" fill="black"/>
<path d="M0 74H1440" stroke="black"/>
</svg>
